<svg width="533" height="472" viewBox="0 0 533 472" fill="none" xmlns="http://www.w3.org/2000/svg">
<g clip-path="url(#clip0_820_172)">
<rect width="533" height="472" fill="#58BDF6"/>
<path d="M470.32 -279.384C474.941 -281.664 478.857 -282.102 482.09 -280.763L482.09 -280.764C486.527 -278.919 489.496 -274.001 490.939 -265.746C492.38 -257.5 492.286 -245.997 490.662 -231.105C487.656 -203.576 479.541 -165.655 466.523 -118.387C440.368 -23.3931 396.88 100.35 343.878 230.672L341.347 236.882L339.084 242.393L339.083 242.395C338.619 243.549 338.134 244.722 337.649 245.897L337.649 245.898L336.931 247.65L336.931 247.651C336.396 248.962 335.851 250.272 335.305 251.594L335.305 251.595L334.85 252.7C334.173 254.345 333.497 255.989 332.81 257.643L332.809 257.645C332.405 258.633 331.992 259.62 331.577 260.619L331.577 260.62L330.809 262.479C310.617 311.105 289.793 358.977 268.895 404.782C263.776 416.004 258.549 427.303 252.92 439.345C245.739 454.674 238.606 469.658 231.672 483.981L228.712 490.078C215.261 517.677 201.953 544.028 189.138 568.389C165.276 613.757 143.342 651.976 123.949 682C108.451 705.989 95.0397 724.014 83.7783 736.019C78.1475 742.022 73.0604 746.513 68.5241 749.492C64.0941 752.402 60.2102 753.855 56.8714 753.888L56.8716 753.872L56.6255 753.869C55.2689 753.854 54.0047 753.6 52.8308 753.117L52.8298 753.117C48.3941 751.272 45.4287 746.356 43.9882 738.104C42.5491 729.86 42.6461 718.356 44.27 703.46C47.2761 675.93 55.3897 638.009 68.4084 590.732C94.9875 494.23 139.437 368.049 193.585 235.442L194.242 233.827C194.768 232.536 195.302 231.244 195.838 229.952L195.839 229.95C196.304 228.795 196.787 227.633 197.263 226.465L197.981 224.705C198.496 223.451 199.011 222.199 199.536 220.947L199.536 220.946L200.122 219.527L200.122 219.526C200.779 217.921 201.436 216.326 202.112 214.711L202.112 214.71C202.528 213.709 202.941 212.696 203.365 211.677L204.113 209.886C224.315 161.211 245.158 113.339 266.037 67.5721C271.105 56.4682 276.323 45.169 282.002 33.0197C290.099 15.7153 298.252 -1.36209 306.22 -17.7239C319.661 -45.3227 332.979 -71.6641 345.784 -96.0049C369.666 -141.422 391.6 -179.641 410.973 -209.616C428.017 -236.003 442.538 -255.172 454.45 -267.054C460.407 -272.995 465.7 -277.103 470.32 -279.384ZM478.003 -278.126C475.877 -278.149 473.505 -277.39 470.965 -276.026C468.423 -274.66 465.695 -272.678 462.854 -270.235C457.171 -265.348 451.007 -258.594 444.927 -251.159C433.527 -237.218 422.397 -220.858 415.237 -209.867L413.859 -207.743C394.546 -177.858 372.666 -139.723 348.83 -94.4057C336.043 -70.0893 322.742 -43.7827 309.319 -16.2189C301.35 0.125727 293.215 17.1863 285.118 34.4731C279.448 46.6043 274.229 57.9047 269.17 68.9906C248.299 114.714 227.484 162.561 207.3 211.192L206.553 212.982C206.129 213.991 205.714 215.01 205.3 216.017C204.623 217.633 203.966 219.229 203.309 220.824L202.713 222.253L202.713 222.254L201.168 225.993L201.167 225.994L200.439 227.765C200.202 228.342 199.963 228.922 199.724 229.503L199.015 231.249C198.469 232.551 197.944 233.845 197.418 235.136L196.761 236.751C142.669 369.223 98.2638 495.267 71.7187 591.656C58.9228 638.12 50.8669 676.126 47.823 703.275C46.3013 716.848 46.0305 727.722 47.0523 735.585C47.5632 739.517 48.3989 742.709 49.5713 745.115C50.7441 747.521 52.2633 749.157 54.1482 749.94L54.1492 749.94C55.0117 750.296 55.9356 750.479 56.9186 750.49C59.0449 750.513 61.4172 749.754 63.9569 748.39C66.4989 747.024 69.226 745.043 72.0672 742.6C77.7496 737.715 83.9117 730.962 89.9907 723.528C102.15 708.66 114.002 691.04 121.062 680.117C140.405 650.183 162.286 612.049 186.092 566.78C198.889 542.454 212.18 516.137 225.613 488.564C233.471 472.434 241.606 455.383 249.804 437.881C255.424 425.858 260.642 414.557 265.761 403.354L265.762 403.353C286.643 357.591 307.447 309.754 327.622 261.162L327.623 261.161L328.39 259.301L328.389 259.3C328.803 258.312 329.209 257.324 329.612 256.336C330.299 254.672 330.977 253.028 331.653 251.394L332.118 250.278C332.664 248.965 333.199 247.663 333.735 246.351L333.736 246.351L334.452 244.588C334.926 243.426 335.412 242.26 335.878 241.095L338.151 235.574L338.151 235.573C392.242 103.111 436.649 -22.9222 463.194 -119.302C475.985 -165.761 484.038 -203.768 487.08 -230.918C488.602 -244.491 488.872 -255.365 487.85 -263.229C487.339 -267.161 486.504 -270.354 485.331 -272.759C484.158 -275.166 482.639 -276.803 480.754 -277.586L480.753 -277.586C479.892 -277.941 478.971 -278.114 478.003 -278.126Z" stroke="white" stroke-width="0.49163"/>
<path d="M387.161 -304.769C391.367 -307.744 395.165 -308.789 398.566 -307.972C401.967 -307.153 404.873 -304.493 407.264 -299.93C409.655 -295.367 411.513 -288.931 412.827 -280.621C415.454 -264.002 415.894 -239.956 414.122 -208.588C408.539 -109.61 381.295 51.2106 341.088 222.924L339.164 231.109L338.812 232.61C338.492 233.947 338.184 235.286 337.855 236.618L337.854 236.62L336.153 243.789C335.884 244.899 335.627 245.994 335.349 247.101L335.348 247.105C334.998 248.595 334.638 250.084 334.277 251.585L334.03 252.595L334.03 252.596C333.649 254.194 333.257 255.802 332.866 257.39L332.866 257.391C317.628 320.319 301.477 381.467 284.853 439.099C279.557 457.467 274.185 475.598 268.87 492.992C259.975 522.145 250.952 550.255 242.04 576.527C225.555 625.123 209.871 666.301 195.434 698.926C183.39 726.159 172.571 746.636 163.038 760.281C158.271 767.104 153.833 772.209 149.731 775.597C145.63 778.984 141.89 780.634 138.511 780.6C137.777 780.591 137.052 780.497 136.337 780.327L136.336 780.327C132.936 779.507 130.03 776.848 127.64 772.286C125.25 767.723 123.391 761.285 122.078 752.975C119.451 736.357 119.01 712.31 120.782 680.943C126.454 580.384 154.48 416.004 195.751 241.217L195.751 241.216C196.174 239.393 196.607 237.559 197.05 235.726L197.051 235.725L199.555 225.222L199.555 225.221C199.957 223.525 200.37 221.809 200.782 220.102C201.194 218.386 201.606 216.661 202.028 214.956L202.029 214.954C217.205 152.232 233.356 91.0937 250.042 33.2462C255.338 14.8685 260.71 -3.26307 266.024 -20.6471C274.961 -49.9279 283.983 -78.0272 292.855 -104.181C309.34 -152.767 325.023 -193.945 339.46 -226.571C352.17 -255.301 363.513 -276.507 373.418 -290.107C378.371 -296.908 382.955 -301.794 387.161 -304.769ZM395.951 -304.803C393.915 -304.759 391.756 -303.896 389.524 -302.4C387.2 -300.841 384.778 -298.585 382.308 -295.806C377.368 -290.249 372.208 -282.577 367.229 -274.147C357.269 -257.286 348.003 -237.357 342.612 -225.167C328.207 -192.631 312.558 -151.546 296.112 -103.069C287.258 -76.949 278.235 -48.884 269.317 -19.638C264.675 -4.44187 259.981 11.3262 255.339 27.3306L253.353 34.2037C236.685 92.0095 220.543 153.095 205.376 215.785L204.128 220.925C203.716 222.631 203.304 224.337 202.902 226.034L200.396 236.539C199.953 238.373 199.52 240.197 199.097 242.012C157.875 416.603 129.883 580.761 124.221 681.146C123.445 694.872 122.595 717.811 123.957 737.808C124.638 747.804 125.873 757.08 127.953 764.105C128.993 767.617 130.248 770.58 131.759 772.792C133.27 775.003 135.051 776.483 137.148 776.989L137.148 776.99C137.66 777.119 138.191 777.175 138.718 777.181C140.825 777.204 143.069 776.332 145.39 774.775C147.714 773.216 150.136 770.959 152.606 768.18C157.546 762.622 162.705 754.948 167.684 746.518C177.022 730.71 185.75 712.207 191.247 699.915L192.302 697.542C206.707 665.016 222.346 623.931 238.802 575.434C247.697 549.197 256.71 521.131 265.597 492.002C270.902 474.626 276.275 456.512 281.561 438.162C298.167 380.572 314.31 319.476 329.538 256.581C329.734 255.786 329.927 254.988 330.12 254.191C330.314 253.395 330.507 252.599 330.703 251.805L330.703 251.804L330.949 250.794L330.95 250.794C331.311 249.304 331.671 247.812 332.022 246.32L332.028 246.294L332.028 246.274C332.303 245.174 332.56 244.083 332.825 242.987L332.825 242.986L334.528 235.817C334.847 234.484 335.166 233.149 335.476 231.815L335.827 230.314C377.039 55.7432 405.031 -108.405 410.693 -208.78C412.931 -248.499 411.417 -272.021 408.5 -285.822C405.588 -299.601 401.256 -303.785 397.764 -304.625L397.763 -304.625C397.251 -304.754 396.722 -304.81 396.196 -304.815L395.951 -304.818L395.951 -304.803Z" stroke="white" stroke-width="0.49163"/>
<path d="M311.183 -321.808C311.41 -321.806 311.626 -321.803 311.84 -321.782L311.844 -321.782C315.333 -321.505 318.62 -319.333 321.695 -315.2C324.771 -311.066 327.613 -304.999 330.21 -296.996C335.403 -280.992 339.599 -257.31 342.753 -226.051C346.342 -190.493 348.453 -146.474 349.028 -95.2312C350.081 -1.8521 345.946 109.092 337.079 225.591C336.941 227.418 336.803 229.215 336.655 231.022L336.655 231.025C336.528 232.783 336.39 234.57 336.243 236.347L336.243 236.348L335.83 241.605C335.693 243.353 335.556 245.102 335.409 246.84L335.409 246.842L334.976 252.165C328.145 335.707 319.426 415.599 309.062 489.612C304.751 520.301 300.23 549.463 295.628 576.294C286.969 626.775 277.919 669.904 268.739 704.485C260.81 734.374 253.044 756.856 245.497 771.841C241.724 779.334 238.012 784.94 234.372 788.66C230.73 792.38 227.184 794.189 223.738 794.151L223.493 794.148L223.493 794.165C223.353 794.162 223.217 794.158 223.082 794.145L223.077 794.144L222.75 794.113C219.383 793.729 216.205 791.565 213.226 787.562C210.151 783.429 207.309 777.36 204.712 769.357C199.518 753.354 195.322 729.672 192.167 698.413C188.578 662.836 186.459 618.816 185.894 567.593C184.84 474.195 188.975 363.24 197.842 246.731C197.981 244.914 198.118 243.126 198.266 241.32L198.267 241.318C198.348 240.199 198.438 239.06 198.53 237.92L198.53 237.919L199.09 230.737C199.228 228.988 199.366 227.231 199.513 225.483L199.513 225.482C199.65 223.724 199.797 221.956 199.944 220.187C206.776 136.626 215.496 56.7326 225.86 -17.2803C230.118 -47.6352 234.639 -76.7974 239.294 -103.962L239.293 -103.962C247.962 -154.454 257.003 -197.592 266.183 -232.163C274.112 -262.041 281.877 -284.518 289.423 -299.501C293.197 -306.993 296.909 -312.599 300.55 -316.318C304.191 -320.038 307.737 -321.846 311.183 -321.808ZM311.096 -318.368C308.962 -318.391 306.829 -317.426 304.727 -315.71C302.624 -313.993 300.533 -311.51 298.475 -308.458C294.359 -302.354 290.351 -293.933 286.644 -284.698C279.691 -267.378 273.78 -247.149 270.189 -233.84L269.501 -231.274C260.357 -196.801 251.325 -153.765 242.685 -103.382C238.039 -76.2516 233.528 -47.1233 229.27 -16.8032C218.915 57.1415 210.197 136.974 203.375 220.456C203.228 222.233 203.08 223.992 202.942 225.761C202.795 227.52 202.658 229.269 202.521 231.007L202.52 231.007L201.959 238.189L201.695 241.581C201.548 243.398 201.41 245.186 201.273 246.973C192.406 363.394 188.281 474.236 189.326 567.543C189.893 618.657 192.004 662.574 195.586 698.052L195.586 698.053C196.969 711.734 199.716 734.526 204.188 754.065C206.424 763.832 209.094 772.802 212.247 779.416C213.823 782.722 215.526 785.453 217.365 787.402C219.204 789.35 221.196 790.533 223.346 790.704L223.355 790.705L223.363 790.705C223.427 790.706 223.496 790.71 223.574 790.716C223.648 790.722 223.733 790.729 223.816 790.73C225.949 790.753 228.081 789.788 230.184 788.071C232.286 786.354 234.379 783.871 236.437 780.819C240.553 774.714 244.561 766.291 248.268 757.054C255.684 738.578 261.916 716.791 265.41 703.626C274.564 669.134 283.586 626.107 292.225 575.734C296.829 548.938 301.339 519.81 305.641 489.156C315.672 417.522 324.169 340.371 330.892 259.722L331.537 251.906C331.684 250.138 331.831 248.359 331.968 246.59C332.116 244.841 332.253 243.102 332.39 241.364L332.803 236.097L332.802 236.096C332.949 234.328 333.088 232.551 333.215 230.783C333.363 228.965 333.501 227.166 333.639 225.369C342.506 108.947 346.631 -1.88436 345.585 -95.1725C345.009 -146.306 342.907 -190.223 339.324 -225.681C335.326 -265.266 330.152 -288.263 325.112 -301.438C320.08 -314.593 315.145 -318.046 311.564 -318.332L311.564 -318.333C311.493 -318.339 311.418 -318.345 311.342 -318.349L311.342 -318.365L311.096 -318.368Z" stroke="white" stroke-width="0.49163"/>
<path d="M224.004 -321.845C227.488 -322.118 231.073 -320.488 234.755 -316.888C238.438 -313.288 242.194 -307.741 246.012 -300.244C253.646 -285.253 261.501 -262.523 269.512 -232.149C278.627 -197.573 287.609 -154.421 296.185 -103.916C300.783 -76.8267 305.259 -47.6539 309.475 -17.2054C319.72 56.7793 328.306 136.686 334.994 220.289L334.994 220.29C335.135 221.952 335.267 223.624 335.399 225.304L333.679 225.485L333.723 225.974L335.437 225.837L336.235 236.103C336.373 237.895 336.51 239.685 336.638 241.475L336.638 241.476L337.051 246.88C345.59 361.565 349.548 470.861 348.526 563.342L348.474 567.733C347.82 618.982 345.633 662.993 341.977 698.559C338.766 729.812 334.529 753.487 329.308 769.481C326.698 777.479 323.846 783.542 320.764 787.669C317.779 791.667 314.599 793.824 311.233 794.2L310.906 794.231L310.903 794.231C310.707 794.249 310.504 794.255 310.298 794.257L310.299 794.243L310.053 794.24C306.62 794.202 303.092 792.333 299.473 788.571C295.854 784.81 292.168 779.18 288.425 771.681C280.94 756.684 273.25 734.262 265.409 704.504C256.294 669.928 247.312 626.787 238.735 576.273C234.11 549.036 229.644 519.853 225.456 489.552L225.456 489.551C215.219 415.665 206.622 335.759 199.916 252.048L198.685 236.282C198.548 234.441 198.41 232.672 198.282 230.92L198.281 230.919L197.869 225.506C189.195 109.011 185.248 -1.93438 186.446 -95.3475C187.101 -146.606 189.288 -190.627 192.944 -226.173C196.155 -257.427 200.389 -281.101 205.607 -297.096C208.216 -305.094 211.067 -311.157 214.147 -315.284C217.228 -319.41 220.517 -321.575 224.004 -321.845ZM224.879 -318.443C224.685 -318.445 224.47 -318.448 224.252 -318.417C220.671 -318.13 215.741 -314.677 210.697 -301.552C205.637 -288.389 200.425 -265.406 196.354 -225.836C192.707 -190.388 190.531 -146.47 189.878 -95.3204C188.709 -4.92403 192.378 101.923 200.488 214.336L201.287 225.232L201.699 230.655C201.763 231.536 201.829 232.417 201.896 233.297C201.962 234.178 202.028 235.059 202.092 235.939L202.092 235.941L203.334 251.776C209.832 332.803 218.086 410.27 227.904 482.144L228.858 489.082C233.038 519.348 237.496 548.496 242.123 575.7C250.683 626.105 259.639 669.153 268.73 703.64C278.868 742.103 287.567 764.002 294.601 776.225C301.405 788.047 306.698 790.894 310.292 790.811L310.634 790.794C314.215 790.515 319.153 787.068 324.204 773.923C329.264 760.757 334.476 737.772 338.547 698.202C342.194 662.735 344.37 618.826 345.023 567.686C346.23 474.384 342.281 363.542 333.615 247.134L333.615 247.133L333.202 241.722L333.203 241.722C333.075 239.93 332.936 238.147 332.799 236.366L331.982 225.806C331.844 224.054 331.705 222.311 331.557 220.568C324.868 137.027 316.289 57.1904 306.052 -16.7256C301.844 -47.1393 297.377 -76.278 292.778 -103.333C284.219 -153.739 275.262 -196.787 266.17 -231.274C262.706 -244.407 256.536 -266.121 249.18 -284.576C245.502 -293.802 241.523 -302.225 237.432 -308.358C235.386 -311.424 233.305 -313.929 231.212 -315.673C229.123 -317.415 227.003 -318.416 224.879 -318.443Z" stroke="white" stroke-width="0.49163"/>
<path d="M137.25 -308.188C140.652 -309.002 144.448 -307.952 148.649 -304.972C152.85 -301.992 157.426 -297.1 162.368 -290.293C172.252 -276.679 183.561 -255.457 196.226 -226.707C210.631 -194.009 226.241 -152.8 242.626 -104.215C251.442 -78.0818 260.423 -49.9699 269.322 -20.6397C273.88 -5.62811 278.542 10.1375 283.214 26.3202L285.216 33.2803C301.776 91.0721 317.835 152.251 332.933 215.101L332.933 215.102L333.036 215.524L333.036 215.525C333.412 217.095 333.798 218.66 334.164 220.226L334.164 220.227L335.376 225.325C335.789 227.05 336.203 228.785 336.607 230.5L336.607 230.501L336.711 230.935C337.096 232.574 337.491 234.197 337.866 235.833L337.866 235.834L339.162 241.355C380.143 416.224 407.892 580.65 413.379 681.204C415.102 712.566 414.623 736.609 411.97 753.223C410.643 761.531 408.774 767.965 406.375 772.525C404.051 776.942 401.245 779.572 397.977 780.472L397.658 780.553C396.959 780.718 396.244 780.804 395.513 780.821L395.513 780.807L395.267 780.804C391.889 780.767 388.156 779.059 384.069 775.629C379.985 772.2 375.569 767.072 370.832 760.243C361.359 746.587 350.623 726.166 338.682 699.053C324.278 666.355 308.668 625.146 292.282 576.56C283.457 550.408 274.476 522.286 265.586 492.985C260.368 475.809 255.022 457.668 249.692 439.065C233.114 381.185 217.045 319.986 201.957 257.185L200.283 250.214C200.03 249.14 199.776 248.075 199.522 247.01L199.522 247.009L199.39 246.476C199.023 244.927 198.648 243.383 198.292 241.856L198.291 241.854C197.868 240.079 197.446 238.306 197.033 236.522L197.032 236.521L195.736 231.001C154.766 56.1421 127.026 -108.284 121.529 -208.838C119.806 -240.205 120.285 -264.246 122.939 -280.858C124.266 -289.165 126.134 -295.598 128.533 -300.157C130.932 -304.716 133.845 -307.372 137.25 -308.188ZM139.525 -305.031C139.021 -305.02 138.532 -304.959 138.05 -304.851L138.047 -304.85C135.948 -304.347 134.162 -302.868 132.646 -300.658C131.13 -298.447 129.87 -295.486 128.824 -291.975C126.733 -284.952 125.483 -275.679 124.787 -265.685C123.481 -246.942 124.118 -225.613 124.823 -211.712L124.964 -209.034C130.446 -108.653 158.167 55.5499 199.103 230.212L200.398 235.732C200.811 237.507 201.234 239.281 201.657 241.044L201.657 241.045C202.014 242.584 202.392 244.125 202.758 245.661L202.758 245.662L202.889 246.205C203.143 247.279 203.397 248.335 203.65 249.398L205.313 256.368L205.314 256.369C220.395 319.127 236.447 380.273 253.017 438.112C258.339 456.697 263.685 474.822 268.894 491.981C277.776 521.246 286.749 549.332 295.558 575.451C311.908 623.927 327.485 665.042 341.84 697.649C347.193 709.805 356.389 729.662 366.288 746.505C371.237 754.925 376.368 762.602 381.287 768.188C383.747 770.981 386.16 773.259 388.478 774.845C390.793 776.43 393.031 777.338 395.138 777.361C395.728 777.368 396.3 777.303 396.863 777.166L396.862 777.165C398.961 776.662 400.747 775.184 402.263 772.974C403.778 770.763 405.039 767.802 406.084 764.291C408.176 757.268 409.426 747.995 410.122 738.001C411.428 719.258 410.791 697.929 410.086 684.028L409.945 681.35C404.463 580.969 376.742 416.766 335.806 242.104L334.509 236.585L334.51 236.585C334.135 234.958 333.739 233.328 333.354 231.704L333.354 231.703L333.251 231.269L332.02 226.093L330.807 220.986L329.679 216.302L329.576 215.869L328.158 209.986C313.483 149.244 297.927 90.1294 281.892 34.184C277.227 17.9043 272.55 1.99335 267.971 -13.2118L266.015 -19.6839L264.346 -25.1627C256.003 -52.4821 247.6 -78.6961 239.351 -103.154C223.001 -151.63 207.424 -192.745 193.069 -225.352C187.716 -237.509 178.52 -257.365 168.621 -274.208C163.672 -282.628 158.541 -290.306 153.622 -295.892C151.162 -298.684 148.749 -300.962 146.431 -302.548C144.116 -304.133 141.878 -305.041 139.771 -305.065L139.525 -305.067L139.525 -305.031Z" stroke="white" stroke-width="0.49163"/>
<path d="M53.692 -281.116C56.9256 -282.453 60.8406 -282.011 65.4567 -279.725C70.073 -277.438 75.3595 -273.322 81.3066 -267.37C93.1996 -255.469 107.689 -236.274 124.691 -209.861C144.059 -179.752 165.925 -141.493 189.681 -96.1392C202.517 -71.6236 215.784 -45.2643 229.109 -17.7832L229.109 -17.7823C236.992 -1.55054 245.112 15.539 253.248 33.0029C258.434 44.1314 263.782 55.7638 269.158 67.583C288.66 110.506 308.125 155.303 327.06 200.869L330.84 209.992L331.021 210.436L331.022 210.438C331.635 211.909 332.237 213.389 332.841 214.861L332.842 214.862C333.522 216.502 334.201 218.141 334.861 219.788L334.862 219.792C335.484 221.283 336.097 222.783 336.71 224.284L336.71 224.285L337.6 226.458C338.088 227.663 338.587 228.868 339.074 230.061L339.074 230.062C339.82 231.919 340.568 233.757 341.325 235.585C395.248 368.303 439.495 494.559 465.9 591.085C478.838 638.374 486.892 676.315 489.85 703.842C491.45 718.734 491.526 730.237 490.072 738.48C488.615 746.732 485.64 751.647 481.2 753.484C479.965 753.995 478.625 754.248 477.19 754.235L477.188 754.226C473.788 754.188 469.824 752.675 465.296 749.651C460.772 746.628 455.706 742.111 450.105 736.099C438.904 724.074 425.589 706.095 410.221 682.218C390.872 652.168 369.006 613.899 345.231 568.496C332.395 543.99 319.128 517.621 305.803 490.15C297.93 473.928 289.809 456.838 281.664 439.364C276.276 427.8 270.928 416.158 265.764 404.774C246.334 362.018 226.874 317.239 207.876 271.529L204.082 262.375C203.742 261.555 203.402 260.735 203.063 259.914L202.052 257.447L201.334 255.689L201.333 255.688L200.05 252.566C199.361 250.867 198.671 249.197 197.982 247.528C197.465 246.255 196.959 245 196.441 243.745L195.838 242.274C195.197 240.704 194.564 239.142 193.922 237.581L193.589 236.753L193.588 236.753C139.655 104.054 95.4069 -22.1913 68.9923 -118.728C56.054 -166.016 48.0005 -203.949 45.042 -231.475C43.4423 -246.368 43.3662 -257.871 44.8208 -266.114C46.277 -274.366 49.253 -279.279 53.692 -281.116ZM57.9522 -278.474C56.9106 -278.485 55.9211 -278.314 55.0076 -277.936C53.1221 -277.156 51.6003 -275.522 50.4238 -273.118C49.2479 -270.714 48.4071 -267.523 47.8898 -263.592C46.8551 -255.73 47.1078 -244.857 48.6065 -231.282C51.6043 -204.127 59.596 -166.108 72.3149 -119.629C98.2864 -24.7217 141.521 98.9582 194.25 229.244L196.767 235.454L197.103 236.283C197.735 237.844 198.366 239.406 199.018 240.968L199.621 242.438L201.162 246.221C201.842 247.881 202.532 249.561 203.231 251.25L203.232 251.251L204.514 254.371L205.232 256.129C205.902 257.769 206.583 259.41 207.263 261.049C227.443 309.899 248.185 357.773 268.893 403.345C274.048 414.72 279.398 426.344 284.777 437.899C292.914 455.355 301.035 472.429 308.9 488.633C322.208 516.079 335.458 542.414 348.277 566.895C371.998 612.207 393.814 650.38 413.116 680.357C434.649 713.807 449.696 731.945 460.168 741.395C470.622 750.829 476.588 751.665 479.914 750.293C481.8 749.513 483.322 747.879 484.498 745.475C485.674 743.071 486.515 739.88 487.032 735.95C488.067 728.087 487.814 717.214 486.315 703.639C483.318 676.484 475.326 638.465 462.607 591.986C436.233 495.582 392.035 369.465 338.164 236.883L338.164 236.882C337.785 235.964 337.41 235.046 337.036 234.127L335.915 231.362L334.441 227.748L334.44 227.747L333.559 225.584C332.947 224.082 332.322 222.589 331.701 221.08L331.702 221.08C331.032 219.43 330.36 217.789 329.68 216.158C329.077 214.677 328.463 213.203 327.861 211.734L327.68 211.289L327.679 211.288C307.565 162.616 286.834 114.732 266.049 68.9823C260.682 57.1719 255.332 45.5488 250.154 34.4386C243.044 19.1731 235.937 4.19315 228.996 -10.1756L226.031 -16.2956C212.724 -43.7415 199.474 -70.0762 186.655 -94.5573C162.953 -139.81 141.137 -177.984 121.817 -208.019L121.817 -208.02C114.797 -218.907 103.027 -236.455 90.9336 -251.307C84.8876 -258.732 78.7549 -265.491 73.0896 -270.407C70.2571 -272.864 67.5354 -274.866 64.9956 -276.261C62.4579 -277.654 60.0843 -278.45 57.9522 -278.474Z" stroke="white" stroke-width="0.49163"/>
<circle cx="199.667" cy="232.684" r="59.5708" transform="rotate(23.6759 199.667 232.684)" fill="#58BDF6" stroke="white" stroke-width="0.33373"/>
<circle cx="199.839" cy="233.123" r="55.2323" transform="rotate(23.6759 199.839 233.123)" stroke="white" stroke-width="0.33373"/>
<circle cx="346.101" cy="229.569" r="59.5708" transform="rotate(23.6759 346.101 229.569)" fill="#58BDF6" stroke="white" stroke-width="0.33373"/>
<circle cx="346.272" cy="230.007" r="55.2323" transform="rotate(23.6759 346.272 230.007)" stroke="white" stroke-width="0.33373"/>
</g>
<defs>
<clipPath id="clip0_820_172">
<rect width="533" height="472" fill="white"/>
</clipPath>
</defs>
</svg>
