<svg width="533" height="472" viewBox="0 0 533 472" fill="none" xmlns="http://www.w3.org/2000/svg">
<g clip-path="url(#clip0_820_146)">
<rect width="533" height="472" fill="#58BDF6"/>
<g clip-path="url(#clip1_820_146)">
<path d="M94.0388 0.341797H92V771.361H94.0388V0.341797Z" fill="white" fill-opacity="0.6"/>
<path d="M110.608 0.341797H108.569V771.361H110.608V0.341797Z" fill="white" fill-opacity="0.6"/>
<path d="M408.862 0.339806H406.823V622.959C403.044 614.233 398.145 606.105 392.293 598.765V0.339806H390.254V596.284C385.871 591.106 381.005 586.348 375.724 582.081V435.169C377.953 431.791 379.251 427.748 379.251 423.405C379.251 419.062 377.953 415.012 375.724 411.641V0.339806H373.685V408.997C370.043 404.994 364.905 402.378 359.155 402.031V0.339806H357.116V402.011C351.435 402.201 346.311 404.6 342.586 408.385V0.339806H340.547V410.791C337.965 414.325 336.436 418.688 336.436 423.398C336.436 428.108 337.965 432.471 340.547 436.005V563.201C335.838 561.719 330.985 560.564 326.017 559.742V0.339806H323.978V559.429C319.228 558.736 314.376 558.362 309.448 558.314V0.339806H307.41V558.314C302.482 558.362 297.63 558.736 292.879 559.422V0.339806H290.841V71.3252C285.424 31.0582 250.927 0 209.172 0C167.416 0 131.295 32.5398 127.177 74.2V0.339806H125.138V771.359H127.177V90.6058C128.604 105.075 133.776 118.436 141.707 129.724V285.981C134.666 289.487 129.827 296.752 129.827 305.152C129.827 313.552 134.666 320.817 141.707 324.324V771.366H143.745V325.201C146.077 326.071 148.598 326.553 151.235 326.553C153.702 326.553 156.067 326.132 158.276 325.364V771.359H160.314V324.535C167.6 321.116 172.643 313.722 172.643 305.146C172.643 296.569 167.6 289.175 160.314 285.756V148.76C164.827 152.09 169.693 154.972 174.844 157.33V771.359H176.883V158.234C181.525 160.212 186.384 161.775 191.413 162.876V771.352H193.452V163.304C198.162 164.215 203.021 164.724 207.982 164.792V627.88C203.592 639.589 201.186 652.264 201.186 665.51C201.186 724.717 249.187 772.718 308.395 772.718C367.603 772.718 415.604 724.717 415.604 665.51C415.604 652.318 413.218 639.684 408.855 628.015V0.339806H408.862ZM373.685 437.799V580.477C369.118 576.963 364.259 573.81 359.155 571.057V444.765C364.905 444.418 370.043 441.802 373.685 437.799ZM357.116 444.785V569.983C352.461 567.605 347.609 565.559 342.586 563.867V438.411C346.311 442.196 351.435 444.595 357.116 444.785ZM290.834 559.742C285.866 560.557 281.013 561.713 276.304 563.194V130.2C283.895 119.564 289.012 107.039 290.834 93.4738V559.735V559.742ZM274.265 132.932V563.846C269.243 565.532 264.39 567.578 259.735 569.956V147.469C265.158 143.249 270.044 138.362 274.265 132.932ZM243.166 157.493C248.317 155.155 253.177 152.308 257.696 149.012V571.037C252.592 573.782 247.733 576.936 243.166 580.443V157.493ZM210.028 164.792C214.989 164.745 219.842 164.255 224.558 163.365V598.697C218.713 606.023 213.807 614.131 210.028 622.837V164.792ZM151.235 283.738C148.598 283.738 146.077 284.214 143.745 285.09V132.497C147.959 137.988 152.839 142.936 158.276 147.217V284.934C156.067 284.166 153.702 283.745 151.235 283.745V283.738ZM226.597 596.223V162.957C231.626 161.877 236.485 160.341 241.127 158.383V582.04C235.846 586.301 230.98 591.051 226.597 596.223Z" fill="white" fill-opacity="0.6"/>
<path d="M425.431 0.341797H423.393V772.381H425.431V0.341797Z" fill="white" fill-opacity="0.6"/>
<path d="M442 0.341797H439.961V771.361H442V0.341797Z" fill="white" fill-opacity="0.6"/>
<circle cx="216.358" cy="82.5683" r="90.935" transform="rotate(60.3565 216.358 82.5683)" fill="#58BDF6" stroke="white" stroke-width="0.50944"/>
<circle cx="216.167" cy="83.26" r="84.3122" transform="rotate(60.3565 216.167 83.26)" stroke="white" stroke-width="0.50944"/>
<circle cx="153.632" cy="297.444" r="30.5528" transform="rotate(60.3565 153.632 297.444)" fill="#58BDF6" stroke="white" stroke-width="0.171164"/>
<circle cx="153.568" cy="297.68" r="28.3276" transform="rotate(60.3565 153.568 297.68)" stroke="white" stroke-width="0.171164"/>
<circle cx="361.585" cy="409.123" r="34.8365" transform="rotate(60.3565 361.585 409.123)" fill="#58BDF6" stroke="white" stroke-width="0.195163"/>
<circle cx="361.511" cy="409.398" r="32.2994" transform="rotate(60.3565 361.511 409.398)" stroke="white" stroke-width="0.195163"/>
<path d="M89 479L157.5 359L207.5 408L257.5 301L290.5 368.5L340.5 227.5L389 313L440 165" stroke="white" stroke-width="0.5"/>
</g>
</g>
<defs>
<clipPath id="clip0_820_146">
<rect width="533" height="472" fill="white"/>
</clipPath>
<clipPath id="clip1_820_146">
<rect width="350" height="772.718" fill="white" transform="translate(92)"/>
</clipPath>
</defs>
</svg>
