<svg width="533" height="472" viewBox="0 0 533 472" fill="none" xmlns="http://www.w3.org/2000/svg">
<rect width="533" height="472" fill="#58BDF6"/>
<g clip-path="url(#clip0_1280_588)">
<path d="M117.341 232.298C117.009 205.264 138.656 183.08 165.69 182.748C192.724 182.416 214.909 204.064 215.24 231.098C215.572 258.132 193.924 280.316 166.89 280.648C139.856 280.979 117.672 259.332 117.341 232.298Z" stroke="white" stroke-opacity="0.4" stroke-width="1.07386"/>
<path d="M121.589 232.246C121.287 207.558 141.055 187.299 165.743 186.996C190.431 186.694 210.69 206.462 210.993 231.15C211.296 255.838 191.527 276.097 166.839 276.4C142.151 276.702 121.892 256.934 121.589 232.246Z" stroke="white" stroke-opacity="0.4" stroke-width="0.980656"/>
<path d="M319.343 240.561C319.012 213.527 340.659 191.342 367.693 191.011C394.727 190.679 416.912 212.327 417.243 239.361C417.575 266.395 395.927 288.579 368.893 288.911C341.859 289.242 319.675 267.595 319.343 240.561Z" stroke="white" stroke-opacity="0.4" stroke-width="1.07386"/>
<path d="M324.49 240.347C324.198 216.496 343.295 196.924 367.146 196.631C390.997 196.339 410.569 215.437 410.862 239.288C411.154 263.138 392.055 282.71 368.205 283.002C344.354 283.295 324.783 264.197 324.49 240.347Z" stroke="white" stroke-opacity="0.4" stroke-width="0.9474"/>
<path d="M216.015 244.032C214.012 208.844 225.881 173.348 247.992 145.871C259.833 131.211 274.759 118.985 291.231 109.913C341.408 81.7718 403.758 80.9115 452.537 112.69C478.026 129.075 498.37 153.488 509.748 181.533C517.376 200.178 521.126 220.342 520.594 240.293L520.138 240.299C519.605 230.367 518.228 220.515 515.945 210.901C515.756 209.972 515.287 208.265 515.024 207.314C514.193 203.949 512.92 199.973 511.852 196.684C493.796 142.812 445.704 101.868 389.464 93.2902C372.13 90.6117 354.2 90.5986 336.97 94.1347C321.216 97.3011 305.938 103.216 292.258 111.659C271.269 124.467 253.635 142.71 240.562 163.45C238.979 165.807 237.318 168.933 235.905 171.394C235.082 172.802 234.09 174.929 233.362 176.303L232.523 177.944L232.104 178.766L231.726 179.607C230.949 181.425 229.448 184.476 228.735 186.348C228.059 188.188 226.695 191.338 226.07 193.227C225.481 195.079 224.233 198.315 223.712 200.225C223.224 202.095 222.127 205.415 221.699 207.338L220.825 210.934L220.386 212.735C218.1 222.988 216.84 233.458 216.476 244.026L216.02 244.032L216.015 244.032Z" fill="white" fill-opacity="0.4"/>
<path d="M222.308 243.955C220.324 210.228 231.707 176.14 252.905 149.802C264.264 135.742 278.594 124.034 294.4 115.35C333.105 93.6429 381.61 88.2071 423.247 104.787C441.336 111.781 457.924 122.562 471.819 136.084C499.461 163.093 515.519 201.804 514.307 240.375L513.85 240.38C512.044 202.628 495.73 165.724 468.418 139.569C428.15 99.7486 363.402 85.6717 311.159 108.837C308.932 109.76 306.128 111.242 303.926 112.269C302.161 113.227 299.457 114.704 297.688 115.689C296.319 116.537 293.794 118.107 292.403 118.969C290.68 120.045 288.245 121.833 286.547 122.987C269.412 135.437 254.946 151.631 244.056 169.755C243.373 171.005 241.718 173.853 241.012 175.131C240.143 176.886 238.683 179.672 237.801 181.423C236.873 183.581 235.424 186.494 234.569 188.688C233.92 190.454 232.614 193.466 232.01 195.278C230.916 198.369 229.611 202.208 228.754 205.384C227.919 208.043 227.228 211.266 226.544 213.965C224.344 223.788 223.125 233.824 222.756 243.949L222.299 243.955L222.308 243.955Z" fill="white" fill-opacity="0.4"/>
<path d="M228.601 243.877C226.634 211.621 237.532 178.923 257.817 153.733C267.962 141.168 280.638 130.577 294.56 122.477C324.294 105.127 360.026 97.5235 394.176 103.225C419.333 107.452 443.197 118.97 462.321 135.844C491.851 161.816 509.332 201.199 508.01 240.456L507.553 240.462C504.437 175.509 457.495 119.585 393.503 106.832C365.816 101.147 336.148 103.754 310.54 116.056C309.954 116.338 307.23 117.663 306.712 117.912C305.024 118.828 302.439 120.243 300.751 121.186C299.441 121.997 297.03 123.507 295.702 124.331C294.057 125.361 291.73 127.075 290.104 128.181C273.731 140.111 259.913 155.603 249.493 172.926C248.837 174.121 247.253 176.845 246.579 178.063C245.745 179.74 244.348 182.402 243.506 184.079C242.617 186.145 241.231 188.93 240.412 191.023C239.789 192.711 238.541 195.595 237.959 197.324C236.908 200.278 235.656 203.951 234.839 206.985C234.035 209.529 233.374 212.611 232.716 215.191C230.602 224.584 229.423 234.18 229.048 243.872L228.592 243.877L228.601 243.877Z" fill="white" fill-opacity="0.4"/>
<path d="M234.889 243.8C232.063 199.561 254.686 154.991 292.239 131.288C294.845 129.676 298.026 127.655 300.735 126.22C301.253 125.948 302.395 125.277 302.89 125.01C303.18 124.861 306.163 123.367 306.567 123.157C349.498 101.553 401.513 101.929 442.245 128.513C458.068 138.737 471.781 152.361 481.76 168.357C482.918 170.037 484.165 172.305 485.173 174.051L485.999 175.493L486.41 176.215L486.789 176.954C487.327 178.058 488.843 180.98 489.405 182.138C490.261 184.146 491.61 186.929 492.394 188.975C499.048 205.349 502.279 223.053 501.717 240.533L501.26 240.539C500.548 228.6 498.49 216.819 494.848 205.473C493.593 201.465 492.038 197.2 490.365 193.361C489.121 190.28 487.403 186.839 485.937 183.866C485.096 182.3 483.686 179.81 482.831 178.222C481.698 176.391 480.22 173.856 479.019 172.067C458.551 140.562 424.776 118.09 387.59 112.138C356.715 106.886 325.334 112.459 298.992 129.694C279.429 142.566 263.358 160.511 252.136 181.005C251.347 182.586 250.004 185.16 249.202 186.745C248.358 188.692 247.025 191.385 246.246 193.372C245.147 196.153 243.76 199.582 242.84 202.434C241.45 206.388 240.252 210.782 239.27 214.859C236.952 224.319 235.751 234.016 235.332 243.808L234.875 243.814L234.889 243.8Z" fill="white" fill-opacity="0.4"/>
<path d="M241.181 243.723C238.394 201.561 259.964 159.014 295.8 136.474C298.289 134.941 301.321 133.018 303.903 131.653C304.397 131.395 305.486 130.756 305.958 130.504C306.234 130.359 309.081 128.94 309.462 128.739C351.486 107.662 402.238 108.506 441.454 135.547C455.445 145.04 467.54 157.433 476.49 171.783C477.862 173.817 479.301 176.471 480.528 178.589C481.405 180.085 481.974 181.407 482.708 182.805C491.641 200.626 496.122 220.826 495.433 240.597L494.977 240.603C494.271 229.23 492.297 218.014 488.812 207.21C487.624 203.393 486.122 199.337 484.529 195.68C483.342 192.749 481.703 189.472 480.308 186.643C479.504 185.151 478.159 182.783 477.346 181.272C476.27 179.531 474.861 177.119 473.716 175.411C454.208 145.434 422.076 124.038 386.679 118.343C357.283 113.305 327.373 118.577 302.309 135.029C283.924 147.175 268.753 164.012 258.101 183.247C257.104 185.041 255.875 187.559 254.924 189.374C254.116 191.229 252.85 193.793 252.106 195.68C251.558 197.189 250.385 199.843 249.87 201.402C248.916 204.086 247.765 207.42 247.018 210.179C246.274 212.49 245.678 215.288 245.072 217.633C243.126 226.171 242.027 234.889 241.642 243.704L241.186 243.709L241.181 243.723Z" fill="white" fill-opacity="0.4"/>
<path d="M247.473 243.646C244.721 203.562 265.242 163.037 299.362 141.664C301.728 140.21 304.615 138.385 307.075 137.089C307.524 136.819 308.599 136.258 309.03 136.001C309.321 135.874 311.976 134.513 312.362 134.33C336.362 122.412 364.12 117.432 390.722 121.782C428.391 128.043 461.333 152.531 477.796 187.057C485.8 203.698 489.834 222.383 489.14 240.688L488.684 240.693C488.181 232.816 487.026 225.025 485.169 217.425C485.019 216.678 484.633 215.349 484.422 214.589C483.741 211.93 482.725 208.792 481.862 206.194C480.645 202.633 479.054 198.802 477.527 195.35C476.934 193.869 475.677 191.596 474.988 190.102C474.828 189.766 474.501 189.13 474.314 188.808C473.702 187.674 472.465 185.497 471.848 184.349C470.516 182.219 469.036 179.629 467.577 177.587C449.269 150.18 419.738 130.47 387.188 124.845C358.884 119.56 329.783 124.471 305.603 140.396C288.162 151.964 273.775 167.965 263.645 186.221C262.698 187.922 261.53 190.316 260.624 192.04C259.856 193.803 258.652 196.229 257.944 198.028C257.418 199.474 256.311 201.976 255.814 203.462C254.904 206.008 253.806 209.177 253.093 211.794C252.389 213.99 251.815 216.646 251.234 218.873C249.374 226.98 248.311 235.259 247.925 243.64L247.469 243.646L247.473 243.646Z" fill="white" fill-opacity="0.4"/>
<path d="M253.761 243.569C250.968 204.567 271.526 165.189 305.335 145.368C306.691 144.511 308.79 143.298 310.238 142.527C310.973 142.139 311.984 141.523 312.729 141.181C314.254 140.418 316.278 139.361 317.795 138.671C319.348 137.98 321.424 137.023 322.969 136.397C375.523 113.995 436.394 130.435 466.705 179.854C467.734 181.477 468.959 183.759 469.929 185.418C471.258 188.019 472.807 191.083 473.932 193.787C480.388 208.555 483.465 224.827 482.848 240.76L482.391 240.766C481.253 223.183 476.51 205.867 468.022 190.434C455.345 167.068 434.525 148.196 409.961 138.007C378.895 125.289 342.941 125.62 313.635 142.823C296.531 152.907 282.38 167.613 271.958 184.42C271.084 185.76 270.008 187.824 269.198 189.195C268.51 190.386 267.887 191.736 267.284 192.863C265.191 196.88 263.354 201.273 261.767 205.513C260.915 207.93 259.851 210.917 259.183 213.4C258.509 215.477 257.965 217.996 257.41 220.104C255.637 227.784 254.614 235.625 254.223 243.568L253.766 243.573L253.761 243.569Z" fill="white" fill-opacity="0.4"/>
<path d="M260.054 243.492C257.5 209.53 273.997 174.553 302.024 155.041C309.319 149.914 317.222 145.593 325.452 142.18C375.679 120.784 433.713 136.743 462.098 184.377C462.574 185.248 463.932 187.57 464.441 188.486C466.144 191.795 467.896 195.432 469.272 198.891C474.624 212.239 477.171 226.653 476.564 240.837L476.108 240.843C474.941 223.132 469.809 205.799 460.866 190.485C448.701 169.785 429.83 153.063 407.631 143.845C394.814 138.53 380.877 135.719 367.002 135.387C348.62 135.032 330.022 139.873 314.432 149.705C306.34 154.673 298.875 161.149 292.351 168.044C282.28 178.813 274.021 191.369 268.663 205.122C266.726 209.905 265.131 215.04 263.905 220.056C261.98 227.707 260.948 235.543 260.515 243.486L260.059 243.492L260.054 243.492Z" fill="white" fill-opacity="0.4"/>
<path d="M266.347 243.414C264.254 216.549 274.883 188.709 294.126 169.78C313.518 151.16 340.255 140.455 367.044 139.181C423.761 136.344 472.8 183.794 470.267 240.914L469.81 240.92C469.322 234.281 468.306 227.721 466.702 221.333C464.096 211.039 459.968 201.042 454.404 191.994C442.975 173.239 425.567 158.153 405.286 149.692C376.978 138.05 343.844 138.493 317.595 155.147C309.989 159.835 302.98 165.949 296.853 172.441C286.813 183.178 278.747 195.801 273.669 209.605C271.985 214.161 270.546 219.025 269.476 223.76C268.039 230.186 267.178 236.759 266.803 243.409L266.347 243.414Z" fill="white" fill-opacity="0.4"/>
<path d="M272.635 243.338C270.443 216.537 281.816 188.652 302.142 170.938C324.905 151.582 356.433 141.984 386.115 146.52C415.388 151.144 441.932 170.503 454.789 197.296C461.453 210.784 464.728 226.107 463.979 240.992L463.522 240.998C462.489 227.094 458.796 213.493 452.37 201.14C441.804 180.854 424.082 164.355 402.951 155.53C377.254 144.912 346.973 144.895 322.734 159.355C303.335 171.033 287.492 190.46 279.618 211.647C278.03 215.914 276.675 220.471 275.661 224.909C274.3 230.931 273.472 237.093 273.091 243.328L272.635 243.333L272.635 243.338Z" fill="white" fill-opacity="0.4"/>
<path d="M278.927 243.26C276.617 216.899 288.612 189.089 309.863 172.707C326.316 160.155 346.509 152.829 367.198 151.762C398.644 149.961 430.283 166.946 446.024 194.275C454.307 208.277 458.585 224.926 457.686 241.069L457.23 241.074C456.752 235.257 455.828 229.523 454.393 223.937C452.61 217.021 450.015 210.234 446.717 203.899C436.826 185.002 420.31 169.631 400.615 161.373C373.756 150.225 342.128 151.635 318.581 169.681C303.283 181.392 291.177 197.489 284.837 215.721C283.632 219.074 282.675 222.598 281.845 226.066C280.557 231.681 279.769 237.431 279.384 243.259L278.927 243.265L278.927 243.26Z" fill="white" fill-opacity="0.4"/>
<path d="M285.22 243.183C282.942 218.681 294.092 192.717 313.919 177.521C329.268 165.901 348.034 159.108 367.28 158.054C396.553 156.298 426.058 172.104 440.675 197.579C442.76 201.143 444.629 204.961 446.138 208.806C450.188 219.124 452.046 230.254 451.403 241.15L450.947 241.156C449.828 227.788 445.923 214.751 439.136 203.192C429.802 187.271 415.313 174.391 398.29 167.22C373.358 156.847 343.987 158.016 322.153 174.871C308.001 185.791 296.77 200.717 290.849 217.625C287.926 225.863 286.309 234.419 285.686 243.182L285.229 243.187L285.22 243.183Z" fill="white" fill-opacity="0.4"/>
<path d="M291.508 243.106C289.273 220.275 299.643 196.284 317.965 182.335C340.246 165.753 371.121 158.816 397.544 169.051C416.938 176.24 432.928 191.956 440.35 211.284C444.075 220.848 445.759 231.154 445.106 241.223L444.649 241.229C443.649 230.102 440.612 219.283 435.408 209.417C426.871 193.304 412.757 180.173 395.945 173.058C377.849 165.548 356.527 164.238 338.428 172.448C320.1 180.706 304.524 199.161 297.468 217.79C296.167 221.227 295.078 224.794 294.218 228.367C293.08 233.171 292.36 238.099 291.964 243.1L291.508 243.106Z" fill="white" fill-opacity="0.4"/>
<path d="M297.801 243.029C295.727 223.251 304.084 202.331 319.271 189.375C336.081 175.472 359.791 168.157 381.51 171.262C415.341 176.318 441.174 206.944 438.814 241.3L438.357 241.306C437.894 236.726 437.104 232.223 435.927 227.849C434.157 221.339 431.541 215.059 428.104 209.26C420.162 195.871 407.948 185.009 393.606 178.905C377.038 172.011 357.493 170.684 340.902 178.236C325.145 185.348 311.54 201.034 304.69 216.724C302.9 220.857 301.468 225.14 300.403 229.519C299.343 233.921 298.654 238.433 298.258 243.023L297.801 243.029Z" fill="white" fill-opacity="0.4"/>
<path d="M304.089 242.952C301.601 221.836 312.705 199.188 331.389 188.354C349.547 177.522 372.692 172.918 392.87 180.736C417.499 189.573 434.689 215.199 432.521 241.377L432.064 241.383C431.611 237.214 430.862 233.122 429.772 229.152C428.401 224.223 426.502 219.451 424.094 214.941C416.907 201.61 405.205 190.72 391.266 184.748C376.213 178.474 358.485 177.111 343.379 184.019C329.19 190.432 316.731 204.958 310.528 219.064C307.204 226.613 305.307 234.688 304.541 242.951L304.084 242.956L304.089 242.952Z" fill="white" fill-opacity="0.4"/>
<path d="M310.381 242.875C307.937 223.827 317.974 203.216 334.951 193.545C351.411 183.894 372.271 179.537 390.539 186.579C412.842 194.504 428.418 217.788 426.233 241.454L425.776 241.46C425.328 237.702 424.625 234.025 423.618 230.452C422.105 225.15 419.923 220.043 417.079 215.324C410.525 204.466 400.593 195.627 388.935 190.586C375.41 184.924 359.459 183.544 345.866 189.798C333.244 195.511 321.935 208.872 316.379 221.395C313.362 228.182 311.614 235.429 310.842 242.864L310.386 242.87L310.381 242.875Z" fill="white" fill-opacity="0.4"/>
<path d="M316.674 242.797C314.269 225.819 323.248 207.244 338.513 198.731C353.279 190.265 371.849 186.155 388.204 192.417C408.175 199.434 422.142 220.367 419.944 241.527L419.488 241.532C419.045 238.185 418.388 234.919 417.463 231.751C416.077 227.055 414.117 222.53 411.567 218.355C404.031 205.988 391.589 196.591 377.387 193.417C367.804 191.105 357.412 191.36 348.344 195.577C337.293 200.591 327.13 212.782 322.222 223.725C319.51 229.751 317.917 236.173 317.135 242.783L316.678 242.788L316.674 242.797Z" fill="white" fill-opacity="0.4"/>
<path d="M318.386 228.29C320.388 263.478 308.52 298.973 286.409 326.451C274.568 341.11 259.642 353.342 243.169 362.408C192.992 390.55 130.643 391.41 81.8644 359.631C56.3751 343.246 36.0306 318.833 24.6525 290.789C17.0251 272.139 13.2748 251.975 13.8067 232.024L14.2633 232.018C14.7961 241.95 16.1729 251.802 18.4556 261.416C18.6451 262.345 19.1136 264.052 19.3764 265.003C20.2078 268.368 21.4806 272.344 22.5485 275.633C40.6098 329.505 88.7015 370.445 144.942 379.027C162.275 381.705 180.206 381.718 197.435 378.182C213.19 375.016 228.468 369.101 242.148 360.658C263.137 347.85 280.771 329.607 293.843 308.867C295.427 306.51 297.087 303.384 298.5 300.923C299.323 299.515 300.316 297.388 301.043 296.014L301.882 294.373L302.301 293.55L302.679 292.71C303.456 290.892 304.958 287.841 305.67 285.969C306.346 284.129 307.71 280.979 308.335 279.09C308.925 277.238 310.173 274.002 310.693 272.092C311.181 270.222 312.278 266.902 312.707 264.979L313.58 261.383L314.02 259.582C316.305 249.329 317.565 238.859 317.929 228.291L318.386 228.285L318.386 228.29Z" fill="white" fill-opacity="0.4"/>
<path d="M312.098 228.367C314.083 262.094 302.699 296.181 281.501 322.519C270.142 336.579 255.812 348.287 240.006 356.971C201.296 378.678 152.791 384.114 111.155 367.534C93.0653 360.54 76.4777 349.759 62.583 336.237C34.9402 309.228 18.8825 270.517 20.0995 231.946L20.5561 231.941C22.3617 269.694 38.6759 306.597 65.9885 332.752C106.252 372.573 171.004 386.649 223.247 363.484C225.474 362.561 228.278 361.079 230.481 360.052C232.245 359.094 234.949 357.613 236.719 356.632C238.087 355.784 240.612 354.214 242.004 353.352C243.726 352.276 246.161 350.488 247.86 349.334C264.994 336.884 279.46 320.69 290.35 302.566C291.034 301.316 292.688 298.468 293.394 297.19C294.264 295.435 295.723 292.649 296.606 290.898C297.534 288.74 298.982 285.827 299.837 283.633C300.487 281.867 301.792 278.855 302.396 277.044C303.491 273.952 304.796 270.113 305.652 266.938C306.487 264.278 307.178 261.055 307.862 258.356C310.062 248.533 311.281 238.497 311.651 228.372L312.107 228.366L312.098 228.367Z" fill="white" fill-opacity="0.4"/>
<path d="M305.806 228.443C307.772 260.7 296.874 293.397 276.589 318.587C266.444 331.153 253.768 341.744 239.846 349.843C210.112 367.193 174.38 374.797 140.23 369.096C115.073 364.869 91.2098 353.351 72.0857 336.477C42.5466 310.505 25.0695 271.126 26.3877 231.869L26.8443 231.863C29.9607 296.816 76.9025 352.741 140.894 365.493C168.581 371.178 198.25 368.572 223.858 356.269C224.443 355.988 227.167 354.662 227.685 354.413C229.373 353.498 231.959 352.082 233.646 351.139C234.956 350.328 237.367 348.819 238.695 347.994C240.341 346.965 242.667 345.251 244.293 344.144C260.666 332.215 274.484 316.722 284.904 299.399C285.561 298.204 287.144 295.481 287.819 294.262C288.652 292.585 290.049 289.923 290.892 288.246C291.78 286.18 293.166 283.395 293.985 281.303C294.609 279.614 295.857 276.731 296.438 275.002C297.489 272.048 298.741 268.374 299.558 265.34C300.363 262.796 301.024 259.714 301.682 257.135C303.795 247.742 304.979 238.145 305.349 228.454L305.806 228.448L305.806 228.443Z" fill="white" fill-opacity="0.4"/>
<path d="M299.513 228.521C302.339 272.76 279.716 317.33 242.163 341.032C239.557 342.645 236.375 344.666 233.666 346.101C233.149 346.372 232.006 347.044 231.512 347.31C231.221 347.46 228.239 348.954 227.835 349.164C184.904 370.768 132.888 370.392 92.1567 343.808C76.334 333.584 62.6208 319.959 52.6418 303.964C51.484 302.284 50.2368 300.016 49.2288 298.265L48.4028 296.827L47.992 296.106L47.613 295.366C47.0743 294.263 45.5587 291.341 44.9964 290.183C44.1406 288.175 42.7911 285.391 42.0079 283.346C35.3538 266.972 32.1225 249.273 32.6846 231.792L33.1412 231.786C33.8539 243.725 35.912 255.506 39.5541 266.852C40.809 270.86 42.3638 275.125 44.0368 278.964C45.2803 282.045 46.9987 285.486 48.4646 288.46C49.3059 290.025 50.7157 292.515 51.571 294.103C52.7032 295.934 54.1821 298.469 55.3824 300.259C75.8504 331.763 109.626 354.235 146.812 360.187C177.673 365.44 209.081 359.862 235.41 342.631C254.973 329.759 271.044 311.814 282.265 291.32C283.054 289.74 284.397 287.166 285.2 285.58C286.044 283.633 287.376 280.941 288.156 278.953C289.255 276.172 290.642 272.744 291.562 269.892C292.952 265.938 294.149 261.543 295.131 257.466C297.45 248.007 298.651 238.31 299.07 228.517L299.526 228.511L299.513 228.521Z" fill="white" fill-opacity="0.4"/>
<path d="M293.226 228.598C296.013 270.76 274.443 313.307 238.607 335.842C236.118 337.375 233.086 339.299 230.504 340.664C230.009 340.921 228.921 341.56 228.449 341.813C228.172 341.958 225.326 343.376 224.945 343.577C182.921 364.654 132.169 363.81 92.9529 336.769C78.9661 327.276 66.8664 314.883 57.917 300.533C56.5447 298.5 55.1055 295.846 53.8784 293.728C53.0014 292.231 52.4326 290.909 51.6984 289.512C42.7658 271.69 38.2844 251.49 38.9737 231.719L39.4303 231.714C40.1361 243.086 42.1096 254.302 45.5943 265.106C46.7875 268.924 48.285 272.979 49.8781 276.636C51.065 279.567 52.7037 282.845 54.0993 285.673C54.9032 287.166 56.2476 289.533 57.0608 291.044C58.1371 292.785 59.546 295.197 60.6904 296.905C79.9237 326.415 111.397 347.723 146.217 353.695C176.031 359.217 206.622 354.014 232.098 337.287C250.482 325.142 265.654 308.304 276.306 289.069C277.302 287.275 278.532 284.758 279.483 282.942C280.291 281.087 281.557 278.523 282.301 276.637C282.849 275.127 284.022 272.473 284.537 270.914C285.491 268.231 286.642 264.896 287.389 262.137C288.133 259.822 288.729 257.029 289.335 254.683C291.281 246.146 292.379 237.427 292.765 228.613L293.221 228.607L293.226 228.598Z" fill="white" fill-opacity="0.4"/>
<path d="M286.932 228.675C289.684 268.759 269.163 309.284 235.043 330.656C232.677 332.11 229.79 333.936 227.331 335.231C226.882 335.502 225.806 336.063 225.376 336.319C225.085 336.446 222.425 337.808 222.044 337.991C198.043 349.908 170.286 354.889 143.684 350.538C106.015 344.277 73.0729 319.79 56.6098 285.263C48.6051 268.623 44.5715 249.938 45.2651 231.633L45.7218 231.627C46.2248 239.5 47.3799 247.295 49.236 254.895C49.3868 255.642 49.773 256.971 49.9833 257.731C50.6644 260.39 51.6802 263.529 52.5433 266.126C53.7607 269.688 55.3514 273.518 56.878 276.97C57.4717 278.452 58.7281 280.725 59.4178 282.219C59.5772 282.555 59.9047 283.19 60.0913 283.512C60.7035 284.647 61.9405 286.824 62.5574 287.972C63.8898 290.102 65.3693 292.692 66.8284 294.734C85.1362 322.14 114.667 341.851 147.218 347.476C175.521 352.76 204.627 347.85 228.802 331.925C246.244 320.357 260.631 304.355 270.76 286.1C271.708 284.398 272.875 282.004 273.781 280.281C274.55 278.517 275.753 276.091 276.462 274.292C276.987 272.847 278.094 270.344 278.592 268.859C279.502 266.313 280.6 263.143 281.312 260.527C282.016 258.33 282.591 255.674 283.171 253.448C285.031 245.341 286.094 237.061 286.48 228.68L286.937 228.675L286.932 228.675Z" fill="white" fill-opacity="0.4"/>
<path d="M280.64 228.752C283.434 267.753 262.876 307.132 229.066 326.953C227.711 327.809 225.611 329.023 224.164 329.794C223.429 330.182 222.418 330.797 221.673 331.14C220.148 331.903 218.124 332.96 216.607 333.65C215.053 334.34 212.978 335.298 211.433 335.924C158.879 358.326 98.0074 341.886 67.6967 292.467C66.6675 290.844 65.4429 288.562 64.4772 286.902C63.1436 284.302 61.5989 281.238 60.4742 278.534C54.0179 263.765 50.9411 247.494 51.5587 231.56L52.0154 231.555C53.1535 249.138 57.8964 266.454 66.3841 281.887C79.0613 305.252 99.8814 324.124 124.445 334.314C155.512 347.027 191.465 346.701 220.771 329.498C237.875 319.414 252.027 304.708 262.448 287.901C263.323 286.561 264.398 284.497 265.208 283.126C265.897 281.935 266.519 280.589 267.122 279.458C269.215 275.441 271.052 271.047 272.639 266.808C273.491 264.39 274.555 261.404 275.224 258.921C275.897 256.843 276.442 254.325 276.996 252.217C278.77 244.536 279.792 236.696 280.184 228.753L280.64 228.747L280.64 228.752Z" fill="white" fill-opacity="0.4"/>
<path d="M274.351 228.829C276.905 262.791 260.408 297.767 232.381 317.279C225.086 322.406 217.183 326.728 208.954 330.14C158.726 351.536 100.692 335.578 72.308 287.943C71.8314 287.072 70.4739 284.75 69.9649 283.834C68.2619 280.53 66.5092 276.889 65.1332 273.43C59.7812 260.082 57.2341 245.667 57.8412 231.483L58.2979 231.477C59.465 249.188 64.5963 266.522 73.5393 281.835C85.7042 302.535 104.575 319.257 126.775 328.476C139.592 333.79 153.529 336.602 167.403 336.934C185.786 337.284 204.383 332.448 219.974 322.615C228.065 317.647 235.531 311.171 242.055 304.277C252.126 293.507 260.385 280.951 265.742 267.198C267.68 262.415 269.274 257.28 270.501 252.264C272.426 244.614 273.458 236.777 273.89 228.834L274.347 228.829L274.351 228.829Z" fill="white" fill-opacity="0.4"/>
<path d="M268.059 228.906C270.156 255.772 259.522 283.611 240.28 302.541C220.888 321.161 194.15 331.866 167.361 333.139C110.645 335.977 61.6054 288.527 64.1387 231.406L64.5953 231.401C65.0832 238.04 66.0999 244.6 67.7036 250.988C70.3098 261.282 74.4378 271.279 80.0019 280.327C91.4305 299.081 108.838 314.168 129.12 322.629C157.428 334.27 190.562 333.828 216.811 317.174C224.417 312.486 231.426 306.371 237.553 299.879C247.592 289.142 255.658 276.52 260.737 262.715C262.421 258.16 263.859 253.296 264.93 248.561C266.367 242.135 267.227 235.562 267.602 228.912L268.059 228.906Z" fill="white" fill-opacity="0.4"/>
<path d="M261.771 228.983C263.963 255.784 252.59 283.669 232.264 301.383C209.501 320.739 177.973 330.338 148.29 325.796C119.018 321.172 92.4734 301.813 79.6218 275.02C72.9574 261.533 69.6821 246.209 70.4314 231.325L70.888 231.319C71.9216 245.222 75.6142 258.824 82.041 271.177C92.6069 291.463 110.329 307.961 131.46 316.786C157.175 327.405 187.419 327.427 211.676 312.962C231.076 301.283 246.919 281.857 254.793 260.665C256.38 256.398 257.736 251.841 258.75 247.403C260.11 241.381 260.939 235.219 261.319 228.984L261.776 228.979L261.771 228.983Z" fill="white" fill-opacity="0.4"/>
<path d="M255.479 229.061C257.789 255.421 245.794 283.227 224.543 299.614C208.09 312.166 187.897 319.492 167.208 320.559C135.762 322.356 104.127 305.375 88.3824 278.046C80.0995 264.044 75.8215 247.394 76.7197 231.252L77.1763 231.247C77.6541 237.064 78.5785 242.798 80.0125 248.384C81.7963 255.3 84.3915 262.087 87.689 268.422C97.5802 287.319 114.096 302.695 133.791 310.948C160.65 322.096 192.283 320.685 215.825 302.64C231.123 290.929 243.229 274.832 249.569 256.6C250.774 253.247 251.731 249.723 252.561 246.255C253.849 240.64 254.637 234.89 255.022 229.062L255.479 229.056L255.479 229.061Z" fill="white" fill-opacity="0.4"/>
<path d="M249.187 229.138C251.464 253.64 240.315 279.604 220.488 294.8C205.138 306.42 186.373 313.213 167.126 314.266C137.854 316.023 108.348 300.217 93.7314 274.742C91.6462 271.178 89.7771 267.36 88.2685 263.515C84.2188 253.197 82.3605 242.067 83.0034 231.175L83.4601 231.169C84.5785 244.538 88.4834 257.575 95.2748 269.128C104.609 285.049 119.099 297.929 136.121 305.101C161.053 315.473 190.424 314.305 212.258 297.449C226.41 286.525 237.641 271.603 243.563 254.696C246.485 246.458 248.102 237.902 248.725 229.139L249.182 229.133L249.187 229.138Z" fill="white" fill-opacity="0.4"/>
<path d="M242.898 229.214C245.133 252.046 234.762 276.036 216.441 289.985C194.16 306.568 163.284 313.505 136.861 303.269C117.468 296.081 101.477 280.365 94.056 261.036C90.3307 251.473 88.647 241.167 89.2999 231.097L89.7566 231.092C90.7562 242.219 93.7935 253.038 98.9977 262.903C107.535 279.016 121.649 292.147 138.461 299.262C156.557 306.773 177.878 308.083 195.978 299.873C214.305 291.614 229.881 273.159 236.938 254.53C238.238 251.093 239.327 247.527 240.188 243.954C241.325 239.149 242.046 234.221 242.441 229.22L242.898 229.214Z" fill="white" fill-opacity="0.4"/>
<path d="M236.605 229.292C238.679 249.07 230.322 269.989 215.135 282.945C198.297 296.858 174.647 304.158 152.896 301.059C119.065 296.002 93.2321 265.381 95.5922 231.021L96.0489 231.015C96.5115 235.595 97.302 240.097 98.4792 244.472C100.249 250.981 102.865 257.261 106.302 263.06C114.249 276.45 126.458 287.307 140.8 293.415C157.368 300.31 176.913 301.637 193.5 294.085C209.256 286.972 222.861 271.286 229.711 255.596C231.501 251.464 232.933 247.181 233.998 242.801C235.059 238.399 235.748 233.888 236.144 229.297L236.6 229.292L236.605 229.292Z" fill="white" fill-opacity="0.4"/>
<path d="M230.312 229.369C232.8 250.484 221.696 273.132 203.012 283.961C184.854 294.793 161.709 299.398 141.531 291.584C116.902 282.747 99.712 257.121 101.88 230.943L102.337 230.938C102.79 235.106 103.539 239.199 104.629 243.168C106 248.097 107.899 252.869 110.306 257.38C117.494 270.71 129.196 281.601 143.135 287.573C158.188 293.846 175.916 295.209 191.022 288.301C205.211 281.888 217.67 267.363 223.873 253.256C227.197 245.707 229.094 237.632 229.86 229.37L230.317 229.364L230.312 229.369Z" fill="white" fill-opacity="0.4"/>
<path d="M224.024 229.446C226.468 248.493 216.431 269.104 199.455 278.776C182.994 288.427 162.135 292.784 143.866 285.742C121.564 277.817 105.987 254.533 108.173 230.866L108.629 230.861C109.077 234.618 109.78 238.296 110.788 241.868C112.3 247.171 114.482 252.277 117.326 256.997C123.881 267.855 133.813 276.694 145.471 281.735C158.995 287.392 174.947 288.777 188.539 282.522C201.162 276.805 212.471 263.449 218.026 250.926C221.044 244.139 222.791 236.892 223.563 229.456L224.02 229.451L224.024 229.446Z" fill="white" fill-opacity="0.4"/>
<path d="M217.732 229.523C220.137 246.502 211.157 265.077 195.893 273.59C181.126 282.056 162.556 286.166 146.202 279.904C126.231 272.887 112.264 251.953 114.461 230.794L114.918 230.788C115.361 234.131 116.018 237.402 116.942 240.569C118.329 245.265 120.289 249.79 122.838 253.965C130.375 266.332 142.817 275.73 157.019 278.899C166.602 281.211 176.993 280.956 186.062 276.739C197.113 271.725 207.276 259.53 212.184 248.591C214.896 242.565 216.489 236.143 217.271 229.533L217.728 229.528L217.732 229.523Z" fill="white" fill-opacity="0.4"/>
</g>
<defs>
<clipPath id="clip0_1280_588">
<rect width="292.126" height="506.862" fill="white" transform="translate(15.5811 385.317) rotate(-90.7024)"/>
</clipPath>
</defs>
</svg>
