<svg width="533" height="472" viewBox="0 0 533 472" fill="none" xmlns="http://www.w3.org/2000/svg">
<g clip-path="url(#clip0_824_28)">
<rect width="533" height="472" fill="#58BDF6"/>
<g clip-path="url(#clip1_824_28)">
<mask id="mask0_824_28" style="mask-type:luminance" maskUnits="userSpaceOnUse" x="-63" y="-91" width="671" height="671">
<g opacity="0.5">
<path d="M607.241 478.863L506.142 -90.1333L-62.855 10.9659L38.2442 579.963L607.241 478.863Z" fill="white"/>
</g>
</mask>
<g mask="url(#mask0_824_28)">
<g opacity="0.5">
<path d="M633.83 531.652C645.817 503.43 636.74 470.215 617.003 447.848C595.928 423.953 565.135 411.437 534.542 405.202C498.215 397.797 460.781 397.581 424.103 392.588C388.202 387.709 352.517 379.915 318.73 366.612C258.246 342.806 202.77 298.989 179.164 236.783C151.472 163.839 168.978 84.4129 174.567 9.28169C179.415 -55.893 174.498 -128.859 128.537 -179.905C123.507 -185.5 118.019 -190.647 112.189 -195.389C110.49 -196.76 108.565 -193.977 110.252 -192.614C163.931 -149.039 175.24 -75.133 172.349 -10.0423C169.044 64.2015 150.344 139.748 168.445 213.49C176.247 245.269 191.465 274.332 213.088 298.863C233.594 322.138 258.838 341.039 286.221 355.468C316.323 371.327 348.985 381.78 382.198 388.822C417.626 396.33 453.489 399.255 489.481 402.513C523.865 405.632 559.287 410.779 589.242 429.165C616.623 445.967 637.552 474.978 635.829 508.255C635.431 515.949 633.694 523.4 630.689 530.491C629.831 532.501 633.019 533.665 633.866 531.658L633.83 531.652Z" fill="white"/>
<path d="M86.113 -177.237C131.66 -134.716 150.845 -71.1287 156.385 -10.723C162.709 58.2905 151.517 129.889 172.389 197.097C192.017 260.273 241.722 310.39 296.393 345.42C324.35 363.335 354.745 377.16 386.261 387.495C417.912 397.875 450.399 404.117 482.977 410.687C516.495 417.445 549.81 426.864 577.79 447.297C602.662 465.462 622.949 493.051 624.909 524.665C625.355 531.888 624.625 539.137 622.508 546.059C621.87 548.144 625.048 549.322 625.684 547.226C634.05 519.854 622.278 489.342 604.853 468.054C584.454 443.121 555 427.043 524.656 417.497C491.847 407.185 457.436 403.142 424.111 394.824C391.531 386.696 359.593 375.736 329.605 360.521C299.477 345.227 271.472 325.682 246.728 302.691C221.449 279.198 198.875 252.027 184.705 220.347C155.394 154.811 164.562 81.6231 161.289 11.9757C158.388 -49.9076 144.328 -114.715 103.771 -163.476C99.0766 -169.119 94.0279 -174.436 88.6689 -179.434C87.0888 -180.907 84.4956 -178.726 86.0888 -177.244L86.113 -177.237Z" fill="white"/>
<path d="M62.3155 -161.559C103.622 -117.287 126.814 -57.7363 139.186 0.733244C146.036 33.0943 149.522 65.9386 154.333 98.6276C159.038 130.659 165.413 162.795 178.939 192.399C192.938 223.055 214.006 248.912 237.307 272.95C260.346 296.737 285.191 318.942 311.77 338.718C337.546 357.904 365.243 374.42 394.399 387.926C422.782 401.076 452.369 410.482 481.85 420.72C513.042 431.549 542.928 445.544 568.037 467.37C590.558 486.95 610.032 513.835 614.363 544.018C615.224 550.022 615.29 556.074 614.304 562.073C613.941 564.224 617.32 564.53 617.674 562.392C622.028 536.122 608.08 508.14 592.397 488.01C573.106 463.248 546.371 444.531 518.075 431.422C488.829 417.864 457.44 409.799 427.423 398.223C396.937 386.466 367.56 371.979 340.082 354.243C311.647 335.897 285.265 314.458 260.668 291.257C235.865 267.864 211.411 242.758 193.795 213.364C158.833 154.988 158.018 86.1419 146.558 20.93C136.102 -38.6252 116.33 -98.6115 79.0738 -147.054C74.6175 -152.842 69.8908 -158.411 64.9068 -163.75C63.422 -165.332 60.8398 -163.154 62.3266 -161.561L62.3155 -161.559Z" fill="white"/>
<path d="M38.5159 -145.883C76.5879 -99.0417 102.474 -42.3888 121.788 14.4347C132.119 44.836 140.216 75.8866 149.863 106.501C159.006 135.509 169.987 163.891 186.763 189.399C204.575 216.476 227.65 238.984 250.746 261.477C273.798 283.921 297.018 306.208 321.151 327.508C345.041 348.599 370.018 368.453 396.691 385.92C421.706 402.305 448.176 415.727 474.671 429.476C503.679 444.533 531.083 462.111 554.67 484.918C576.127 505.673 595.61 531.444 603.597 560.657C605.11 566.201 606.158 571.907 606.173 577.671C606.18 579.836 609.551 580.166 609.543 577.989C609.519 566.048 605.742 554.338 600.985 543.501C595.2 530.302 587.533 517.862 578.714 506.486C559.39 481.545 534.306 460.701 507.583 444.115C480.781 427.474 451.717 414.88 424.443 399.068C397.168 383.244 371.364 365.061 346.972 345.08C321.708 324.382 297.787 302.082 274.204 279.492C250.591 256.862 225.99 234.545 205.37 209.078C185.278 184.263 170.839 156.552 160.1 126.567C149.248 96.2697 141.478 64.9893 131.819 34.308C113.588 -23.6479 89.685 -80.8825 54.3394 -130.639C50.119 -136.584 45.6941 -142.389 41.1 -148.05C39.7217 -149.743 37.1415 -147.553 38.5199 -145.861L38.5159 -145.883Z" fill="white"/>
<path d="M14.7079 -130.214C50.1048 -80.1692 78.2484 -25.2013 104.705 29.9517C130.83 84.3957 154.036 141.834 195.773 186.592C217.71 210.116 242.873 230.178 266.406 252.032C289.884 273.838 312.299 296.761 334.672 319.703C356.357 341.931 378.113 364.112 401.156 384.952C422.697 404.442 445.619 421.956 468.89 439.305C494.595 458.48 519.07 478.997 541.095 502.368C561.945 524.48 581.078 549.512 592.869 577.739C595.027 582.916 596.883 588.203 598.022 593.71C598.47 595.843 601.804 595.251 601.356 593.118C598.94 581.453 593.685 570.395 588.019 559.995C580.872 546.866 572.486 534.381 563.215 522.661C543.539 497.795 520.174 475.533 495.553 455.616C472.218 436.742 447.351 419.895 424.305 400.649C400.128 380.457 377.568 358.465 355.44 336.064C333.256 313.604 311.454 290.778 288.831 268.751C265.416 245.948 240.202 225.207 216.542 202.7C193.917 181.178 174.51 157.64 158.669 130.682C143.323 104.577 130.749 76.97 117.819 49.6213C91.3719 -6.31308 63.8511 -62.0337 29.89 -113.87C25.798 -120.125 21.5937 -126.302 17.277 -132.402C16.0201 -134.185 13.4439 -131.973 14.6968 -130.212L14.7079 -130.214Z" fill="white"/>
<path d="M-9.33296 -114.905C23.6103 -61.2488 54.5315 -6.32724 88.4444 46.7214C104.858 72.3849 121.874 97.8267 141.32 121.324C160.199 144.153 181.326 164.279 204.772 182.353C230.008 201.795 256.532 219.643 280.361 240.848C303.852 261.758 325.245 284.989 345.527 309.002C365.809 333.015 384.887 357.999 404.426 382.603C422.456 405.297 441.315 427.109 461.319 448.077C505.052 493.935 550.816 540.063 582.538 595.427C585.213 600.099 587.764 604.839 590.03 609.721C590.942 611.692 594.008 610.241 593.084 608.262C581.299 582.842 564.115 559.23 546.651 537.467C526.409 512.255 504.411 488.328 482.117 464.925C461.584 443.375 440.958 422.003 422.013 399.001C402.31 375.08 383.678 350.292 364.155 326.224C344.808 302.377 324.712 279.088 302.891 257.446C280.515 235.261 255.918 216.256 230.651 197.542C206.096 179.355 181.97 161 161.029 138.629C140.382 116.561 122.517 92.1525 105.757 67.055C70.215 13.8716 38.7828 -41.9909 5.70744 -96.7131C1.74392 -103.277 -2.25293 -109.835 -6.26807 -116.367C-7.39747 -118.207 -10.4663 -116.768 -9.32184 -114.907L-9.33296 -114.905Z" fill="white"/>
<path d="M-33.135 -99.2342C-17.8475 -70.4244 -1.29023 -42.2757 16.3653 -14.8495C33.3887 11.5998 51.3629 37.5937 71.3033 61.9428C90.5706 85.4714 111.655 107.68 135.278 126.881C159.29 146.402 185.554 161.82 212.624 176.614C241.256 192.265 269.84 208.544 294.653 229.929C318.284 250.275 338.937 274.051 357.402 299.132C393.742 348.482 418.814 404.615 452.871 455.379C471.286 482.82 491.35 509.222 511.963 535.033C532.403 560.646 552.318 586.593 572.112 612.7C575.419 617.053 578.735 621.393 582.123 625.687C583.481 627.394 586.062 625.205 584.704 623.497C566.408 600.403 549.26 576.418 530.924 553.354C509.928 526.934 488.91 500.587 469.276 473.123C451.643 448.467 435.888 422.767 421.121 396.306C405.917 369.064 390.81 341.723 373.316 315.851C356.246 290.625 337.287 266.571 315.752 244.993C293.091 222.297 267.439 204.064 239.772 187.978C212.922 172.354 184.978 158.77 159.473 140.913C134.467 123.413 111.938 102.883 91.5001 80.2505C47.9819 32.0497 12.4963 -23.8492 -19.0603 -80.4119C-22.8102 -87.1285 -26.4751 -93.8831 -30.0773 -100.672C-31.0943 -102.589 -34.1632 -101.149 -33.1311 -99.212L-33.135 -99.2342Z" fill="white"/>
<path d="M-56.9344 -83.5538C-43.3339 -53.722 -26.7325 -25.2602 -8.17581 1.75365C10.2283 28.5538 30.6567 54.295 53.9351 77.0422C76.5288 99.097 101.805 118.44 129.597 133.495C157.644 148.688 187.487 158.702 217.343 169.561C249.148 181.129 280.299 195.473 306.657 217.031C330.949 236.904 351.385 261.463 368.484 287.693C386.702 315.638 400.583 346.016 412.333 377.174C423.192 405.968 432.579 435.311 445.412 463.341C459.405 493.895 476.799 522.949 496.582 550.089C507.165 564.614 518.287 578.756 529.565 592.745C539.755 605.379 550.129 617.957 561.46 629.598C565.541 633.791 569.773 637.865 574.317 641.563C576.005 642.937 577.941 640.151 576.254 638.789C565.305 629.878 555.917 618.981 546.791 608.267C535.261 594.736 524.208 580.788 513.341 566.726C492.113 539.259 472.824 510.449 456.998 479.511C442.853 451.839 432.425 422.705 421.92 393.515C410.725 362.384 398.373 331.643 381.786 302.938C366.757 276.937 348.681 252.44 327.351 231.238C304.324 208.354 277.425 191.169 247.799 178.056C218.358 165.013 187.164 156.558 157.711 143.518C128.82 130.733 101.934 114.267 77.6952 93.9831C52.0814 72.5452 29.7622 47.5182 9.70989 20.8619C-10.2219 -5.63251 -28.0966 -33.7763 -43.3058 -63.2421C-47.0105 -70.4138 -50.5361 -77.6747 -53.8806 -85.0135C-54.7833 -86.9969 -57.8391 -85.5483 -56.9344 -83.5538Z" fill="white"/>
<path d="M-80.7344 -67.8812C-68.5785 -36.566 -51.5758 -7.20103 -31.7402 19.8492C-12.1887 46.5258 10.3938 71.3569 36.2558 92.0629C61.8481 112.542 90.9297 128.721 121.799 139.733C153.865 151.162 187.165 156.114 220.361 162.929C255.329 170.106 289.704 182.008 318.274 203.953C343.67 223.458 364.215 249.144 380.193 276.742C397.547 306.732 408.852 339.517 416.655 373.176C424.204 405.723 428.818 438.917 438.149 471.043C447.952 504.794 462.751 537.05 482.226 566.331C492.522 581.824 503.88 596.646 515.873 610.852C526.427 623.341 537.58 635.529 550.172 646.005C555.177 650.171 560.45 654.038 566.184 657.146C568.075 658.175 570.036 655.407 568.121 654.372C555.167 647.342 544.233 636.777 534.133 626.19C521.624 613.085 510.124 599.01 499.261 584.524C477.282 555.218 459.448 523.238 447.304 488.63C436.041 456.537 430.606 423.042 423.756 389.844C416.831 356.293 407.61 323.103 392.365 292.279C378.751 264.754 360.917 238.908 338.896 217.427C315.016 194.134 286.229 178.063 254.48 168.101C221.421 157.731 186.731 154.506 153.257 145.802C121.236 137.471 90.6512 124.895 62.7995 106.927C34.0807 88.4026 9.10532 64.8794 -12.7236 38.6762C-34.5827 12.4326 -53.562 -16.4435 -68.1981 -47.3295C-71.6249 -54.5506 -74.7746 -61.8897 -77.6675 -69.3317C-78.4519 -71.3591 -81.5057 -69.8994 -80.7213 -67.872L-80.7344 -67.8812Z" fill="white"/>
<path d="M-104.541 -52.2078C-93.7853 -19.291 -76.2118 11.2221 -54.9048 38.4236C-33.7032 65.4834 -8.37297 89.9065 20.5683 108.587C49.872 127.5 82.7589 140.32 116.859 147.388C135.104 151.162 153.657 153.38 172.243 154.686C190.193 155.956 208.206 156.172 226.144 157.57C263.75 160.495 301.161 169.68 331.898 192.466C358.383 212.098 378.88 239.318 393.59 268.62C409.97 301.26 418.172 336.9 422.004 373.053C425.757 408.43 425.697 444.162 431.218 479.362C437.056 516.546 449.381 552.749 469.282 584.809C479.176 600.751 490.515 615.852 502.991 629.869C514.219 642.479 526.574 654.591 540.743 663.881C546.298 667.526 552.177 670.677 558.427 672.949C560.475 673.697 561.652 670.518 559.594 669.772C544.472 664.285 531.458 653.689 519.965 642.685C506.565 629.853 494.599 615.482 483.773 600.427C461.249 569.086 445.687 533.699 437.693 495.935C430.248 460.744 429.682 424.779 426.854 389.055C423.99 352.936 418.065 316.88 404.035 283.273C391.979 254.393 374.624 227.177 352.133 205.31C327.566 181.439 297.177 166.421 263.773 159.333C227.082 151.557 189.273 153.62 152.15 149.475C117.003 145.551 82.5681 137.053 50.6549 121.583C18.1261 105.811 -10.492 83.3358 -34.908 56.7669C-58.5148 31.0746 -78.5572 1.69948 -92.5892 -30.3027C-95.9406 -37.9384 -98.9058 -45.723 -101.496 -53.6545C-102.171 -55.7127 -105.223 -54.2418 -104.55 -52.1947L-104.541 -52.2078Z" fill="white"/>
<path d="M-128.483 -36.96C-119.159 -2.55067 -101.227 29.0795 -78.5007 56.3957C-55.3968 84.1607 -27.03 108.125 5.05989 124.847C38.3778 142.222 75.2788 151.761 112.61 155.01C132.254 156.724 152.011 156.813 171.693 155.964C191.774 155.102 211.786 153.013 231.879 152.413C271.095 151.234 311.085 156.934 343.943 179.848C371.801 199.27 392.445 227.966 406.082 258.777C422.039 294.839 427.089 334.1 427.006 373.253C426.939 411.395 422.548 449.456 424.331 487.624C426.201 527.634 435.54 567.486 455.656 602.374C465.286 619.085 476.889 634.77 490.115 648.814C501.871 661.296 515.146 672.843 530.367 680.892C536.681 684.23 543.299 686.894 550.269 688.51C552.373 688.996 553.564 685.827 551.436 685.334C535.387 681.593 521.168 672.415 508.717 661.891C494.176 649.605 481.551 635.008 470.594 619.472C446.782 585.723 433.318 546.592 429.042 505.623C425.016 467.028 429.021 428.336 430.113 389.703C431.187 351.554 428.937 312.953 416.623 276.553C406.139 245.549 389.008 216.046 365.38 193.2C339.828 168.496 307.313 154.543 272.168 150.436C232.549 145.794 192.764 152.736 153.092 153.09C114.953 153.424 76.7077 149.157 40.5693 136.49C-28.8744 112.132 -88.3186 56.111 -116.475 -12.0269C-119.914 -20.3464 -122.814 -28.8647 -125.173 -37.5595C-125.739 -39.6486 -129.077 -39.0784 -128.507 -36.9671L-128.483 -36.96Z" fill="white"/>
<path d="M-152.285 -21.2889C-136.324 51.3774 -77.632 112.909 -9.9087 141.069C27.7109 156.717 68.6003 162.83 109.173 162.385C130.832 162.148 152.449 160.187 173.88 157.181C195.067 154.219 216.069 150.029 237.304 147.403C278.89 142.272 322.546 144.409 358.216 168.76C387.701 188.891 408.295 220.209 420.362 253.409C434.56 292.477 435.501 334.418 431.511 375.388C427.506 416.591 418.887 457.318 417.403 498.772C415.894 540.93 422.255 583.959 442.732 621.328C460.084 652.981 486.735 683.933 520.689 698.18C527.7 701.119 535.033 703.163 542.566 704.198C544.727 704.491 545.034 701.123 542.884 700.828C506.606 695.891 476.912 666.717 456.95 637.924C431.765 601.609 421.025 558.453 420.573 514.614C419.726 432.877 450.883 351.632 429.189 270.309C420.468 237.615 404.116 206.106 379.829 182.265C352.65 155.568 316.95 142.72 279.188 141.692C236.633 140.529 194.974 151.955 152.885 156.383C111.484 160.747 69.1917 160.352 28.6153 150.193C-45.9152 131.531 -113.32 77.2915 -141.07 4.59905C-144.356 -4.02275 -146.982 -12.865 -148.962 -21.8794C-149.43 -23.9973 -152.766 -23.416 -152.296 -21.287L-152.285 -21.2889Z" fill="white"/>
<path d="M-176.081 -5.61351C-162.798 71.4035 -97.4939 133.113 -25.1242 156.905C16.4306 170.569 60.6737 173.427 104.061 169.662C127.612 167.621 150.969 163.712 174.045 158.672C196.614 153.744 218.866 147.486 241.495 142.835C284.031 134.085 330.312 131.445 368.715 155.242C400.562 174.988 421.79 208.52 432.841 243.746C460.286 331.235 420.711 419.043 410.555 505.762C405.357 550.191 407.812 597.044 428.286 637.623C445.08 670.912 473.256 702.189 509.232 714.713C517.369 717.543 525.826 719.262 534.425 719.786C536.603 719.915 536.922 716.545 534.744 716.416C496.084 714.08 463.747 686.545 442.828 655.721C416.347 616.691 409.076 569.444 412.321 523.125C418.459 435.722 459.955 349.763 440.94 261.257C433.565 226.914 417.456 193.286 391.775 168.891C378.672 156.442 363.229 146.759 346.143 140.795C326.784 134.044 306.179 132.213 285.802 133.278C239.858 135.686 195.814 151.697 150.804 159.878C106.759 167.876 61.4143 171.014 17.0456 163.708C-25.0773 156.782 -64.7297 140.016 -98.107 113.274C-128.143 89.2059 -152.888 57.5596 -165.716 21.0444C-168.828 12.1739 -171.147 3.05932 -172.745 -6.19478C-173.126 -8.33963 -176.449 -7.74922 -176.079 -5.6024L-176.081 -5.61351Z" fill="white"/>
<path d="M-199.885 10.0583C-189.21 92.9154 -115.179 154.255 -37.4008 173.257C9.94924 184.826 59.3989 183.629 107.213 175.615C131.27 171.581 155.014 165.849 178.42 159.053C201.042 152.489 223.319 144.759 246.025 138.478C289.223 126.549 337.777 119.022 378.904 141.762C414.144 161.249 436.198 198.2 445.994 236.366C457.774 282.273 451.121 330.194 439.988 375.541C427.884 424.785 410.35 472.691 402.222 522.892C394.901 568.077 395.17 616.694 416.104 658.441C433.006 692.146 462.512 721.938 499.694 731.897C508.396 734.225 517.316 735.392 526.314 735.386C528.48 735.38 528.809 732.008 526.633 732.017C486.523 732.036 451.758 707.352 429.799 675.13C403.671 636.794 398.163 589.795 402.773 544.507C407.949 493.57 424.881 445.049 438.207 395.908C450.366 351.044 460.276 303.713 453.591 257.119C448.169 219.311 432.039 181.376 403.45 155.319C388.84 142.003 371.215 132.49 352.02 127.692C331.327 122.53 309.779 122.748 288.771 125.747C242.37 132.363 198.624 150.947 153.368 162.392C106.16 174.334 57.117 181.432 8.38033 177.286C-35.7573 173.538 -78.4214 160.082 -114.972 134.706C-148.724 111.275 -176.796 78.3283 -189.874 38.9803C-193.057 29.3887 -195.247 19.5174 -196.534 9.49732C-196.816 7.3347 -200.149 7.92707 -199.868 10.0897L-199.885 10.0583Z" fill="white"/>
</g>
</g>
<circle cx="173.63" cy="159.317" r="72.6958" transform="rotate(60.3565 173.63 159.317)" fill="#58BDF6" stroke="white" stroke-width="0.40726"/>
<circle cx="173.478" cy="159.87" r="67.4015" transform="rotate(60.3565 173.478 159.87)" stroke="white" stroke-width="0.40726"/>
<circle cx="434.005" cy="373.181" r="72.6958" transform="rotate(60.3565 434.005 373.181)" fill="#58BDF6" stroke="white" stroke-width="0.40726"/>
<circle cx="433.849" cy="373.734" r="67.4015" transform="rotate(60.3565 433.849 373.734)" stroke="white" stroke-width="0.40726"/>
</g>
</g>
<defs>
<clipPath id="clip0_824_28">
<rect width="533" height="472" fill="white"/>
</clipPath>
<clipPath id="clip1_824_28">
<rect width="989.442" height="741.01" fill="white" transform="translate(503.583 -265.496) rotate(79.9248)"/>
</clipPath>
</defs>
</svg>
