<svg width="818" height="298" viewBox="0 0 818 298" fill="none" xmlns="http://www.w3.org/2000/svg">
<g clip-path="url(#clip0_820_326)">
<rect width="818" height="298" fill="white"/>
<g clip-path="url(#clip1_820_326)">
<path d="M850.763 344.828C850.763 344.828 525.17 112.689 313.407 275.654C138.04 410.61 57.2524 203.115 34.6656 127.8C25.9414 98.7112 -6.03404 39.9072 -27.6108 18.5334C-70.2455 -23.7001 -211.466 -79.5087 -309.41 104.86" stroke="#58BDF6" stroke-width="0.497769" stroke-miterlimit="10"/>
<path d="M855.483 334.448C855.483 334.448 529.89 102.309 318.126 265.274C142.76 400.23 61.9721 192.735 39.3853 117.421C30.6611 88.3313 -1.31432 29.5273 -22.8911 8.15355C-65.5257 -34.08 -206.746 -89.8886 -304.69 94.4798" stroke="#58BDF6" stroke-width="0.497769" stroke-miterlimit="10"/>
<path d="M860.212 324.066C860.212 324.066 534.619 91.9265 322.855 254.891C147.488 389.847 66.7006 182.352 44.1138 107.038C35.3896 77.9485 3.4142 19.1445 -18.1625 -2.22926C-60.7972 -44.4628 -202.018 -100.271 -299.962 84.097" stroke="#58BDF6" stroke-width="0.497769" stroke-miterlimit="10"/>
<path d="M864.933 313.687C864.933 313.687 539.34 81.5476 327.577 244.513C152.21 379.468 71.4223 171.973 48.8355 96.6589C40.1113 67.5696 8.13588 8.76563 -13.4409 -12.6082C-56.0755 -54.8417 -197.296 -110.65 -295.24 73.7181" stroke="#58BDF6" stroke-width="0.497769" stroke-miterlimit="10"/>
<path d="M869.658 303.31C869.658 303.31 544.065 71.1706 332.301 234.136C156.935 369.091 76.147 161.596 53.5602 86.2819C44.836 57.1926 12.8605 -1.61132 -8.71626 -22.9851C-51.3509 -65.2186 -192.571 -121.027 -290.515 63.3411" stroke="#58BDF6" stroke-width="0.497769" stroke-miterlimit="10"/>
<path d="M874.382 292.929C874.382 292.929 548.789 60.7895 337.026 223.754C161.659 358.71 80.8715 151.215 58.2847 75.9008C49.5605 46.8115 17.585 -11.9924 -3.99175 -33.3662C-46.6264 -75.5997 -187.847 -131.408 -285.791 52.9601" stroke="#58BDF6" stroke-width="0.497769" stroke-miterlimit="10"/>
<path d="M879.109 282.544C879.109 282.544 553.516 50.4053 341.752 213.37C166.386 348.326 85.5981 140.831 63.0113 65.5165C54.287 36.4272 22.3116 -22.3767 0.734817 -43.7505C-41.8999 -85.984 -183.12 -141.793 -281.064 42.5758" stroke="#58BDF6" stroke-width="0.497769" stroke-miterlimit="10"/>
<path d="M883.831 272.165C883.831 272.165 558.238 40.0261 346.474 202.991C171.107 337.947 90.3198 130.451 67.733 55.1374C59.0087 26.0481 27.0333 -32.7558 5.45656 -54.1296C-37.1781 -96.3632 -178.399 -152.172 -276.343 32.1966" stroke="#58BDF6" stroke-width="0.497769" stroke-miterlimit="10"/>
<path d="M888.557 261.786C888.557 261.786 562.964 29.6467 351.201 192.612C175.834 327.567 95.0463 120.072 72.4595 44.758C63.7353 15.6687 31.7599 -43.1352 10.1831 -64.509C-32.4516 -106.743 -173.672 -162.551 -271.616 21.8172" stroke="#58BDF6" stroke-width="0.497769" stroke-miterlimit="10"/>
<path d="M893.278 251.41C893.278 251.41 567.685 19.271 355.921 182.236C180.555 317.192 99.767 109.696 77.1802 34.3823C68.4559 5.29298 36.4805 -53.511 14.9038 -74.8848C-27.7309 -117.118 -168.951 -172.927 -266.895 11.4415" stroke="#58BDF6" stroke-width="0.497769" stroke-miterlimit="10"/>
<path d="M898.004 241.03C898.004 241.03 572.411 8.89058 360.647 171.856C185.28 306.811 104.493 99.3159 81.9058 24.0019C73.1815 -5.08739 41.2061 -63.8913 19.6293 -85.2651C-23.0053 -127.499 -164.226 -183.307 -262.17 1.06113" stroke="#58BDF6" stroke-width="0.497769" stroke-miterlimit="10"/>
<path d="M902.731 230.646C902.731 230.646 577.138 -1.49321 365.374 161.472C190.008 296.427 109.22 88.9321 86.6333 13.6181C77.909 -15.4712 45.9336 -74.2751 24.3569 -95.6489C-18.2778 -137.882 -159.498 -193.691 -257.442 -9.32266" stroke="#58BDF6" stroke-width="0.497769" stroke-miterlimit="10"/>
<path d="M907.452 220.266C907.452 220.266 581.859 -11.8728 370.095 151.092C194.728 286.048 113.941 78.5525 91.354 3.23848C82.6298 -25.8508 50.6543 -84.6548 29.0776 -106.029C-13.5571 -148.262 -154.778 -204.071 -252.722 -19.7023" stroke="#58BDF6" stroke-width="0.497769" stroke-miterlimit="10"/>
<path d="M912.179 209.887C912.179 209.887 586.586 -22.2522 374.823 140.713C199.456 275.668 118.668 68.1731 96.0817 -7.14095C87.3574 -36.2302 55.382 -95.0342 33.8052 -116.408C-8.82945 -158.641 -150.05 -214.45 -247.994 -30.0817" stroke="#58BDF6" stroke-width="0.497769" stroke-miterlimit="10"/>
<path d="M916.901 199.508C916.901 199.508 591.308 -32.6309 379.544 130.334C204.178 265.29 123.39 57.7944 100.803 -17.5196C92.0791 -46.6089 60.1037 -105.413 38.5269 -126.787C-4.10777 -169.02 -145.328 -224.829 -243.272 -40.4604" stroke="#58BDF6" stroke-width="0.497769" stroke-miterlimit="10"/>
<path d="M921.627 189.124C921.627 189.124 596.034 -43.0154 384.27 119.95C208.903 254.905 128.116 47.4099 105.529 -27.9041C96.8047 -56.9934 64.8292 -115.797 43.2525 -137.171C0.617817 -179.405 -140.602 -235.213 -238.547 -50.8449" stroke="#58BDF6" stroke-width="0.497769" stroke-miterlimit="10"/>
<path d="M926.351 178.742C926.351 178.742 600.758 -53.3968 388.995 109.568C213.628 244.524 132.84 37.0286 110.254 -38.2855C101.529 -67.3748 69.5539 -126.179 47.9772 -147.553C5.34249 -189.786 -135.878 -245.595 -233.822 -61.2263" stroke="#58BDF6" stroke-width="0.497769" stroke-miterlimit="10"/>
<path d="M931.076 168.365C931.076 168.365 605.483 -63.7737 393.719 99.1912C218.353 234.147 137.565 26.6516 114.978 -48.6624C106.254 -77.7517 74.2785 -136.556 52.7018 -157.929C10.0671 -200.163 -131.153 -255.972 -229.097 -71.6032" stroke="#58BDF6" stroke-width="0.497769" stroke-miterlimit="10"/>
<path d="M935.798 157.987C935.798 157.987 610.206 -74.1519 398.442 88.8131C223.075 223.769 142.288 16.2734 119.701 -59.0406C110.977 -88.1299 79.0011 -146.934 57.4244 -168.308C14.7897 -210.541 -126.431 -266.35 -224.375 -81.9814" stroke="#58BDF6" stroke-width="0.497769" stroke-miterlimit="10"/>
<path d="M940.525 147.607C940.525 147.607 614.932 -84.5323 403.168 78.4327C227.802 213.388 147.014 5.89306 124.427 -69.421C115.703 -98.5103 83.7277 -157.314 62.1509 -178.688C19.5163 -220.922 -121.704 -276.73 -219.648 -92.3618" stroke="#58BDF6" stroke-width="0.497769" stroke-miterlimit="10"/>
<path d="M945.247 137.224C945.247 137.224 619.654 -94.9148 407.89 68.0501C232.523 203.006 151.736 -4.48949 129.149 -79.8035C120.425 -108.893 88.4494 -167.697 66.8726 -189.071C24.2379 -231.304 -116.982 -287.113 -214.926 -102.744" stroke="#58BDF6" stroke-width="0.497769" stroke-miterlimit="10"/>
<path d="M949.972 126.844C949.972 126.844 624.379 -105.295 412.616 57.6695C237.249 192.625 156.461 -14.8701 133.875 -90.1842C125.15 -119.273 93.1749 -178.077 71.5982 -199.451C28.9635 -241.685 -112.257 -297.493 -210.201 -113.125" stroke="#58BDF6" stroke-width="0.497769" stroke-miterlimit="10"/>
</g>
<rect x="274.5" y="40.5" width="221" height="221" rx="11.5" fill="white" stroke="#58BDF6"/>
<g clip-path="url(#clip2_820_326)">
<mask id="path-24-inside-1_820_326" fill="white">
<path d="M346.663 193.266C346.351 193.264 346.051 193.216 345.751 193.119C345.465 193.022 345.186 192.878 344.933 192.685C344.677 192.492 344.486 192.276 344.317 192.035C344.161 191.795 344.056 191.529 344.001 191.239C343.932 190.95 343.965 190.684 344.022 190.448C344.065 190.21 344.224 190 344.396 189.818C344.601 189.635 344.787 189.5 345.059 189.411C345.303 189.323 345.595 189.281 345.923 189.286C356.137 189.469 366.511 189.608 376.921 189.702C387.328 189.797 397.769 189.848 408.113 189.854C405.421 188.156 403.014 186.234 400.907 184.043C398.825 181.853 397.027 179.394 395.617 176.655C394.191 173.916 393.068 171.098 392.263 168.248C391.457 165.397 390.995 162.512 390.865 159.637C385.417 159.602 379.958 159.563 374.532 159.521C369.109 159.479 363.716 159.435 358.435 159.388C358.085 159.386 357.784 159.32 357.483 159.193C357.192 159.067 356.928 158.879 356.698 158.629C356.49 158.379 356.291 158.099 356.18 157.791C356.082 157.483 355.997 157.146 356.01 156.779C356.028 156.412 356.074 156.08 356.194 155.781C356.313 155.484 356.509 155.219 356.724 154.99C356.966 154.761 357.217 154.589 357.516 154.475C357.802 154.362 358.122 154.305 358.47 154.307C363.753 154.333 369.146 154.363 374.568 154.397C379.998 154.43 385.453 154.467 390.9 154.508C391.24 151.482 391.846 148.487 392.769 145.57C393.682 142.652 394.9 139.813 396.36 137.093C397.822 134.372 399.578 131.985 401.626 129.906C403.681 127.826 405.99 126.053 408.566 124.534C393.432 124.332 378.089 124.224 362.956 124.213C347.814 124.201 332.87 124.286 318.516 124.47C318.208 124.474 317.923 124.423 317.679 124.317C317.423 124.21 317.206 124.051 317.018 123.836C316.83 123.621 316.685 123.377 316.61 123.109C316.521 122.84 316.503 122.544 316.527 122.224C316.557 121.902 316.611 121.612 316.774 121.352C316.889 121.091 317.096 120.862 317.32 120.663C317.569 120.463 317.815 120.316 318.094 120.218C318.369 120.118 318.686 120.071 318.997 120.073L426.548 120.819C431.506 120.855 436.253 121.625 440.715 123.321C445.171 125.012 449.268 127.653 452.741 131.3C456.233 134.944 458.573 139.029 460.039 143.413C461.494 147.804 462.106 152.495 462.082 157.535C462.051 162.577 461.382 167.259 459.843 171.635C458.33 176.004 455.902 180.062 452.381 183.67C448.857 187.28 444.728 189.871 440.242 191.504C435.766 193.142 430.969 193.85 426.042 193.817L346.663 193.266ZM426.804 189.815C431.127 189.792 435.307 189.078 439.155 187.57C443.022 186.064 446.556 183.75 449.668 180.589C452.76 177.429 454.942 173.893 456.365 170.055C457.767 166.213 458.46 162.068 458.487 157.592C458.504 153.115 457.912 148.958 456.55 145.089C455.201 141.223 453.067 137.646 450.036 134.427C447.002 131.206 443.485 128.83 439.659 127.263C435.831 125.693 431.681 124.917 427.357 124.834C423.027 124.757 419.077 125.366 415.484 126.7C411.902 128.038 408.639 130.11 405.595 133.103C402.569 136.096 400.216 139.597 398.601 143.61C396.996 147.618 396.174 152.142 396.131 157.054C396.11 161.968 396.846 166.508 398.403 170.55C399.921 174.595 402.232 178.144 405.215 181.196C408.182 184.249 411.397 186.378 414.975 187.774C418.551 189.164 422.456 189.831 426.806 189.815L426.804 189.815ZM310.014 158.834C309.757 158.83 309.532 158.77 309.316 158.653C309.099 158.537 308.91 158.363 308.75 158.135C308.586 157.906 308.433 157.653 308.372 157.372C308.294 157.091 308.265 156.785 308.254 156.45C308.274 156.117 308.288 155.814 308.385 155.542C308.477 155.271 308.613 155.029 308.773 154.82C308.942 154.61 309.137 154.452 309.346 154.347C309.548 154.241 309.814 154.188 310.047 154.187C315.121 154.181 320.707 154.184 326.68 154.194C332.652 154.205 339.005 154.223 345.617 154.249C345.972 154.249 346.249 154.312 346.535 154.436C346.806 154.56 347.07 154.745 347.286 154.992C347.509 155.239 347.665 155.515 347.784 155.821C347.877 156.126 347.942 156.46 347.947 156.825C347.946 157.189 347.877 157.518 347.77 157.813C347.638 158.108 347.489 158.37 347.261 158.596C347.056 158.822 346.786 158.99 346.502 159.102C346.224 159.214 345.928 159.268 345.582 159.264C338.97 159.198 332.618 159.129 326.646 159.056C320.673 158.984 315.087 158.909 310.014 158.832L310.014 158.834ZM318.491 193.071C318.16 193.069 317.888 193.013 317.591 192.904C317.307 192.795 317.055 192.632 316.823 192.415C316.589 192.197 316.418 191.954 316.279 191.683C316.15 191.414 316.061 191.118 316.046 190.796C316.021 190.475 316.062 190.183 316.141 189.924C316.219 189.663 316.363 189.435 316.561 189.237C316.772 189.039 316.986 188.894 317.23 188.799C317.471 188.704 317.773 188.661 318.071 188.67C320.65 188.739 323.262 188.805 325.879 188.869C328.504 188.932 331.137 188.991 333.793 189.049C334.105 189.055 334.405 189.114 334.695 189.222C335.007 189.332 335.219 189.49 335.499 189.7C335.741 189.909 335.96 190.14 336.102 190.394C336.259 190.647 336.356 190.923 336.409 191.218C336.476 191.516 336.466 191.781 336.399 192.019C336.346 192.257 336.218 192.466 336.035 192.647C335.864 192.828 335.645 192.963 335.386 193.053C335.142 193.143 334.849 193.186 334.531 193.183L318.491 193.072L318.491 193.071Z"/>
</mask>
<path d="M346.663 193.266C346.351 193.264 346.051 193.216 345.751 193.119C345.465 193.022 345.186 192.878 344.933 192.685C344.677 192.492 344.486 192.276 344.317 192.035C344.161 191.795 344.056 191.529 344.001 191.239C343.932 190.95 343.965 190.684 344.022 190.448C344.065 190.21 344.224 190 344.396 189.818C344.601 189.635 344.787 189.5 345.059 189.411C345.303 189.323 345.595 189.281 345.923 189.286C356.137 189.469 366.511 189.608 376.921 189.702C387.328 189.797 397.769 189.848 408.113 189.854C405.421 188.156 403.014 186.234 400.907 184.043C398.825 181.853 397.027 179.394 395.617 176.655C394.191 173.916 393.068 171.098 392.263 168.248C391.457 165.397 390.995 162.512 390.865 159.637C385.417 159.602 379.958 159.563 374.532 159.521C369.109 159.479 363.716 159.435 358.435 159.388C358.085 159.386 357.784 159.32 357.483 159.193C357.192 159.067 356.928 158.879 356.698 158.629C356.49 158.379 356.291 158.099 356.18 157.791C356.082 157.483 355.997 157.146 356.01 156.779C356.028 156.412 356.074 156.08 356.194 155.781C356.313 155.484 356.509 155.219 356.724 154.99C356.966 154.761 357.217 154.589 357.516 154.475C357.802 154.362 358.122 154.305 358.47 154.307C363.753 154.333 369.146 154.363 374.568 154.397C379.998 154.43 385.453 154.467 390.9 154.508C391.24 151.482 391.846 148.487 392.769 145.57C393.682 142.652 394.9 139.813 396.36 137.093C397.822 134.372 399.578 131.985 401.626 129.906C403.681 127.826 405.99 126.053 408.566 124.534C393.432 124.332 378.089 124.224 362.956 124.213C347.814 124.201 332.87 124.286 318.516 124.47C318.208 124.474 317.923 124.423 317.679 124.317C317.423 124.21 317.206 124.051 317.018 123.836C316.83 123.621 316.685 123.377 316.61 123.109C316.521 122.84 316.503 122.544 316.527 122.224C316.557 121.902 316.611 121.612 316.774 121.352C316.889 121.091 317.096 120.862 317.32 120.663C317.569 120.463 317.815 120.316 318.094 120.218C318.369 120.118 318.686 120.071 318.997 120.073L426.548 120.819C431.506 120.855 436.253 121.625 440.715 123.321C445.171 125.012 449.268 127.653 452.741 131.3C456.233 134.944 458.573 139.029 460.039 143.413C461.494 147.804 462.106 152.495 462.082 157.535C462.051 162.577 461.382 167.259 459.843 171.635C458.33 176.004 455.902 180.062 452.381 183.67C448.857 187.28 444.728 189.871 440.242 191.504C435.766 193.142 430.969 193.85 426.042 193.817L346.663 193.266ZM426.804 189.815C431.127 189.792 435.307 189.078 439.155 187.57C443.022 186.064 446.556 183.75 449.668 180.589C452.76 177.429 454.942 173.893 456.365 170.055C457.767 166.213 458.46 162.068 458.487 157.592C458.504 153.115 457.912 148.958 456.55 145.089C455.201 141.223 453.067 137.646 450.036 134.427C447.002 131.206 443.485 128.83 439.659 127.263C435.831 125.693 431.681 124.917 427.357 124.834C423.027 124.757 419.077 125.366 415.484 126.7C411.902 128.038 408.639 130.11 405.595 133.103C402.569 136.096 400.216 139.597 398.601 143.61C396.996 147.618 396.174 152.142 396.131 157.054C396.11 161.968 396.846 166.508 398.403 170.55C399.921 174.595 402.232 178.144 405.215 181.196C408.182 184.249 411.397 186.378 414.975 187.774C418.551 189.164 422.456 189.831 426.806 189.815L426.804 189.815ZM310.014 158.834C309.757 158.83 309.532 158.77 309.316 158.653C309.099 158.537 308.91 158.363 308.75 158.135C308.586 157.906 308.433 157.653 308.372 157.372C308.294 157.091 308.265 156.785 308.254 156.45C308.274 156.117 308.288 155.814 308.385 155.542C308.477 155.271 308.613 155.029 308.773 154.82C308.942 154.61 309.137 154.452 309.346 154.347C309.548 154.241 309.814 154.188 310.047 154.187C315.121 154.181 320.707 154.184 326.68 154.194C332.652 154.205 339.005 154.223 345.617 154.249C345.972 154.249 346.249 154.312 346.535 154.436C346.806 154.56 347.07 154.745 347.286 154.992C347.509 155.239 347.665 155.515 347.784 155.821C347.877 156.126 347.942 156.46 347.947 156.825C347.946 157.189 347.877 157.518 347.77 157.813C347.638 158.108 347.489 158.37 347.261 158.596C347.056 158.822 346.786 158.99 346.502 159.102C346.224 159.214 345.928 159.268 345.582 159.264C338.97 159.198 332.618 159.129 326.646 159.056C320.673 158.984 315.087 158.909 310.014 158.832L310.014 158.834ZM318.491 193.071C318.16 193.069 317.888 193.013 317.591 192.904C317.307 192.795 317.055 192.632 316.823 192.415C316.589 192.197 316.418 191.954 316.279 191.683C316.15 191.414 316.061 191.118 316.046 190.796C316.021 190.475 316.062 190.183 316.141 189.924C316.219 189.663 316.363 189.435 316.561 189.237C316.772 189.039 316.986 188.894 317.23 188.799C317.471 188.704 317.773 188.661 318.071 188.67C320.65 188.739 323.262 188.805 325.879 188.869C328.504 188.932 331.137 188.991 333.793 189.049C334.105 189.055 334.405 189.114 334.695 189.222C335.007 189.332 335.219 189.49 335.499 189.7C335.741 189.909 335.96 190.14 336.102 190.394C336.259 190.647 336.356 190.923 336.409 191.218C336.476 191.516 336.466 191.781 336.399 192.019C336.346 192.257 336.218 192.466 336.035 192.647C335.864 192.828 335.645 192.963 335.386 193.053C335.142 193.143 334.849 193.186 334.531 193.183L318.491 193.072L318.491 193.071Z" stroke="#58BDF6" stroke-width="2" mask="url(#path-24-inside-1_820_326)"/>
</g>
</g>
<defs>
<clipPath id="clip0_820_326">
<rect width="818" height="298" fill="white"/>
</clipPath>
<clipPath id="clip1_820_326">
<rect width="1233.26" height="745.872" fill="white" transform="matrix(-0.982238 0.187637 0.187637 0.982238 846.909 -413.62)"/>
</clipPath>
<clipPath id="clip2_820_326">
<rect width="153.831" height="73" fill="white" transform="translate(308.507 120) rotate(0.39751)"/>
</clipPath>
</defs>
</svg>
