<svg width="818" height="298" viewBox="0 0 818 298" fill="none" xmlns="http://www.w3.org/2000/svg">
<g clip-path="url(#clip0_820_470)">
<rect width="818" height="298" fill="white"/>
<g clip-path="url(#clip1_820_470)">
<path d="M121.207 531.849C122.448 486.702 130.869 432.386 166.233 413.486C222.974 383.16 300.828 469.793 357.605 440.789C404.273 416.95 363.015 323.233 404.924 296.757C456.865 263.946 551.504 378.011 605.212 347.59C663.67 314.482 611.109 145.618 656.674 127.912C694.734 113.121 752.425 222.772 800.025 206.914C845.188 191.869 831.083 80.5683 878.469 66.5641C900.799 59.9668 926.285 78.0771 945.543 96.0761" stroke="#00A3FF" stroke-width="0.216166" stroke-miterlimit="10"/>
<path d="M126.043 538.686C127.991 519.057 131.809 497.433 138.208 476.882C145.889 452.413 155.568 430.307 175.502 419.301C230.892 388.721 307.528 473.091 363.756 445.175C409.679 422.195 370.602 331.631 412.094 306.04C463.399 274.32 555.99 384.367 609.348 354.772C640.609 337.433 641.853 285.947 642.086 237.575C642.31 190.876 641.371 146.72 662.849 137.481C673.357 132.961 685.428 138.236 698.629 147.918C731.933 172.195 771.288 225.368 805.379 214.009C849.67 199.255 836.372 90.0142 882.591 74.4388C904.123 67.1819 928.897 84.4012 947.521 101.104" stroke="#00A3FF" stroke-width="0.222651" stroke-miterlimit="10"/>
<path d="M130.879 545.523C134.209 526.908 139.73 506.203 147.112 485.334C155.943 460.373 164.097 436.881 184.773 425.119C238.845 394.364 314.316 476.564 369.908 449.561C415.154 427.584 378.189 340.03 419.265 315.324C469.934 284.695 560.501 390.754 613.486 361.951C646.045 344.254 647.749 293.934 648.409 246.871C649.06 200.685 648.277 156.897 669.025 147.052C679.21 142.219 690.901 146.94 704.009 156.081C737.051 179.126 776.607 232.479 810.738 221.109C854.159 206.645 841.603 99.4987 886.719 82.3149C907.435 74.4239 931.517 90.7281 949.502 106.135" stroke="#00A3FF" stroke-width="0.229136" stroke-miterlimit="10"/>
<path d="M135.712 552.359C140.423 534.761 147.676 514.981 156.016 493.786C166.029 468.341 172.62 443.463 194.041 430.939C246.825 400.075 321.052 479.949 376.058 453.95C420.591 432.9 385.778 348.433 426.434 324.61C476.467 295.075 565.027 397.173 617.62 369.135C651.484 351.083 653.651 301.922 654.731 256.17C655.81 210.489 655.184 167.071 675.2 156.628C685.064 151.481 696.391 155.633 709.388 164.25C742.204 186.014 781.921 239.594 816.092 228.212C858.643 214.036 846.777 109.03 890.843 90.1948C910.733 81.6934 934.132 97.0567 951.481 111.168" stroke="#00A3FF" stroke-width="0.237782" stroke-miterlimit="10"/>
<path d="M140.547 559.195C146.639 542.611 155.625 523.757 164.921 502.236C176.12 476.307 181.148 450.053 203.312 436.753C254.834 405.839 327.79 483.327 382.208 458.333C426.023 438.209 393.413 356.917 433.603 333.891C483.064 305.554 569.57 403.613 621.757 376.313C656.931 357.912 659.568 309.901 661.055 265.464C662.542 221.028 662.097 177.235 681.377 166.197C690.923 160.731 701.884 164.316 714.766 172.412C747.362 192.895 787.239 246.704 821.448 235.308C863.129 221.422 851.899 118.6 894.966 98.0682C914.02 88.984 936.748 103.381 953.461 116.196" stroke="#00A3FF" stroke-width="0.244267" stroke-miterlimit="10"/>
<path d="M145.384 566.034C152.858 550.463 163.581 532.537 173.829 510.689C186.216 484.276 189.675 456.654 212.583 442.573C262.866 411.663 334.524 486.71 388.361 462.722C431.457 443.521 401.013 365.341 440.776 343.177C489.612 315.958 574.131 410.084 625.894 383.496C662.383 364.754 665.498 317.883 667.378 274.765C669.325 230.081 669.01 187.398 687.553 175.772C696.78 169.985 707.377 173.007 720.145 180.579C752.523 199.782 792.557 253.819 826.803 242.41C867.614 228.815 856.974 128.23 899.09 105.947C917.3 96.3119 939.361 109.709 955.439 121.228" stroke="#00A3FF" stroke-width="0.250752" stroke-miterlimit="10"/>
<path d="M150.217 572.871C159.072 558.316 171.537 541.316 182.733 519.139C196.311 492.244 198.202 463.262 221.853 448.39C270.923 417.529 341.253 490.087 394.512 467.107C436.884 448.825 408.608 373.758 447.949 352.459C496.161 326.357 578.708 416.571 630.034 390.676C667.845 371.6 671.444 325.858 673.705 284.058C676.094 239.864 675.929 197.549 693.733 185.341C702.645 179.229 712.875 181.689 725.529 188.74C757.693 206.662 797.88 260.928 832.165 249.507C872.106 236.202 862.015 137.916 903.221 113.821C920.581 103.668 941.985 116.033 957.426 126.257" stroke="#00A3FF" stroke-width="0.257237" stroke-miterlimit="10"/>
<path d="M155.053 579.708C165.289 566.167 179.494 550.095 191.639 527.59C206.411 500.214 206.734 469.88 231.123 454.206C279 423.437 347.977 493.462 400.664 471.493C442.31 454.129 416.205 382.176 455.119 361.743C502.705 336.756 583.293 423.082 634.17 397.856C673.306 378.451 677.401 333.831 680.025 293.355C682.862 249.644 682.843 207.694 699.906 194.912C708.502 188.473 718.367 190.375 730.903 196.903C762.858 213.543 803.193 268.039 837.515 256.604C876.586 243.587 867.013 147.664 907.341 121.694C923.851 111.063 944.596 122.356 959.401 131.284" stroke="#00A3FF" stroke-width="0.265884" stroke-miterlimit="10"/>
<path d="M159.888 586.544C171.506 574.016 187.455 558.873 200.544 536.04C216.512 508.182 215.268 476.506 240.394 460.022C287.1 429.38 354.701 496.831 406.814 475.878C447.731 459.428 423.798 390.594 462.289 371.025C509.247 347.152 587.888 429.609 638.306 405.035C678.776 385.309 683.371 341.798 686.35 302.649C689.638 259.418 689.759 217.83 706.083 204.481C714.363 197.712 723.867 199.059 736.284 205.064C768.033 220.421 808.513 275.148 842.873 263.699C881.075 250.973 871.998 157.479 911.466 129.567C927.13 118.489 947.214 128.679 961.381 136.312" stroke="#00A3FF" stroke-width="0.272369" stroke-miterlimit="10"/>
<path d="M164.722 593.382C177.72 581.869 195.416 567.656 209.448 544.492C226.615 516.154 223.805 483.146 249.663 465.841C295.213 435.359 361.417 500.202 412.965 480.268C453.149 464.728 431.39 399.014 469.458 380.312C515.787 357.553 592.494 436.158 642.441 412.22C684.248 392.183 689.355 349.772 692.672 311.951C696.42 269.193 696.672 227.965 712.259 214.058C720.222 206.952 729.365 207.747 741.663 213.233C773.211 227.307 813.829 282.265 848.228 270.805C885.56 258.368 876.966 167.373 915.591 137.449C930.413 125.964 949.83 135.01 963.361 141.347" stroke="#00A3FF" stroke-width="0.278854" stroke-miterlimit="10"/>
<path d="M169.558 600.219C183.938 589.722 203.379 576.437 218.355 552.943C236.722 524.127 232.347 489.791 258.934 471.657C303.347 441.365 368.131 503.566 419.118 484.653C458.567 470.02 438.984 407.429 476.631 389.594C522.329 367.945 597.109 442.718 646.581 419.399C689.73 399.059 695.36 357.735 698.997 321.244C703.213 278.951 703.585 238.084 718.436 223.626C726.082 216.183 734.867 216.428 747.042 221.394C778.393 234.181 819.147 289.374 853.585 277.9C890.046 265.752 881.94 177.33 919.717 145.321C933.71 133.463 952.446 141.333 965.343 146.373" stroke="#00A3FF" stroke-width="0.285339" stroke-miterlimit="10"/>
<path d="M174.392 607.057C190.154 597.573 211.343 585.221 227.257 561.395C246.826 532.1 240.892 496.45 268.201 477.476C311.49 447.398 374.838 506.928 425.266 489.04C463.976 475.308 446.572 415.845 483.798 398.879C528.863 378.341 601.729 449.296 650.713 426.58C695.21 405.947 701.373 365.699 705.316 330.541C710.006 288.71 710.489 248.201 724.608 233.198C731.936 225.413 740.366 225.111 752.417 229.558C783.577 241.058 824.461 296.486 858.936 284.998C894.528 273.141 886.919 187.365 923.835 153.197C937.012 140.999 955.056 147.658 967.315 151.403" stroke="#00A3FF" stroke-width="0.291824" stroke-miterlimit="10"/>
<path d="M179.228 613.894C196.37 605.425 219.308 594.004 236.163 569.846C256.933 540.074 249.448 503.116 277.473 483.293C319.656 453.455 381.548 510.284 431.418 493.428C469.386 480.594 454.162 424.26 490.971 408.163C535.403 388.734 606.359 455.887 654.854 433.763C700.703 412.845 707.411 373.665 711.642 339.84C716.817 298.468 717.397 258.311 730.788 242.774C737.795 234.644 745.877 233.797 757.801 237.727C788.773 247.935 829.784 303.603 864.297 292.101C899.019 280.534 891.937 197.476 927.966 161.076C940.343 148.572 957.678 153.986 969.301 156.437" stroke="#00A3FF" stroke-width="0.300471" stroke-miterlimit="10"/>
<path d="M184.063 620.73C202.588 613.276 227.276 602.787 245.069 578.296C267.044 548.049 258.009 509.794 286.742 489.108C327.832 459.529 388.903 515.544 437.568 497.811C474.297 484.428 461.75 432.669 498.14 417.443C541.939 399.12 610.994 462.486 658.988 440.939C706.195 419.746 713.462 381.622 717.964 349.133C723.634 308.212 724.295 268.409 736.962 252.342C743.647 243.862 751.381 242.472 763.177 245.887C793.967 254.8 835.099 310.711 869.65 299.198C903.501 287.919 896.988 207.65 932.087 168.95C943.684 156.165 960.292 160.311 971.279 161.464" stroke="#00A3FF" stroke-width="0.306956" stroke-miterlimit="10"/>
<path d="M188.897 627.567C208.803 621.127 235.243 611.574 253.973 586.749C277.155 556.026 266.577 516.485 296.013 494.927C336.021 465.628 395.599 518.984 443.721 502.2C479.706 489.65 469.337 441.082 505.312 426.73C548.474 409.513 615.634 469.104 663.127 448.122C711.698 426.666 719.535 389.586 724.289 358.43C730.468 317.956 731.192 278.507 743.141 261.913C749.5 253.082 756.892 251.15 768.558 254.049C799.169 261.661 840.419 317.819 875.009 306.294C907.991 295.305 902.097 217.889 936.214 176.823C947.048 163.781 962.908 166.633 973.259 166.493" stroke="#00A3FF" stroke-width="0.313441" stroke-miterlimit="10"/>
<path d="M193.733 634.406C215.019 628.981 243.212 620.361 262.88 595.202C287.267 564.006 275.155 523.188 305.284 500.748C344.225 471.742 402.283 522.405 449.873 506.588C485.119 494.874 476.925 449.492 512.483 436.016C555.007 419.899 620.28 475.73 667.264 455.307C717.201 433.599 725.624 397.548 730.612 367.731C737.308 327.701 738.079 288.606 749.316 271.489C755.346 262.304 762.401 259.83 773.937 262.218C804.374 268.522 845.734 324.936 880.363 313.397C912.475 302.698 907.266 228.196 940.338 184.705C950.435 171.427 965.524 172.965 975.239 171.527" stroke="#00A3FF" stroke-width="0.319926" stroke-miterlimit="10"/>
<path d="M198.568 641.243C221.237 636.833 251.18 629.148 271.786 603.652C297.379 571.982 283.741 529.901 314.555 506.562C352.438 477.867 408.331 523.65 456.024 510.973C490.991 501.679 484.508 457.899 519.653 445.298C561.537 430.283 624.93 482.365 671.401 462.485C722.711 440.536 731.732 405.508 736.936 377.025C744.168 337.436 744.962 298.693 755.493 281.058C761.19 271.518 767.912 268.499 779.316 270.38C809.583 275.371 851.052 332.046 885.72 320.495C916.962 310.085 912.515 238.554 944.464 192.58C953.844 179.081 968.142 179.289 977.221 176.557" stroke="#00A3FF" stroke-width="0.328572" stroke-miterlimit="10"/>
<path d="M203.402 648.079C227.452 644.683 259.147 637.934 280.69 612.102C307.491 579.961 292.337 536.626 323.823 512.379C360.66 484.01 415.015 526.974 462.173 515.359C496.382 506.932 492.09 466.302 526.822 454.581C568.066 440.662 629.581 489.008 675.535 469.666C728.222 447.49 737.859 413.468 743.255 386.323C751.04 347.174 751.833 308.779 761.665 290.631C767.026 280.734 773.421 277.17 784.691 278.545C814.79 282.217 856.367 339.159 891.072 327.595C921.442 317.476 917.843 248.958 948.585 200.456C957.272 186.75 970.755 185.616 979.196 181.587" stroke="#00A3FF" stroke-width="0.335057" stroke-miterlimit="10"/>
<path d="M208.237 654.915C233.667 652.533 267.118 646.721 289.596 620.552C317.606 587.941 300.945 543.367 333.095 518.196C368.897 490.163 421.7 530.288 468.327 519.745C501.776 512.181 499.676 474.705 533.997 463.864C574.599 451.039 634.242 495.662 679.675 476.846C733.744 454.453 744.01 421.428 749.582 395.617C757.94 356.904 758.707 318.863 767.845 300.2C772.867 289.944 778.939 285.835 790.075 286.706C820.007 289.051 861.689 346.268 896.433 334.69C925.933 324.861 923.274 259.397 952.713 208.329C960.73 194.423 973.373 191.938 981.18 186.614" stroke="#00A3FF" stroke-width="0.341542" stroke-miterlimit="10"/>
<path d="M213.072 661.752C239.884 660.384 275.089 655.509 298.499 629.004C327.717 595.921 309.565 550.122 342.361 524.012C377.138 496.328 428.377 533.591 474.475 524.129C507.162 517.422 507.424 483.666 541.164 473.146C580.92 460.751 638.897 502.323 683.809 484.024C739.265 461.43 750.177 429.391 755.904 404.91C764.857 366.636 765.567 328.944 774.019 309.768C778.698 299.154 784.45 294.495 795.453 294.867C825.22 295.875 867.007 353.377 901.787 341.787C930.418 332.249 928.8 269.867 956.837 216.203C964.205 202.1 975.989 198.263 983.159 191.642" stroke="#00A3FF" stroke-width="0.348027" stroke-miterlimit="10"/>
<path d="M217.908 668.591C246.1 668.24 283.059 664.302 307.404 637.457C337.833 603.906 318.199 556.894 351.633 529.832C385.395 502.504 435.053 536.887 480.627 528.52C512.549 522.658 514.833 491.504 548.335 482.434C587.647 471.79 643.56 508.998 687.945 491.211C744.794 468.428 756.367 437.363 762.225 414.213C771.8 376.379 772.423 339.034 780.194 319.346C784.527 308.373 789.962 303.16 800.829 303.038C830.43 302.7 872.322 360.496 907.141 348.892C934.901 339.642 934.428 280.362 960.96 224.085C967.701 209.785 978.604 204.593 985.136 196.679" stroke="#00A3FF" stroke-width="0.356674" stroke-miterlimit="10"/>
<path d="M222.743 675.428C252.317 676.09 291.03 673.092 316.31 645.908C347.947 611.887 326.847 563.679 360.903 535.65C393.658 508.69 441.728 540.168 486.777 532.906C517.933 527.883 522.414 499.897 555.505 491.717C594.172 482.156 648.223 515.676 692.082 498.39C750.329 475.435 762.582 445.334 768.55 423.509C778.774 386.121 779.274 349.116 786.371 328.919C790.354 317.586 795.474 311.818 806.209 311.2C835.645 309.508 877.639 367.607 912.497 355.989C939.388 347.029 940.161 290.861 965.084 231.959C971.217 217.462 981.22 210.918 987.116 201.706" stroke="#00A3FF" stroke-width="0.363159" stroke-miterlimit="10"/>
<path d="M227.579 682.265C258.535 683.941 299.002 681.882 325.216 654.359C358.065 619.87 335.512 570.482 370.175 541.465C401.932 514.879 448.401 543.434 492.931 537.291C523.319 533.097 529.995 508.289 562.678 500.999C600.698 492.519 652.893 522.358 696.22 505.569C755.869 482.456 768.817 453.308 774.872 432.802C785.781 395.87 786.118 359.201 792.547 338.487C796.175 326.797 800.986 320.469 811.588 319.361C840.852 316.305 882.957 374.716 917.854 363.084C943.875 354.414 946.001 301.358 969.21 239.83C974.755 225.13 983.837 217.239 989.098 206.732" stroke="#00A3FF" stroke-width="0.369644" stroke-miterlimit="10"/>
<path d="M232.412 689.101C264.748 691.793 306.972 690.673 334.12 662.808C368.178 627.854 344.193 577.302 379.442 547.282C410.212 521.076 455.07 546.687 499.08 541.675C528.699 538.301 537.57 516.672 569.845 510.281C607.218 502.878 657.558 529.05 700.355 512.749C761.411 489.495 775.072 461.292 781.195 442.098C792.829 405.631 792.958 369.286 798.722 348.058C801.994 336.01 806.497 329.119 816.966 327.525C846.056 323.096 888.274 381.827 923.208 370.185C948.358 361.803 951.94 311.85 973.333 247.708C978.307 232.794 986.45 223.567 991.074 211.763" stroke="#00A3FF" stroke-width="0.376129" stroke-miterlimit="10"/>
<path d="M237.248 695.939C270.966 699.645 314.995 699.516 343.027 671.262C378.359 635.904 352.895 584.145 388.715 553.102C418.506 527.286 461.745 549.929 505.233 546.066C534.084 543.503 545.15 525.063 577.02 519.569C613.747 513.24 662.231 535.753 704.495 519.933C766.965 496.554 781.354 469.287 787.522 451.399C799.928 415.415 799.796 379.381 804.902 357.633C807.815 345.229 812.008 337.77 822.349 335.692C851.258 329.882 893.596 388.943 928.568 377.286C952.849 369.195 957.982 322.327 977.463 255.586C981.88 240.45 989.072 229.894 993.06 216.796" stroke="#00A3FF" stroke-width="0.382614" stroke-miterlimit="10"/>
<path d="M242.082 702.778C277.182 707.497 322.959 708.303 351.931 679.715C388.465 643.883 361.616 591.007 397.983 558.92C426.803 533.494 468.415 553.15 511.382 550.452C539.468 548.689 552.727 533.441 584.187 528.852C620.269 523.59 666.897 542.455 708.63 527.113C772.517 503.625 787.652 477.286 793.842 460.694C807.077 425.217 806.624 389.474 811.075 367.204C813.625 354.444 817.51 346.416 827.725 343.855C856.45 336.658 898.911 396.052 933.921 384.384C957.332 376.583 964.106 332.773 981.583 263.461C985.458 248.089 991.684 236.22 995.036 221.824" stroke="#00A3FF" stroke-width="0.39126" stroke-miterlimit="10"/>
<path d="M246.918 709.614C283.398 715.35 330.923 717.088 360.837 688.165C398.575 651.861 370.359 597.887 407.255 564.737C435.112 539.709 475.094 556.353 517.536 554.839C544.856 553.866 560.307 541.816 591.361 538.136C626.795 533.937 671.571 549.167 712.769 534.296C778.079 510.72 793.975 485.303 800.168 469.991C814.297 435.056 813.456 399.57 817.254 376.776C819.44 363.663 823.101 355.328 833.106 352.02C861.395 342.662 904.23 403.164 939.28 391.484C961.82 383.972 970.321 343.19 985.711 271.338C989.056 255.72 994.304 242.546 997.018 226.857" stroke="#00A3FF" stroke-width="0.397745" stroke-miterlimit="10"/>
<path d="M251.753 716.451C289.615 723.201 338.889 725.875 369.743 696.616C408.681 659.837 379.128 604.789 416.525 570.555C443.427 545.926 481.773 559.535 523.687 559.225C550.246 559.028 567.888 550.187 598.531 547.419C633.321 544.278 676.241 555.882 716.906 541.475C783.645 517.831 800.316 493.333 806.49 479.287C821.591 444.939 820.279 409.668 823.429 386.346C825.249 372.882 828.516 363.699 838.484 360.183C866.814 350.189 909.546 410.276 944.634 398.582C966.305 391.36 976.607 353.567 989.834 279.213C992.66 263.332 996.917 248.87 998.997 231.884" stroke="#00A3FF" stroke-width="0.40423" stroke-miterlimit="10"/>
<path d="M256.587 723.287C295.831 731.05 346.851 734.66 378.645 705.066C418.786 667.815 387.921 611.716 425.792 576.369C451.75 552.142 488.457 562.694 529.834 563.61C555.636 564.18 575.465 558.55 605.698 556.702C639.842 554.614 680.908 562.601 721.038 548.656C789.211 524.964 806.671 501.382 812.81 488.584C828.975 454.885 827.097 419.771 829.601 395.918C831.051 382.105 834.009 372.341 843.86 368.346C871.979 356.947 914.861 417.386 949.987 405.678C970.788 398.746 982.956 363.901 993.955 287.088C996.27 270.931 999.53 255.196 1000.97 236.915" stroke="#00A3FF" stroke-width="0.410715" stroke-miterlimit="10"/>
<path d="M261.422 730.124C302.046 738.901 354.817 743.445 387.551 713.517C428.894 675.791 396.746 618.669 435.062 582.187C460.083 558.365 495.152 565.833 535.985 567.996C561.036 569.324 583.047 566.911 612.868 565.985C646.371 564.945 685.579 569.327 725.175 555.835C794.787 532.117 813.043 509.454 819.134 497.879C836.476 464.913 833.917 429.874 835.779 405.488C836.859 391.326 839.502 380.979 849.238 376.509C877.137 363.702 920.178 424.497 955.344 412.775C975.274 406.131 989.366 374.194 998.081 294.962C999.89 278.513 1002.15 261.518 1002.95 241.942" stroke="#00A3FF" stroke-width="0.419362" stroke-miterlimit="10"/>
<path d="M266.258 736.962C308.264 746.756 362.782 752.234 396.457 721.969C439.003 683.771 405.603 625.653 444.334 588.006C468.426 564.59 501.861 568.95 542.139 572.385C566.447 574.457 590.634 575.221 620.043 575.271C652.906 575.218 690.254 576.061 729.315 563.018C800.374 539.293 819.432 517.56 825.459 507.176C844.108 475.056 840.738 439.983 841.959 415.06C842.67 400.55 844.998 389.617 854.622 384.672C882.293 370.455 925.501 431.608 960.704 419.875C979.764 413.522 995.828 384.443 1002.21 302.839C1003.52 286.081 1004.77 267.846 1004.94 246.974" stroke="#00A3FF" stroke-width="0.425847" stroke-miterlimit="10"/>
<path d="M271.092 743.8C314.48 754.607 370.746 761.02 405.362 730.421C449.108 691.749 414.495 632.66 453.603 593.823C505.821 541.965 601.871 613.214 733.449 570.198C805.957 546.493 825.818 525.701 831.781 516.473C863.623 467.202 834.169 407.551 859.999 392.839C887.432 377.212 930.817 438.723 966.058 426.976C987.949 419.678 1009.67 383.121 1006.92 252.004" stroke="#00A3FF" stroke-width="0.432332" stroke-miterlimit="10"/>
</g>
<path opacity="0.7" d="M198.745 73.3076C197.192 73.3076 195.859 72.8682 194.746 71.9893C193.633 71.1006 192.773 69.8457 192.168 68.2246C191.572 66.6035 191.274 64.6797 191.274 62.4531L191.274 62.4092C191.274 60.1826 191.572 58.2588 192.168 56.6377C192.773 55.0068 193.633 53.752 194.746 52.873C195.859 51.9941 197.192 51.5547 198.745 51.5547C200.298 51.5547 201.631 51.999 202.744 52.8877C203.857 53.7666 204.712 55.0166 205.308 56.6377C205.913 58.2588 206.216 60.1826 206.216 62.4092L206.216 62.4531C206.216 64.6895 205.913 66.6182 205.308 68.2393C204.712 69.8604 203.857 71.1104 202.744 71.9893C201.631 72.8682 200.298 73.3076 198.745 73.3076ZM198.745 72.2676C200.063 72.2676 201.191 71.8672 202.129 71.0664C203.076 70.2656 203.804 69.1328 204.312 67.668C204.819 66.1934 205.073 64.4551 205.073 62.4531L205.073 62.4092C205.073 60.3877 204.819 58.6445 204.312 57.1797C203.804 55.7148 203.076 54.5869 202.129 53.7959C201.191 52.9951 200.063 52.5947 198.745 52.5947C197.417 52.5947 196.279 52.9951 195.332 53.7959C194.395 54.5967 193.672 55.7344 193.164 57.209C192.666 58.6738 192.417 60.4072 192.417 62.4092L192.417 62.4531C192.417 64.4648 192.666 66.2031 193.164 67.668C193.672 69.1328 194.395 70.2656 195.332 71.0664C196.279 71.8672 197.417 72.2676 198.745 72.2676ZM207.974 73L215.854 61.9844L215.532 63.0098L215.532 62.3799L208.003 51.8623L209.38 51.8623L216.25 61.4863L216.88 61.4863L216.001 61.9551L223.193 51.8623L224.541 51.8623L216.968 62.4092L216.968 63.0244L216.646 62.0137L224.497 73L223.105 73L216.265 63.3906L215.635 63.3906L216.514 62.9365L209.307 73L207.974 73ZM227.031 73L227.031 51.8623L239.277 51.8623L239.277 52.917L228.174 52.917L228.174 61.7646L238.398 61.7646L238.398 62.8193L228.174 62.8193L228.174 73L227.031 73ZM238.618 73L246.704 51.8623L247.583 51.8623L247.583 53.3418L247.261 53.3418L239.849 73L238.618 73ZM241.914 65.9395L242.295 64.9287L252.256 64.9287L252.622 65.9395L241.914 65.9395ZM254.717 73L247.305 53.3418L247.305 51.8623L247.861 51.8623L255.933 73L254.717 73ZM258.145 73L258.145 51.8623L259.287 51.8623L259.287 73L258.145 73ZM263.037 73L263.037 51.8623L269.878 51.8623C271.284 51.8623 272.49 52.1064 273.496 52.5947C274.512 53.083 275.293 53.7813 275.84 54.6895C276.387 55.5879 276.66 56.6572 276.66 57.8975L276.66 57.9268C276.66 59.4404 276.226 60.7148 275.356 61.75C274.497 62.7754 273.301 63.4443 271.768 63.7568L277.202 73L275.869 73L270.581 63.9326C270.474 63.9424 270.342 63.9521 270.186 63.9619C270.029 63.9619 269.893 63.9619 269.775 63.9619L264.18 63.9619L264.18 73L263.037 73ZM264.18 62.9219L269.819 62.9219C271.587 62.9219 272.974 62.4824 273.979 61.6035C274.985 60.7148 275.488 59.4941 275.488 57.9414L275.488 57.9121C275.488 56.3398 274.98 55.1143 273.965 54.2354C272.959 53.3564 271.567 52.917 269.79 52.917L264.18 52.917L264.18 62.9219ZM285.273 73L285.273 63.7861L277.583 51.8623L278.931 51.8623L285.815 62.6143L285.874 62.6143L292.759 51.8623L294.106 51.8623L286.416 63.7861L286.416 73L285.273 73ZM296.289 73L296.289 51.8623L303.13 51.8623C304.536 51.8623 305.742 52.1064 306.748 52.5947C307.764 53.083 308.545 53.7813 309.092 54.6895C309.639 55.5879 309.912 56.6572 309.912 57.8975L309.912 57.9268C309.912 59.4404 309.478 60.7148 308.608 61.75C307.749 62.7754 306.553 63.4443 305.02 63.7568L310.454 73L309.121 73L303.833 63.9326C303.726 63.9424 303.594 63.9521 303.437 63.9619C303.281 63.9619 303.145 63.9619 303.027 63.9619L297.432 63.9619L297.432 73L296.289 73ZM297.432 62.9219L303.071 62.9219C304.839 62.9219 306.226 62.4824 307.231 61.6035C308.237 60.7148 308.74 59.4941 308.74 57.9414L308.74 57.9121C308.74 56.3398 308.232 55.1143 307.217 54.2354C306.211 53.3564 304.819 52.917 303.042 52.917L297.432 52.917L297.432 62.9219ZM317.471 73.3076C316.553 73.3076 315.752 73.1758 315.068 72.9121C314.385 72.6387 313.813 72.2627 313.354 71.7842C312.905 71.3057 312.554 70.7539 312.3 70.1289C312.056 69.5039 311.904 68.8447 311.846 68.1514L311.831 67.9463L312.988 67.9463L313.003 68.1221C313.062 68.8447 313.252 69.5186 313.574 70.1436C313.896 70.7686 314.375 71.2764 315.01 71.667C315.645 72.0479 316.465 72.2383 317.471 72.2383C318.936 72.2383 320.078 71.7988 320.898 70.9199C321.729 70.041 322.144 68.8252 322.144 67.2725L322.144 51.8623L323.286 51.8623L323.286 67.3164C323.286 68.5469 323.052 69.6113 322.583 70.5098C322.114 71.4082 321.445 72.1016 320.576 72.5898C319.707 73.0684 318.672 73.3076 317.471 73.3076ZM331.68 73L325.776 51.8623L326.992 51.8623L332.207 71.0664L332.236 71.0664L337.817 51.8623L338.931 51.8623L344.512 71.0664L344.541 71.0664L349.771 51.8623L350.972 51.8623L345.068 73L344.028 73L338.389 53.957L338.359 53.957L332.72 73L331.68 73ZM353.447 73L353.447 51.8623L365.693 51.8623L365.693 52.917L354.59 52.917L354.59 61.7646L364.814 61.7646L364.814 62.8193L354.59 62.8193L354.59 73L353.447 73ZM376.475 73.3076C374.854 73.3076 373.452 72.9902 372.271 72.3555C371.089 71.7207 370.181 70.832 369.546 69.6895C368.911 68.5469 368.594 67.2041 368.594 65.6611L368.594 51.8623L369.736 51.8623L369.736 65.6172C369.736 66.9648 370.01 68.1367 370.557 69.1328C371.104 70.1191 371.88 70.8857 372.886 71.4326C373.892 71.9697 375.088 72.2383 376.475 72.2383C377.871 72.2383 379.072 71.9697 380.078 71.4326C381.094 70.8857 381.87 70.1191 382.407 69.1328C382.954 68.1367 383.228 66.9648 383.228 65.6172L383.228 51.8623L384.385 51.8623L384.385 65.6611C384.385 67.2041 384.062 68.5518 383.418 69.7041C382.773 70.8467 381.86 71.7354 380.679 72.3701C379.507 72.9951 378.105 73.3076 376.475 73.3076ZM393.979 73L393.979 52.917L386.567 52.917L386.567 51.8623L402.534 51.8623L402.534 52.917L395.122 52.917L395.122 73L393.979 73ZM412.598 73.3076C410.977 73.3076 409.575 72.9902 408.394 72.3555C407.212 71.7207 406.304 70.832 405.669 69.6895C405.034 68.5469 404.717 67.2041 404.717 65.6611L404.717 51.8623L405.859 51.8623L405.859 65.6172C405.859 66.9648 406.133 68.1367 406.68 69.1328C407.227 70.1191 408.003 70.8857 409.009 71.4326C410.015 71.9697 411.211 72.2383 412.598 72.2383C413.994 72.2383 415.195 71.9697 416.201 71.4326C417.217 70.8857 417.993 70.1191 418.53 69.1328C419.077 68.1367 419.351 66.9648 419.351 65.6172L419.351 51.8623L420.508 51.8623L420.508 65.6611C420.508 67.2041 420.186 68.5518 419.541 69.7041C418.896 70.8467 417.983 71.7354 416.802 72.3701C415.63 72.9951 414.229 73.3076 412.598 73.3076ZM424.258 73L424.258 51.8623L431.099 51.8623C432.505 51.8623 433.711 52.1064 434.717 52.5947C435.732 53.083 436.514 53.7813 437.061 54.6895C437.607 55.5879 437.881 56.6572 437.881 57.8975L437.881 57.9268C437.881 59.4404 437.446 60.7148 436.577 61.75C435.718 62.7754 434.521 63.4443 432.988 63.7568L438.423 73L437.09 73L431.802 63.9326C431.694 63.9424 431.562 63.9522 431.406 63.9619C431.25 63.9619 431.113 63.9619 430.996 63.9619L425.4 63.9619L425.4 73L424.258 73ZM425.4 62.9219L431.04 62.9219C432.808 62.9219 434.194 62.4824 435.2 61.6035C436.206 60.7148 436.709 59.4941 436.709 57.9414L436.709 57.9121C436.709 56.3398 436.201 55.1143 435.186 54.2354C434.18 53.3564 432.788 52.917 431.011 52.917L425.4 52.917L425.4 62.9219ZM441.074 73L441.074 51.8623L453.394 51.8623L453.394 52.917L442.217 52.917L442.217 61.6328L452.852 61.6328L452.852 62.6875L442.217 62.6875L442.217 71.9453L453.394 71.9453L453.394 73L441.074 73ZM461.348 73L455.444 51.8623L456.66 51.8623L461.875 71.0664L461.904 71.0664L467.485 51.8623L468.599 51.8623L474.18 71.0664L474.209 71.0664L479.438 51.8623L480.64 51.8623L474.736 73L473.696 73L468.057 53.957L468.027 53.957L462.388 73L461.348 73ZM483.115 73L483.115 51.8623L489.648 51.8623C491.787 51.8623 493.604 52.2773 495.098 53.1074C496.592 53.9375 497.734 55.1387 498.525 56.7109C499.326 58.2734 499.727 60.1729 499.727 62.4092L499.727 62.4385C499.727 64.6846 499.331 66.5938 498.54 68.166C497.749 69.7383 496.602 70.9395 495.098 71.7695C493.594 72.5898 491.777 73 489.648 73L483.115 73ZM484.258 71.9453L489.59 71.9453C491.514 71.9453 493.14 71.5791 494.468 70.8467C495.806 70.1045 496.821 69.0254 497.515 67.6094C498.208 66.1934 498.555 64.4746 498.555 62.4531L498.555 62.4238C498.555 60.3926 498.208 58.6689 497.515 57.2529C496.821 55.8369 495.806 54.7627 494.468 54.0303C493.14 53.2881 491.514 52.917 489.59 52.917L484.258 52.917L484.258 71.9453ZM502.598 73L502.598 51.8623L503.784 51.8623L518.345 72.5605L516.733 71.0664L517.349 71.0664L517.349 51.8623L518.491 51.8623L518.491 73L517.305 73L502.744 52.3018L504.355 53.7959L503.74 53.7959L503.74 73L502.598 73ZM522.256 73L522.256 51.8623L523.398 51.8623L523.398 73L522.256 73ZM527.148 73L527.148 51.8623L528.335 51.8623L542.896 72.5605L541.284 71.0664L541.899 71.0664L541.899 51.8623L543.042 51.8623L543.042 73L541.855 73L527.295 52.3018L528.906 53.7959L528.291 53.7959L528.291 73L527.148 73ZM555.332 73.3076C553.437 73.3076 551.782 72.8584 550.366 71.96C548.95 71.0518 547.852 69.7822 547.07 68.1514C546.299 66.5205 545.913 64.6113 545.913 62.4238L545.913 62.3945C545.913 60.1875 546.299 58.2734 547.07 56.6523C547.842 55.0313 548.931 53.7764 550.337 52.8877C551.753 51.999 553.418 51.5547 555.332 51.5547C556.777 51.5547 558.066 51.8379 559.199 52.4043C560.332 52.9609 561.265 53.7373 561.997 54.7334C562.729 55.7295 563.223 56.877 563.477 58.1758L563.506 58.3223L562.363 58.3223L562.319 58.1318C562.056 57.0576 561.611 56.1104 560.986 55.29C560.361 54.46 559.57 53.8105 558.613 53.3418C557.666 52.8633 556.572 52.624 555.332 52.624C553.652 52.624 552.192 53.0244 550.952 53.8252C549.722 54.626 548.77 55.7588 548.096 57.2236C547.422 58.6885 547.085 60.4121 547.085 62.3945L547.085 62.4238C547.085 64.3965 547.427 66.1201 548.11 67.5947C548.794 69.0596 549.751 70.2022 550.981 71.0225C552.222 71.833 553.672 72.2383 555.332 72.2383C556.572 72.2383 557.666 72.0039 558.613 71.5352C559.561 71.0566 560.352 70.4023 560.986 69.5723C561.621 68.7324 562.07 67.7656 562.334 66.6719L562.363 66.54L563.506 66.54L563.477 66.6865C563.223 67.9854 562.729 69.1328 561.997 70.1289C561.265 71.125 560.332 71.9063 559.199 72.4727C558.066 73.0293 556.777 73.3076 555.332 73.3076ZM566.23 73L566.23 51.8623L578.55 51.8623L578.55 52.917L567.373 52.917L567.373 61.6328L578.008 61.6328L578.008 62.6875L567.373 62.6875L567.373 71.9453L578.55 71.9453L578.55 73L566.23 73Z" fill="#58BDF6"/>
<path opacity="0.7" d="M239.745 168.308C238.192 168.308 236.859 167.868 235.746 166.989C234.633 166.101 233.773 164.846 233.168 163.225C232.572 161.604 232.274 159.68 232.274 157.453L232.274 157.409C232.274 155.183 232.572 153.259 233.168 151.638C233.773 150.007 234.633 148.752 235.746 147.873C236.859 146.994 238.192 146.555 239.745 146.555C241.298 146.555 242.631 146.999 243.744 147.888C244.857 148.767 245.712 150.017 246.308 151.638C246.913 153.259 247.216 155.183 247.216 157.409L247.216 157.453C247.216 159.689 246.913 161.618 246.308 163.239C245.712 164.86 244.857 166.11 243.744 166.989C242.631 167.868 241.298 168.308 239.745 168.308ZM239.745 167.268C241.063 167.268 242.191 166.867 243.129 166.066C244.076 165.266 244.804 164.133 245.312 162.668C245.819 161.193 246.073 159.455 246.073 157.453L246.073 157.409C246.073 155.388 245.819 153.645 245.312 152.18C244.804 150.715 244.076 149.587 243.129 148.796C242.191 147.995 241.063 147.595 239.745 147.595C238.417 147.595 237.279 147.995 236.332 148.796C235.395 149.597 234.672 150.734 234.164 152.209C233.666 153.674 233.417 155.407 233.417 157.409L233.417 157.453C233.417 159.465 233.666 161.203 234.164 162.668C234.672 164.133 235.395 165.266 236.332 166.066C237.279 166.867 238.417 167.268 239.745 167.268ZM248.974 168L256.854 156.984L256.532 158.01L256.532 157.38L249.003 146.862L250.38 146.862L257.25 156.486L257.88 156.486L257.001 156.955L264.193 146.862L265.541 146.862L257.968 157.409L257.968 158.024L257.646 157.014L265.497 168L264.105 168L257.265 158.391L256.635 158.391L257.514 157.937L250.307 168L248.974 168ZM268.031 168L268.031 146.862L280.277 146.862L280.277 147.917L269.174 147.917L269.174 156.765L279.398 156.765L279.398 157.819L269.174 157.819L269.174 168L268.031 168ZM279.618 168L287.704 146.862L288.583 146.862L288.583 148.342L288.261 148.342L280.849 168L279.618 168ZM282.914 160.939L283.295 159.929L293.256 159.929L293.622 160.939L282.914 160.939ZM295.717 168L288.305 148.342L288.305 146.862L288.861 146.862L296.933 168L295.717 168ZM299.145 168L299.145 146.862L300.287 146.862L300.287 168L299.145 168ZM304.037 168L304.037 146.862L310.878 146.862C312.284 146.862 313.49 147.106 314.496 147.595C315.512 148.083 316.293 148.781 316.84 149.689C317.387 150.588 317.66 151.657 317.66 152.897L317.66 152.927C317.66 154.44 317.226 155.715 316.356 156.75C315.497 157.775 314.301 158.444 312.768 158.757L318.202 168L316.869 168L311.581 158.933C311.474 158.942 311.342 158.952 311.186 158.962C311.029 158.962 310.893 158.962 310.775 158.962L305.18 158.962L305.18 168L304.037 168ZM305.18 157.922L310.819 157.922C312.587 157.922 313.974 157.482 314.979 156.604C315.985 155.715 316.488 154.494 316.488 152.941L316.488 152.912C316.488 151.34 315.98 150.114 314.965 149.235C313.959 148.356 312.567 147.917 310.79 147.917L305.18 147.917L305.18 157.922ZM326.273 168L326.273 158.786L318.583 146.862L319.931 146.862L326.815 157.614L326.874 157.614L333.759 146.862L335.106 146.862L327.416 158.786L327.416 168L326.273 168ZM337.289 168L337.289 146.862L344.13 146.862C345.536 146.862 346.742 147.106 347.748 147.595C348.764 148.083 349.545 148.781 350.092 149.689C350.639 150.588 350.912 151.657 350.912 152.897L350.912 152.927C350.912 154.44 350.478 155.715 349.608 156.75C348.749 157.775 347.553 158.444 346.02 158.757L351.454 168L350.121 168L344.833 158.933C344.726 158.942 344.594 158.952 344.437 158.962C344.281 158.962 344.145 158.962 344.027 158.962L338.432 158.962L338.432 168L337.289 168ZM338.432 157.922L344.071 157.922C345.839 157.922 347.226 157.482 348.231 156.604C349.237 155.715 349.74 154.494 349.74 152.941L349.74 152.912C349.74 151.34 349.232 150.114 348.217 149.235C347.211 148.356 345.819 147.917 344.042 147.917L338.432 147.917L338.432 157.922ZM358.471 168.308C357.553 168.308 356.752 168.176 356.068 167.912C355.385 167.639 354.813 167.263 354.354 166.784C353.905 166.306 353.554 165.754 353.3 165.129C353.056 164.504 352.904 163.845 352.846 163.151L352.831 162.946L353.988 162.946L354.003 163.122C354.062 163.845 354.252 164.519 354.574 165.144C354.896 165.769 355.375 166.276 356.01 166.667C356.645 167.048 357.465 167.238 358.471 167.238C359.936 167.238 361.078 166.799 361.898 165.92C362.729 165.041 363.144 163.825 363.144 162.272L363.144 146.862L364.286 146.862L364.286 162.316C364.286 163.547 364.052 164.611 363.583 165.51C363.114 166.408 362.445 167.102 361.576 167.59C360.707 168.068 359.672 168.308 358.471 168.308ZM372.68 168L366.776 146.862L367.992 146.862L373.207 166.066L373.236 166.066L378.817 146.862L379.931 146.862L385.512 166.066L385.541 166.066L390.771 146.862L391.972 146.862L386.068 168L385.028 168L379.389 148.957L379.359 148.957L373.72 168L372.68 168ZM394.447 168L394.447 146.862L406.693 146.862L406.693 147.917L395.59 147.917L395.59 156.765L405.814 156.765L405.814 157.819L395.59 157.819L395.59 168L394.447 168ZM417.475 168.308C415.854 168.308 414.452 167.99 413.271 167.355C412.089 166.721 411.181 165.832 410.546 164.689C409.911 163.547 409.594 162.204 409.594 160.661L409.594 146.862L410.736 146.862L410.736 160.617C410.736 161.965 411.01 163.137 411.557 164.133C412.104 165.119 412.88 165.886 413.886 166.433C414.892 166.97 416.088 167.238 417.475 167.238C418.871 167.238 420.072 166.97 421.078 166.433C422.094 165.886 422.87 165.119 423.407 164.133C423.954 163.137 424.228 161.965 424.228 160.617L424.228 146.862L425.385 146.862L425.385 160.661C425.385 162.204 425.062 163.552 424.418 164.704C423.773 165.847 422.86 166.735 421.679 167.37C420.507 167.995 419.105 168.308 417.475 168.308ZM434.979 168L434.979 147.917L427.567 147.917L427.567 146.862L443.534 146.862L443.534 147.917L436.122 147.917L436.122 168L434.979 168ZM453.598 168.308C451.977 168.308 450.575 167.99 449.394 167.355C448.212 166.721 447.304 165.832 446.669 164.689C446.034 163.547 445.717 162.204 445.717 160.661L445.717 146.862L446.859 146.862L446.859 160.617C446.859 161.965 447.133 163.137 447.68 164.133C448.227 165.119 449.003 165.886 450.009 166.433C451.015 166.97 452.211 167.238 453.598 167.238C454.994 167.238 456.195 166.97 457.201 166.433C458.217 165.886 458.993 165.119 459.53 164.133C460.077 163.137 460.351 161.965 460.351 160.617L460.351 146.862L461.508 146.862L461.508 160.661C461.508 162.204 461.186 163.552 460.541 164.704C459.896 165.847 458.983 166.735 457.802 167.37C456.63 167.995 455.229 168.308 453.598 168.308ZM465.258 168L465.258 146.862L472.099 146.862C473.505 146.862 474.711 147.106 475.717 147.595C476.732 148.083 477.514 148.781 478.061 149.689C478.607 150.588 478.881 151.657 478.881 152.897L478.881 152.927C478.881 154.44 478.446 155.715 477.577 156.75C476.718 157.775 475.521 158.444 473.988 158.757L479.423 168L478.09 168L472.802 158.933C472.694 158.942 472.562 158.952 472.406 158.962C472.25 158.962 472.113 158.962 471.996 158.962L466.4 158.962L466.4 168L465.258 168ZM466.4 157.922L472.04 157.922C473.808 157.922 475.194 157.482 476.2 156.604C477.206 155.715 477.709 154.494 477.709 152.941L477.709 152.912C477.709 151.34 477.201 150.114 476.186 149.235C475.18 148.356 473.788 147.917 472.011 147.917L466.4 147.917L466.4 157.922ZM482.074 168L482.074 146.862L494.394 146.862L494.394 147.917L483.217 147.917L483.217 156.633L493.852 156.633L493.852 157.688L483.217 157.688L483.217 166.945L494.394 166.945L494.394 168L482.074 168ZM502.348 168L496.444 146.862L497.66 146.862L502.875 166.066L502.904 166.066L508.485 146.862L509.599 146.862L515.18 166.066L515.209 166.066L520.438 146.862L521.64 146.862L515.736 168L514.696 168L509.057 148.957L509.027 148.957L503.388 168L502.348 168ZM524.115 168L524.115 146.862L530.648 146.862C532.787 146.862 534.604 147.277 536.098 148.107C537.592 148.938 538.734 150.139 539.525 151.711C540.326 153.273 540.727 155.173 540.727 157.409L540.727 157.438C540.727 159.685 540.331 161.594 539.54 163.166C538.749 164.738 537.602 165.939 536.098 166.77C534.594 167.59 532.777 168 530.648 168L524.115 168ZM525.258 166.945L530.59 166.945C532.514 166.945 534.14 166.579 535.468 165.847C536.806 165.104 537.821 164.025 538.515 162.609C539.208 161.193 539.555 159.475 539.555 157.453L539.555 157.424C539.555 155.393 539.208 153.669 538.515 152.253C537.821 150.837 536.806 149.763 535.468 149.03C534.14 148.288 532.514 147.917 530.59 147.917L525.258 147.917L525.258 166.945ZM543.598 168L543.598 146.862L544.784 146.862L559.345 167.561L557.733 166.066L558.349 166.066L558.349 146.862L559.491 146.862L559.491 168L558.305 168L543.744 147.302L545.355 148.796L544.74 148.796L544.74 168L543.598 168ZM563.256 168L563.256 146.862L564.398 146.862L564.398 168L563.256 168ZM568.148 168L568.148 146.862L569.335 146.862L583.896 167.561L582.284 166.066L582.899 166.066L582.899 146.862L584.042 146.862L584.042 168L582.855 168L568.295 147.302L569.906 148.796L569.291 148.796L569.291 168L568.148 168ZM596.332 168.308C594.437 168.308 592.782 167.858 591.366 166.96C589.95 166.052 588.852 164.782 588.07 163.151C587.299 161.521 586.913 159.611 586.913 157.424L586.913 157.395C586.913 155.188 587.299 153.273 588.07 151.652C588.842 150.031 589.931 148.776 591.337 147.888C592.753 146.999 594.418 146.555 596.332 146.555C597.777 146.555 599.066 146.838 600.199 147.404C601.332 147.961 602.265 148.737 602.997 149.733C603.729 150.729 604.223 151.877 604.477 153.176L604.506 153.322L603.363 153.322L603.319 153.132C603.056 152.058 602.611 151.11 601.986 150.29C601.361 149.46 600.57 148.811 599.613 148.342C598.666 147.863 597.572 147.624 596.332 147.624C594.652 147.624 593.192 148.024 591.952 148.825C590.722 149.626 589.77 150.759 589.096 152.224C588.422 153.688 588.085 155.412 588.085 157.395L588.085 157.424C588.085 159.396 588.427 161.12 589.11 162.595C589.794 164.06 590.751 165.202 591.981 166.022C593.222 166.833 594.672 167.238 596.332 167.238C597.572 167.238 598.666 167.004 599.613 166.535C600.561 166.057 601.352 165.402 601.986 164.572C602.621 163.732 603.07 162.766 603.334 161.672L603.363 161.54L604.506 161.54L604.477 161.687C604.223 162.985 603.729 164.133 602.997 165.129C602.265 166.125 601.332 166.906 600.199 167.473C599.066 168.029 597.777 168.308 596.332 168.308ZM607.23 168L607.23 146.862L619.55 146.862L619.55 147.917L608.373 147.917L608.373 156.633L619.008 156.633L619.008 157.688L608.373 157.688L608.373 166.945L619.55 166.945L619.55 168L607.23 168Z" fill="#58BDF6"/>
<path opacity="0.7" d="M110.745 223.308C109.192 223.308 107.859 222.868 106.746 221.989C105.633 221.101 104.773 219.846 104.168 218.225C103.572 216.604 103.274 214.68 103.274 212.453L103.274 212.409C103.274 210.183 103.572 208.259 104.168 206.638C104.773 205.007 105.633 203.752 106.746 202.873C107.859 201.994 109.192 201.555 110.745 201.555C112.298 201.555 113.631 201.999 114.744 202.888C115.857 203.767 116.712 205.017 117.308 206.638C117.913 208.259 118.216 210.183 118.216 212.409L118.216 212.453C118.216 214.689 117.913 216.618 117.308 218.239C116.712 219.86 115.857 221.11 114.744 221.989C113.631 222.868 112.298 223.308 110.745 223.308ZM110.745 222.268C112.063 222.268 113.191 221.867 114.129 221.066C115.076 220.266 115.804 219.133 116.312 217.668C116.819 216.193 117.073 214.455 117.073 212.453L117.073 212.409C117.073 210.388 116.819 208.645 116.312 207.18C115.804 205.715 115.076 204.587 114.129 203.796C113.191 202.995 112.063 202.595 110.745 202.595C109.417 202.595 108.279 202.995 107.332 203.796C106.395 204.597 105.672 205.734 105.164 207.209C104.666 208.674 104.417 210.407 104.417 212.409L104.417 212.453C104.417 214.465 104.666 216.203 105.164 217.668C105.672 219.133 106.395 220.266 107.332 221.066C108.279 221.867 109.417 222.268 110.745 222.268ZM119.974 223L127.854 211.984L127.532 213.01L127.532 212.38L120.003 201.862L121.38 201.862L128.25 211.486L128.88 211.486L128.001 211.955L135.193 201.862L136.541 201.862L128.968 212.409L128.968 213.024L128.646 212.014L136.497 223L135.105 223L128.265 213.391L127.635 213.391L128.514 212.937L121.307 223L119.974 223ZM139.031 223L139.031 201.862L151.277 201.862L151.277 202.917L140.174 202.917L140.174 211.765L150.398 211.765L150.398 212.819L140.174 212.819L140.174 223L139.031 223ZM150.618 223L158.704 201.862L159.583 201.862L159.583 203.342L159.261 203.342L151.849 223L150.618 223ZM153.914 215.939L154.295 214.929L164.256 214.929L164.622 215.939L153.914 215.939ZM166.717 223L159.305 203.342L159.305 201.862L159.861 201.862L167.933 223L166.717 223ZM170.145 223L170.145 201.862L171.287 201.862L171.287 223L170.145 223ZM175.037 223L175.037 201.862L181.878 201.862C183.284 201.862 184.49 202.106 185.496 202.595C186.512 203.083 187.293 203.781 187.84 204.689C188.387 205.588 188.66 206.657 188.66 207.897L188.66 207.927C188.66 209.44 188.226 210.715 187.356 211.75C186.497 212.775 185.301 213.444 183.768 213.757L189.202 223L187.869 223L182.581 213.933C182.474 213.942 182.342 213.952 182.186 213.962C182.029 213.962 181.893 213.962 181.775 213.962L176.18 213.962L176.18 223L175.037 223ZM176.18 212.922L181.819 212.922C183.587 212.922 184.974 212.482 185.979 211.604C186.985 210.715 187.488 209.494 187.488 207.941L187.488 207.912C187.488 206.34 186.98 205.114 185.965 204.235C184.959 203.356 183.567 202.917 181.79 202.917L176.18 202.917L176.18 212.922ZM197.273 223L197.273 213.786L189.583 201.862L190.931 201.862L197.815 212.614L197.874 212.614L204.759 201.862L206.106 201.862L198.416 213.786L198.416 223L197.273 223ZM208.289 223L208.289 201.862L215.13 201.862C216.536 201.862 217.742 202.106 218.748 202.595C219.764 203.083 220.545 203.781 221.092 204.689C221.639 205.588 221.912 206.657 221.912 207.897L221.912 207.927C221.912 209.44 221.478 210.715 220.608 211.75C219.749 212.775 218.553 213.444 217.02 213.757L222.454 223L221.121 223L215.833 213.933C215.726 213.942 215.594 213.952 215.437 213.962C215.281 213.962 215.145 213.962 215.027 213.962L209.432 213.962L209.432 223L208.289 223ZM209.432 212.922L215.071 212.922C216.839 212.922 218.226 212.482 219.231 211.604C220.237 210.715 220.74 209.494 220.74 207.941L220.74 207.912C220.74 206.34 220.232 205.114 219.217 204.235C218.211 203.356 216.819 202.917 215.042 202.917L209.432 202.917L209.432 212.922ZM229.471 223.308C228.553 223.308 227.752 223.176 227.068 222.912C226.385 222.639 225.813 222.263 225.354 221.784C224.905 221.306 224.554 220.754 224.3 220.129C224.056 219.504 223.904 218.845 223.846 218.151L223.831 217.946L224.988 217.946L225.003 218.122C225.062 218.845 225.252 219.519 225.574 220.144C225.896 220.769 226.375 221.276 227.01 221.667C227.645 222.048 228.465 222.238 229.471 222.238C230.936 222.238 232.078 221.799 232.898 220.92C233.729 220.041 234.144 218.825 234.144 217.272L234.144 201.862L235.286 201.862L235.286 217.316C235.286 218.547 235.052 219.611 234.583 220.51C234.114 221.408 233.445 222.102 232.576 222.59C231.707 223.068 230.672 223.308 229.471 223.308ZM243.68 223L237.776 201.862L238.992 201.862L244.207 221.066L244.236 221.066L249.817 201.862L250.931 201.862L256.512 221.066L256.541 221.066L261.771 201.862L262.972 201.862L257.068 223L256.028 223L250.389 203.957L250.359 203.957L244.72 223L243.68 223ZM265.447 223L265.447 201.862L277.693 201.862L277.693 202.917L266.59 202.917L266.59 211.765L276.814 211.765L276.814 212.819L266.59 212.819L266.59 223L265.447 223ZM288.475 223.308C286.854 223.308 285.452 222.99 284.271 222.355C283.089 221.721 282.181 220.832 281.546 219.689C280.911 218.547 280.594 217.204 280.594 215.661L280.594 201.862L281.736 201.862L281.736 215.617C281.736 216.965 282.01 218.137 282.557 219.133C283.104 220.119 283.88 220.886 284.886 221.433C285.892 221.97 287.088 222.238 288.475 222.238C289.871 222.238 291.072 221.97 292.078 221.433C293.094 220.886 293.87 220.119 294.407 219.133C294.954 218.137 295.228 216.965 295.228 215.617L295.228 201.862L296.385 201.862L296.385 215.661C296.385 217.204 296.062 218.552 295.418 219.704C294.773 220.847 293.86 221.735 292.679 222.37C291.507 222.995 290.105 223.308 288.475 223.308ZM305.979 223L305.979 202.917L298.567 202.917L298.567 201.862L314.534 201.862L314.534 202.917L307.122 202.917L307.122 223L305.979 223ZM324.598 223.308C322.977 223.308 321.575 222.99 320.394 222.355C319.212 221.721 318.304 220.832 317.669 219.689C317.034 218.547 316.717 217.204 316.717 215.661L316.717 201.862L317.859 201.862L317.859 215.617C317.859 216.965 318.133 218.137 318.68 219.133C319.227 220.119 320.003 220.886 321.009 221.433C322.015 221.97 323.211 222.238 324.598 222.238C325.994 222.238 327.195 221.97 328.201 221.433C329.217 220.886 329.993 220.119 330.53 219.133C331.077 218.137 331.351 216.965 331.351 215.617L331.351 201.862L332.508 201.862L332.508 215.661C332.508 217.204 332.186 218.552 331.541 219.704C330.896 220.847 329.983 221.735 328.802 222.37C327.63 222.995 326.229 223.308 324.598 223.308ZM336.258 223L336.258 201.862L343.099 201.862C344.505 201.862 345.711 202.106 346.717 202.595C347.732 203.083 348.514 203.781 349.061 204.689C349.607 205.588 349.881 206.657 349.881 207.897L349.881 207.927C349.881 209.44 349.446 210.715 348.577 211.75C347.718 212.775 346.521 213.444 344.988 213.757L350.423 223L349.09 223L343.802 213.933C343.694 213.942 343.562 213.952 343.406 213.962C343.25 213.962 343.113 213.962 342.996 213.962L337.4 213.962L337.4 223L336.258 223ZM337.4 212.922L343.04 212.922C344.808 212.922 346.194 212.482 347.2 211.604C348.206 210.715 348.709 209.494 348.709 207.941L348.709 207.912C348.709 206.34 348.201 205.114 347.186 204.235C346.18 203.356 344.788 202.917 343.011 202.917L337.4 202.917L337.4 212.922ZM353.074 223L353.074 201.862L365.394 201.862L365.394 202.917L354.217 202.917L354.217 211.633L364.852 211.633L364.852 212.688L354.217 212.688L354.217 221.945L365.394 221.945L365.394 223L353.074 223ZM373.348 223L367.444 201.862L368.66 201.862L373.875 221.066L373.904 221.066L379.485 201.862L380.599 201.862L386.18 221.066L386.209 221.066L391.438 201.862L392.64 201.862L386.736 223L385.696 223L380.057 203.957L380.027 203.957L374.388 223L373.348 223ZM395.115 223L395.115 201.862L401.648 201.862C403.787 201.862 405.604 202.277 407.098 203.107C408.592 203.938 409.734 205.139 410.525 206.711C411.326 208.273 411.727 210.173 411.727 212.409L411.727 212.438C411.727 214.685 411.331 216.594 410.54 218.166C409.749 219.738 408.602 220.939 407.098 221.77C405.594 222.59 403.777 223 401.648 223L395.115 223ZM396.258 221.945L401.59 221.945C403.514 221.945 405.14 221.579 406.468 220.847C407.806 220.104 408.821 219.025 409.515 217.609C410.208 216.193 410.555 214.475 410.555 212.453L410.555 212.424C410.555 210.393 410.208 208.669 409.515 207.253C408.821 205.837 407.806 204.763 406.468 204.03C405.14 203.288 403.514 202.917 401.59 202.917L396.258 202.917L396.258 221.945ZM414.598 223L414.598 201.862L415.784 201.862L430.345 222.561L428.733 221.066L429.349 221.066L429.349 201.862L430.491 201.862L430.491 223L429.305 223L414.744 202.302L416.355 203.796L415.74 203.796L415.74 223L414.598 223ZM434.256 223L434.256 201.862L435.398 201.862L435.398 223L434.256 223ZM439.148 223L439.148 201.862L440.335 201.862L454.896 222.561L453.284 221.066L453.899 221.066L453.899 201.862L455.042 201.862L455.042 223L453.855 223L439.295 202.302L440.906 203.796L440.291 203.796L440.291 223L439.148 223Z" fill="#58BDF6"/>
<path opacity="0.7" d="M266.745 269.308C265.192 269.308 263.859 268.868 262.746 267.989C261.633 267.101 260.773 265.846 260.168 264.225C259.572 262.604 259.274 260.68 259.274 258.453L259.274 258.409C259.274 256.183 259.572 254.259 260.168 252.638C260.773 251.007 261.633 249.752 262.746 248.873C263.859 247.994 265.192 247.555 266.745 247.555C268.298 247.555 269.631 247.999 270.744 248.888C271.857 249.767 272.712 251.017 273.308 252.638C273.913 254.259 274.216 256.183 274.216 258.409L274.216 258.453C274.216 260.689 273.913 262.618 273.308 264.239C272.712 265.86 271.857 267.11 270.744 267.989C269.631 268.868 268.298 269.308 266.745 269.308ZM266.745 268.268C268.063 268.268 269.191 267.867 270.129 267.066C271.076 266.266 271.804 265.133 272.312 263.668C272.819 262.193 273.073 260.455 273.073 258.453L273.073 258.409C273.073 256.388 272.819 254.645 272.312 253.18C271.804 251.715 271.076 250.587 270.129 249.796C269.191 248.995 268.063 248.595 266.745 248.595C265.417 248.595 264.279 248.995 263.332 249.796C262.395 250.597 261.672 251.734 261.164 253.209C260.666 254.674 260.417 256.407 260.417 258.409L260.417 258.453C260.417 260.465 260.666 262.203 261.164 263.668C261.672 265.133 262.395 266.266 263.332 267.066C264.279 267.867 265.417 268.268 266.745 268.268ZM275.974 269L283.854 257.984L283.532 259.01L283.532 258.38L276.003 247.862L277.38 247.862L284.25 257.486L284.88 257.486L284.001 257.955L291.193 247.862L292.541 247.862L284.968 258.409L284.968 259.024L284.646 258.014L292.497 269L291.105 269L284.265 259.391L283.635 259.391L284.514 258.937L277.307 269L275.974 269ZM295.031 269L295.031 247.862L307.277 247.862L307.277 248.917L296.174 248.917L296.174 257.765L306.398 257.765L306.398 258.819L296.174 258.819L296.174 269L295.031 269ZM306.618 269L314.704 247.862L315.583 247.862L315.583 249.342L315.261 249.342L307.849 269L306.618 269ZM309.914 261.939L310.295 260.929L320.256 260.929L320.622 261.939L309.914 261.939ZM322.717 269L315.305 249.342L315.305 247.862L315.861 247.862L323.933 269L322.717 269ZM326.145 269L326.145 247.862L327.287 247.862L327.287 269L326.145 269ZM331.037 269L331.037 247.862L337.878 247.862C339.284 247.862 340.49 248.106 341.496 248.595C342.512 249.083 343.293 249.781 343.84 250.689C344.387 251.588 344.66 252.657 344.66 253.897L344.66 253.927C344.66 255.44 344.226 256.715 343.356 257.75C342.497 258.775 341.301 259.444 339.768 259.757L345.202 269L343.869 269L338.581 259.933C338.474 259.942 338.342 259.952 338.186 259.962C338.029 259.962 337.893 259.962 337.775 259.962L332.18 259.962L332.18 269L331.037 269ZM332.18 258.922L337.819 258.922C339.587 258.922 340.974 258.482 341.979 257.604C342.985 256.715 343.488 255.494 343.488 253.941L343.488 253.912C343.488 252.34 342.98 251.114 341.965 250.235C340.959 249.356 339.567 248.917 337.79 248.917L332.18 248.917L332.18 258.922ZM353.273 269L353.273 259.786L345.583 247.862L346.931 247.862L353.815 258.614L353.874 258.614L360.759 247.862L362.106 247.862L354.416 259.786L354.416 269L353.273 269ZM364.289 269L364.289 247.862L371.13 247.862C372.536 247.862 373.742 248.106 374.748 248.595C375.764 249.083 376.545 249.781 377.092 250.689C377.639 251.588 377.912 252.657 377.912 253.897L377.912 253.927C377.912 255.44 377.478 256.715 376.608 257.75C375.749 258.775 374.553 259.444 373.02 259.757L378.454 269L377.121 269L371.833 259.933C371.726 259.942 371.594 259.952 371.437 259.962C371.281 259.962 371.145 259.962 371.027 259.962L365.432 259.962L365.432 269L364.289 269ZM365.432 258.922L371.071 258.922C372.839 258.922 374.226 258.482 375.231 257.604C376.237 256.715 376.74 255.494 376.74 253.941L376.74 253.912C376.74 252.34 376.232 251.114 375.217 250.235C374.211 249.356 372.819 248.917 371.042 248.917L365.432 248.917L365.432 258.922ZM385.471 269.308C384.553 269.308 383.752 269.176 383.068 268.912C382.385 268.639 381.813 268.263 381.354 267.784C380.905 267.306 380.554 266.754 380.3 266.129C380.056 265.504 379.904 264.845 379.846 264.151L379.831 263.946L380.988 263.946L381.003 264.122C381.062 264.845 381.252 265.519 381.574 266.144C381.896 266.769 382.375 267.276 383.01 267.667C383.645 268.048 384.465 268.238 385.471 268.238C386.936 268.238 388.078 267.799 388.898 266.92C389.729 266.041 390.144 264.825 390.144 263.272L390.144 247.862L391.286 247.862L391.286 263.316C391.286 264.547 391.052 265.611 390.583 266.51C390.114 267.408 389.445 268.102 388.576 268.59C387.707 269.068 386.672 269.308 385.471 269.308ZM399.68 269L393.776 247.862L394.992 247.862L400.207 267.066L400.236 267.066L405.817 247.862L406.931 247.862L412.512 267.066L412.541 267.066L417.771 247.862L418.972 247.862L413.068 269L412.028 269L406.389 249.957L406.359 249.957L400.72 269L399.68 269ZM421.447 269L421.447 247.862L433.693 247.862L433.693 248.917L422.59 248.917L422.59 257.765L432.814 257.765L432.814 258.819L422.59 258.819L422.59 269L421.447 269ZM444.475 269.308C442.854 269.308 441.452 268.99 440.271 268.355C439.089 267.721 438.181 266.832 437.546 265.689C436.911 264.547 436.594 263.204 436.594 261.661L436.594 247.862L437.736 247.862L437.736 261.617C437.736 262.965 438.01 264.137 438.557 265.133C439.104 266.119 439.88 266.886 440.886 267.433C441.892 267.97 443.088 268.238 444.475 268.238C445.871 268.238 447.072 267.97 448.078 267.433C449.094 266.886 449.87 266.119 450.407 265.133C450.954 264.137 451.228 262.965 451.228 261.617L451.228 247.862L452.385 247.862L452.385 261.661C452.385 263.204 452.062 264.552 451.418 265.704C450.773 266.847 449.86 267.735 448.679 268.37C447.507 268.995 446.105 269.308 444.475 269.308ZM461.979 269L461.979 248.917L454.567 248.917L454.567 247.862L470.534 247.862L470.534 248.917L463.122 248.917L463.122 269L461.979 269ZM480.598 269.308C478.977 269.308 477.575 268.99 476.394 268.355C475.212 267.721 474.304 266.832 473.669 265.689C473.034 264.547 472.717 263.204 472.717 261.661L472.717 247.862L473.859 247.862L473.859 261.617C473.859 262.965 474.133 264.137 474.68 265.133C475.227 266.119 476.003 266.886 477.009 267.433C478.015 267.97 479.211 268.238 480.598 268.238C481.994 268.238 483.195 267.97 484.201 267.433C485.217 266.886 485.993 266.119 486.53 265.133C487.077 264.137 487.351 262.965 487.351 261.617L487.351 247.862L488.508 247.862L488.508 261.661C488.508 263.204 488.186 264.552 487.541 265.704C486.896 266.847 485.983 267.735 484.802 268.37C483.63 268.995 482.229 269.308 480.598 269.308ZM492.258 269L492.258 247.862L499.099 247.862C500.505 247.862 501.711 248.106 502.717 248.595C503.732 249.083 504.514 249.781 505.061 250.689C505.607 251.588 505.881 252.657 505.881 253.897L505.881 253.927C505.881 255.44 505.446 256.715 504.577 257.75C503.718 258.775 502.521 259.444 500.988 259.757L506.423 269L505.09 269L499.802 259.933C499.694 259.942 499.562 259.952 499.406 259.962C499.25 259.962 499.113 259.962 498.996 259.962L493.4 259.962L493.4 269L492.258 269ZM493.4 258.922L499.04 258.922C500.808 258.922 502.194 258.482 503.2 257.604C504.206 256.715 504.709 255.494 504.709 253.941L504.709 253.912C504.709 252.34 504.201 251.114 503.186 250.235C502.18 249.356 500.788 248.917 499.011 248.917L493.4 248.917L493.4 258.922ZM509.074 269L509.074 247.862L521.394 247.862L521.394 248.917L510.217 248.917L510.217 257.633L520.852 257.633L520.852 258.688L510.217 258.688L510.217 267.945L521.394 267.945L521.394 269L509.074 269ZM529.348 269L523.444 247.862L524.66 247.862L529.875 267.066L529.904 267.066L535.485 247.862L536.599 247.862L542.18 267.066L542.209 267.066L547.438 247.862L548.64 247.862L542.736 269L541.696 269L536.057 249.957L536.027 249.957L530.388 269L529.348 269ZM551.115 269L551.115 247.862L557.648 247.862C559.787 247.862 561.604 248.277 563.098 249.107C564.592 249.938 565.734 251.139 566.525 252.711C567.326 254.273 567.727 256.173 567.727 258.409L567.727 258.438C567.727 260.685 567.331 262.594 566.54 264.166C565.749 265.738 564.602 266.939 563.098 267.77C561.594 268.59 559.777 269 557.648 269L551.115 269ZM552.258 267.945L557.59 267.945C559.514 267.945 561.14 267.579 562.468 266.847C563.806 266.104 564.821 265.025 565.515 263.609C566.208 262.193 566.555 260.475 566.555 258.453L566.555 258.424C566.555 256.393 566.208 254.669 565.515 253.253C564.821 251.837 563.806 250.763 562.468 250.03C561.14 249.288 559.514 248.917 557.59 248.917L552.258 248.917L552.258 267.945ZM570.598 269L570.598 247.862L571.784 247.862L586.345 268.561L584.733 267.066L585.349 267.066L585.349 247.862L586.491 247.862L586.491 269L585.305 269L570.744 248.302L572.355 249.796L571.74 249.796L571.74 269L570.598 269ZM590.256 269L590.256 247.862L591.398 247.862L591.398 269L590.256 269ZM595.148 269L595.148 247.862L596.335 247.862L610.896 268.561L609.284 267.066L609.899 267.066L609.899 247.862L611.042 247.862L611.042 269L609.855 269L595.295 248.302L596.906 249.796L596.291 249.796L596.291 269L595.148 269Z" fill="#58BDF6"/>
<g clip-path="url(#clip2_820_470)">
<path d="M379.984 -338.474C399.464 -297.726 416.733 -245.545 393.876 -212.6C357.201 -159.74 248.412 -201.349 211.103 -149.649C180.437 -107.154 259.885 -42.5551 234.656 0.116183C203.388 53.0004 67.1518 -5.37137 33.2208 46.1911C-3.71264 102.31 120.057 228.638 87.5758 265.171C60.4454 295.688 -40.8931 224.4 -76.0279 260.216C-109.364 294.198 -46.0655 386.826 -81.855 420.895C-98.7208 436.947 -129.661 432.449 -155.007 425.209" stroke="#00A3FF" stroke-width="0.216166" stroke-miterlimit="10"/>
<path d="M372.563 -342.354C379.779 -323.996 386.24 -303.009 389.914 -281.802C394.234 -256.521 395.698 -232.434 382.974 -213.55C347.619 -161.079 240.945 -201.229 203.629 -150.747C173.234 -109.357 249.304 -46.5703 224.043 -4.8765C192.843 46.7462 60.2614 -8.98185 26.2657 41.6852C6.34775 71.3694 28.7143 117.76 50.5615 160.919C71.6531 202.584 92.621 241.455 77.7178 259.471C70.4265 268.283 57.2781 269.092 41.114 266.494C0.404428 260.071 -58.8644 230.69 -84.0279 256.342C-116.721 289.668 -55.0789 380.83 -89.1138 415.766C-104.968 432.041 -134.869 428.011 -159.059 421.637" stroke="#00A3FF" stroke-width="0.222651" stroke-miterlimit="10"/>
<path d="M365.142 -346.235C370.665 -328.149 375.192 -307.203 378.136 -285.264C381.657 -259.022 385.111 -234.396 372.071 -214.502C337.968 -162.476 233.32 -201.225 196.154 -151.847C165.904 -111.657 238.722 -50.5861 213.428 -9.86979C182.296 40.4914 53.3354 -12.6104 19.3096 37.1816C-1.6002 67.7774 19.8259 113.339 40.6955 155.528C61.1741 196.931 81.8348 235.546 67.8574 253.768C60.9963 262.712 48.4383 263.841 32.6042 261.681C-7.3098 256.236 -66.8404 226.785 -92.0335 252.466C-124.084 285.137 -64.0585 374.774 -96.3781 410.637C-111.218 427.106 -140.085 423.574 -163.117 418.062" stroke="#00A3FF" stroke-width="0.229136" stroke-miterlimit="10"/>
<path d="M357.723 -350.115C361.554 -332.305 364.117 -311.393 366.357 -288.727C369.047 -261.515 374.523 -236.368 361.168 -215.455C328.262 -163.92 225.781 -201.167 188.679 -152.949C158.641 -113.91 228.137 -54.6052 202.813 -14.8663C171.748 34.2318 46.3801 -16.2595 12.3546 32.6734C-9.55471 64.179 10.9308 108.921 30.8289 150.133C50.696 191.283 71.048 229.64 57.9949 248.06C51.5625 257.138 39.5885 258.607 24.0923 256.864C-15.0378 252.455 -74.8153 222.876 -100.038 248.586C-131.446 280.603 -73.0099 368.65 -103.641 405.504C-117.468 422.139 -145.298 419.134 -167.173 414.485" stroke="#00A3FF" stroke-width="0.237782" stroke-miterlimit="10"/>
<path d="M350.303 -353.995C352.442 -336.456 353.04 -315.579 354.578 -292.187C356.433 -264.004 363.928 -238.345 350.266 -216.403C318.505 -165.399 218.243 -201.101 181.206 -154.045C151.385 -116.158 217.472 -58.6748 192.2 -19.8568C161.099 27.9136 39.3989 -19.9199 5.39928 28.171C-17.5171 60.5849 2.02601 104.518 20.962 144.745C39.8981 184.972 60.2608 223.746 48.1337 242.36C42.1299 251.577 30.7399 253.384 15.5833 252.052C-22.7661 248.683 -82.7904 218.973 -108.041 244.713C-138.807 276.075 -81.9328 362.469 -110.902 400.377C-123.719 417.15 -150.51 414.698 -171.228 410.913" stroke="#00A3FF" stroke-width="0.244267" stroke-miterlimit="10"/>
<path d="M342.88 -357.876C343.327 -340.61 341.956 -319.767 342.797 -295.649C343.814 -266.494 353.33 -240.332 339.361 -217.355C308.7 -166.92 210.708 -201.042 173.729 -155.147C144.127 -118.409 206.868 -62.7072 181.583 -24.8526C150.527 21.6391 32.3898 -23.5999 -1.55805 23.6634C-25.4891 56.9807 -6.89164 100.117 11.0947 139.35C29.734 180.008 49.4745 217.852 38.272 236.654C32.6983 246.011 21.8893 248.153 7.0722 247.235C-30.4996 244.906 -90.7676 215.065 -116.045 240.833C-146.169 271.54 -90.8398 356.21 -118.164 395.245C-129.979 412.123 -155.722 410.258 -175.283 407.335" stroke="#00A3FF" stroke-width="0.250752" stroke-miterlimit="10"/>
<path d="M335.461 -361.758C334.217 -344.766 330.874 -323.953 331.02 -299.111C331.198 -268.983 342.728 -242.326 328.459 -218.306C298.857 -168.468 203.18 -200.98 166.256 -156.245C136.879 -120.656 196.271 -66.7363 170.968 -29.8435C139.959 15.3694 25.3593 -27.2875 -8.5157 19.1607C-33.4705 53.3783 -15.8189 95.7301 1.22702 133.963C19.2499 174.386 38.6893 211.972 28.41 230.955C23.2648 240.458 13.0383 242.933 -1.43916 242.426C-38.2364 241.14 -98.7451 211.164 -124.052 236.961C-153.534 267.013 -99.7411 349.888 -125.43 390.121C-136.252 407.071 -160.939 405.825 -179.343 403.765" stroke="#00A3FF" stroke-width="0.257237" stroke-miterlimit="10"/>
<path d="M328.04 -365.638C325.103 -348.919 319.789 -328.138 319.24 -302.572C318.575 -271.472 332.117 -244.326 317.557 -219.257C288.973 -170.043 195.657 -200.918 158.781 -157.344C129.632 -122.902 185.671 -70.7644 160.353 -34.8366C129.393 9.09762 18.3094 -30.9915 -15.4701 14.6558C-41.4547 49.7705 -24.7553 91.3499 -8.63738 128.571C8.76738 168.767 27.9103 206.095 18.5513 225.251C13.836 234.901 4.18912 237.705 -9.94422 237.611C-45.9715 237.37 -106.716 207.258 -132.05 233.084C-160.889 262.483 -108.635 343.491 -132.687 384.991C-142.534 401.981 -166.146 401.388 -183.393 400.192" stroke="#00A3FF" stroke-width="0.265884" stroke-miterlimit="10"/>
<path d="M320.62 -369.518C315.991 -353.071 308.7 -332.322 307.461 -306.032C305.951 -273.958 321.5 -246.333 306.653 -220.206C279.055 -171.64 188.136 -200.851 151.307 -158.443C122.391 -125.147 175.075 -74.7951 149.739 -39.8292C118.83 2.8279 11.2436 -34.706 -22.4253 10.153C-49.4504 46.16 -33.7019 86.9806 -18.5042 123.182C-1.72069 163.158 17.1334 200.227 8.69007 219.55C4.40782 229.35 -4.66567 232.485 -18.4548 232.801C-53.7138 233.608 -114.693 203.356 -140.054 229.212C-168.252 257.956 -117.547 337.028 -139.949 379.865C-148.839 396.866 -171.359 396.954 -187.448 396.619" stroke="#00A3FF" stroke-width="0.272369" stroke-miterlimit="10"/>
<path d="M313.2 -373.399C306.88 -357.226 297.611 -336.508 295.683 -309.494C293.325 -276.447 310.875 -248.35 295.751 -221.159C269.108 -173.262 180.621 -200.788 143.832 -159.545C115.152 -127.393 164.479 -78.8275 139.125 -44.8251C108.268 -3.44662 4.15879 -38.4333 -29.3813 5.64378C-57.4543 42.5383 -42.6631 82.6124 -28.3717 117.787C-12.2127 157.551 6.3602 194.359 -1.17182 213.843C-5.01964 223.798 -13.5196 227.259 -26.9661 227.984C-61.4614 229.842 -122.669 199.446 -148.06 225.33C-175.615 253.419 -126.479 330.488 -147.213 374.731C-155.169 391.711 -176.574 392.513 -191.506 393.042" stroke="#00A3FF" stroke-width="0.278854" stroke-miterlimit="10"/>
<path d="M305.779 -377.28C297.766 -361.381 286.52 -340.694 283.904 -312.956C280.695 -278.934 300.243 -250.37 284.848 -222.108C259.131 -174.899 173.112 -200.722 136.356 -160.642C107.917 -129.633 153.884 -82.8543 128.509 -49.8169C97.7072 -9.71398 -2.93887 -42.1689 -36.3382 1.14171C-65.4683 38.9175 -51.6377 78.2634 -38.2371 112.399C-22.7074 151.962 -4.40636 188.504 -11.0316 208.144C-14.4435 218.254 -22.3745 222.041 -35.4737 223.172C-69.2069 226.085 -130.642 195.543 -156.061 221.457C-182.974 248.893 -135.445 323.893 -154.473 369.606C-161.522 386.539 -181.785 388.077 -195.561 389.471" stroke="#00A3FF" stroke-width="0.285339" stroke-miterlimit="10"/>
<path d="M298.36 -381.162C288.655 -365.535 275.428 -344.881 272.127 -316.42C268.067 -281.425 289.602 -252.401 273.948 -223.063C249.133 -176.556 165.611 -200.656 128.885 -161.744C100.693 -131.874 143.294 -86.8853 117.898 -54.813C87.1527 -15.9871 -10.049 -45.9168 -43.2893 -3.3661C-73.4855 35.2848 -60.6204 73.916 -48.0997 107.005C-33.2025 146.374 -15.1626 182.648 -20.8885 202.438C-23.8615 212.708 -31.2267 216.82 -43.98 218.356C-76.9558 222.329 -138.615 191.636 -164.06 217.579C-190.331 244.359 -144.452 317.232 -161.729 364.473C-167.896 381.337 -186.991 383.638 -199.609 385.893" stroke="#00A3FF" stroke-width="0.291824" stroke-miterlimit="10"/>
<path d="M290.938 -385.042C279.543 -369.689 264.334 -349.066 260.348 -319.88C255.436 -283.913 278.948 -254.433 263.043 -224.013C239.103 -178.224 158.109 -200.584 121.409 -162.845C93.4684 -134.111 132.702 -90.9147 107.28 -59.806C76.5934 -22.2556 -17.1758 -49.6725 -50.2496 -7.87094C-81.5195 31.6502 -69.6262 69.579 -57.9701 101.613C-43.7131 140.794 -25.9205 176.799 -30.7547 196.732C-33.2842 207.163 -40.0912 211.602 -52.4957 213.541C-84.7156 218.577 -146.597 187.729 -172.07 213.702C-197.699 239.827 -153.528 310.521 -168.998 359.344C-174.313 376.116 -192.21 379.201 -203.672 382.319" stroke="#00A3FF" stroke-width="0.300471" stroke-miterlimit="10"/>
<path d="M283.518 -388.922C270.429 -373.842 253.238 -353.25 248.569 -323.34C242.801 -286.401 268.284 -256.472 252.142 -224.962C229.058 -179.902 149.164 -201.912 113.937 -163.941C87.3491 -135.284 122.115 -94.9387 96.6683 -64.7966C66.0412 -28.5201 -24.3092 -53.4321 -57.2014 -12.3733C-89.5541 28.0118 -78.639 65.2563 -67.8335 96.2247C-54.223 135.23 -36.6639 170.956 -40.6124 191.032C-42.6954 201.627 -48.9457 206.391 -61.0012 208.729C-92.4685 214.835 -154.568 183.826 -180.07 209.825C-205.056 235.298 -162.662 303.769 -176.256 354.215C-180.749 370.882 -197.42 374.764 -207.724 378.746" stroke="#00A3FF" stroke-width="0.306956" stroke-miterlimit="10"/>
<path d="M276.099 -392.803C261.318 -377.995 242.142 -357.438 236.79 -326.804C230.165 -288.891 257.607 -258.522 241.238 -225.914C218.988 -181.596 141.636 -201.92 106.46 -165.043C80.1543 -137.466 111.526 -98.9676 86.0512 -69.7922C55.4869 -34.7895 -31.4567 -57.206 -64.1599 -16.8792C-97.6058 24.3622 -87.6754 60.9376 -77.702 90.8345C-64.7474 129.674 -47.4063 165.115 -50.4753 185.33C-52.1088 196.089 -57.807 201.18 -69.512 203.918C-100.227 211.1 -162.544 179.925 -188.075 205.953C-212.419 230.771 -171.877 296.986 -183.519 349.089C-187.215 365.637 -202.631 370.33 -211.78 375.174" stroke="#00A3FF" stroke-width="0.313441" stroke-miterlimit="10"/>
<path d="M268.676 -396.685C252.205 -382.151 231.043 -361.626 225.008 -330.267C217.527 -291.383 246.916 -260.577 230.333 -226.868C208.899 -183.298 134.128 -201.918 98.9829 -166.144C72.9542 -139.648 100.938 -102.993 75.4347 -74.7871C44.9362 -41.0552 -38.6127 -60.9856 -71.1177 -21.3874C-105.666 20.7008 -96.7251 56.6269 -87.5698 85.4389C-75.2788 124.119 -58.1404 159.266 -60.3375 179.623C-61.5168 190.548 -66.6675 195.966 -78.0235 199.1C-107.987 207.366 -170.52 176.015 -196.079 202.073C-219.781 226.235 -181.177 290.169 -190.783 343.955C-193.716 360.376 -207.847 365.886 -215.837 371.595" stroke="#00A3FF" stroke-width="0.319926" stroke-miterlimit="10"/>
<path d="M261.255 -400.565C243.091 -386.305 219.944 -365.813 213.229 -333.727C204.889 -293.871 236.214 -262.637 219.43 -227.816C198.796 -185.005 128.177 -200.269 91.509 -167.242C64.6257 -143.027 90.3555 -107.018 64.8209 -79.7794C34.3897 -47.3197 -45.7765 -64.7703 -78.0729 -25.89C-113.732 17.0388 -105.791 52.3277 -97.4365 80.0504C-85.8232 118.583 -68.8657 153.426 -70.1986 173.923C-70.9192 185.012 -75.5256 190.764 -86.5324 194.288C-115.747 203.646 -178.495 172.111 -204.083 198.198C-227.143 221.707 -190.572 283.343 -198.046 338.828C-200.24 355.118 -213.061 361.452 -219.895 368.023" stroke="#00A3FF" stroke-width="0.328572" stroke-miterlimit="10"/>
<path d="M253.837 -404.446C233.98 -390.458 208.848 -370.001 201.452 -337.188C192.252 -296.362 225.497 -264.703 208.529 -228.768C188.678 -186.724 120.713 -200.18 84.0369 -168.341C57.4322 -145.245 79.7765 -111.04 54.2089 -84.7728C23.8466 -53.5808 -52.9445 -68.5624 -85.0261 -30.3967C-121.808 13.3617 -114.873 48.0361 -107.3 74.6562C-96.3795 113.049 -79.58 147.582 -80.0561 168.217C-80.315 179.47 -84.3817 185.557 -95.0394 189.472C-123.502 199.927 -186.468 168.204 -212.083 194.319C-234.499 217.172 -200.057 276.513 -205.305 333.696C-206.787 349.856 -218.271 357.012 -223.946 364.446" stroke="#00A3FF" stroke-width="0.335057" stroke-miterlimit="10"/>
<path d="M246.416 -408.325C224.869 -394.611 197.747 -374.187 189.673 -340.648C179.612 -298.853 214.763 -266.778 197.625 -229.717C178.541 -188.443 113.252 -200.081 76.5597 -169.44C50.2381 -147.457 69.1937 -115.06 43.5902 -89.7638C13.3013 -59.8378 -60.1267 -72.3599 -91.9845 -34.8995C-129.897 9.6824 -123.977 43.7559 -117.168 69.2691C-106.957 107.534 -90.2949 141.741 -89.919 162.518C-89.713 173.936 -93.2432 180.361 -103.552 184.663C-131.261 196.223 -194.446 164.303 -220.089 190.448C-241.864 212.646 -209.651 269.698 -212.568 328.572C-213.363 344.603 -223.483 352.579 -228.004 360.877" stroke="#00A3FF" stroke-width="0.341542" stroke-miterlimit="10"/>
<path d="M238.996 -412.205C215.756 -398.763 186.646 -378.374 177.896 -344.11C166.975 -301.345 204.011 -268.859 186.726 -230.668C168.396 -190.173 105.804 -199.976 69.0891 -170.538C43.0551 -149.665 58.2124 -119.503 32.9797 -94.7563C3.24744 -65.5984 -67.3068 -76.165 -98.9364 -39.4022C-137.992 5.99063 -133.096 39.4815 -127.032 63.8805C-117.55 102.027 -100.997 135.897 -99.7768 156.818C-99.1014 168.398 -102.097 175.167 -112.059 179.852C-139.011 192.527 -202.419 160.401 -228.091 186.573C-249.223 208.116 -219.342 262.9 -219.829 323.444C-219.956 339.355 -228.695 348.143 -232.057 357.305" stroke="#00A3FF" stroke-width="0.348027" stroke-miterlimit="10"/>
<path d="M231.574 -416.089C206.643 -402.922 175.544 -382.567 166.115 -347.574C154.33 -303.84 193.239 -270.95 175.821 -231.621C158.231 -191.906 98.3588 -199.867 61.6125 -171.642C35.8737 -151.87 48.0445 -123.101 22.3633 -99.754C-7.77283 -72.3569 -74.5003 -79.9802 -105.894 -43.9133C-146.103 2.28268 -142.24 35.2076 -136.899 58.482C-128.171 96.5201 -111.699 130.042 -109.639 151.107C-108.492 162.849 -110.953 169.967 -120.569 175.03C-146.76 188.827 -210.395 156.488 -236.095 182.69C-256.584 203.58 -229.136 256.124 -227.091 318.309C-226.572 334.109 -233.908 343.7 -236.114 353.723" stroke="#00A3FF" stroke-width="0.356674" stroke-miterlimit="10"/>
<path d="M224.154 -419.968C197.531 -407.074 164.442 -386.755 154.337 -351.035C141.69 -306.332 182.449 -273.046 164.918 -232.573C148.057 -193.643 90.9226 -199.743 54.1389 -172.74C28.6997 -154.065 37.4713 -127.114 11.7497 -104.747C-18.3055 -78.6077 -81.6954 -83.7979 -112.849 -48.4161C-154.223 -1.42946 -151.405 30.9475 -146.766 53.0933C-138.82 91.03 -122.393 124.193 -119.501 145.405C-117.879 157.307 -119.806 164.775 -129.079 170.22C-154.505 185.146 -218.37 152.584 -244.098 178.816C-263.945 199.051 -239.025 249.394 -234.351 313.181C-233.2 328.88 -239.12 339.264 -240.167 350.152" stroke="#00A3FF" stroke-width="0.363159" stroke-miterlimit="10"/>
<path d="M216.733 -423.849C188.417 -411.226 153.339 -390.944 142.557 -354.496C129.046 -308.824 171.636 -275.15 154.015 -233.521C137.871 -195.38 83.4943 -199.607 46.6626 -173.837C21.529 -156.25 26.8986 -131.127 1.13356 -109.738C-28.8393 -84.8559 -88.8976 -87.6162 -119.805 -52.9194C-162.355 -5.153 -160.59 26.6928 -156.63 47.7041C-149.501 85.5481 -133.082 118.338 -129.36 139.704C-127.259 151.763 -128.656 159.588 -137.587 165.408C-162.239 181.471 -226.344 148.681 -252.1 174.944C-271.306 194.524 -249.009 242.714 -241.613 308.056C-239.845 323.668 -244.331 334.832 -244.223 346.581" stroke="#00A3FF" stroke-width="0.369644" stroke-miterlimit="10"/>
<path d="M209.314 -427.729C179.307 -415.382 142.238 -395.134 130.78 -357.957C116.404 -311.319 160.799 -277.263 143.115 -234.473C127.676 -197.12 76.075 -199.463 39.1909 -174.937C14.3674 -158.429 16.3334 -135.135 -9.47799 -114.731C-39.3654 -91.1028 -96.1012 -91.4455 -126.759 -57.4245C-170.498 -8.89081 -169.798 22.4388 -166.496 42.313C-160.224 80.0742 -143.768 112.48 -139.22 134.002C-136.639 146.216 -137.505 154.402 -146.095 160.594C-169.967 177.799 -234.319 144.775 -260.102 171.065C-278.665 189.991 -259.078 236.084 -248.874 302.925C-246.501 318.467 -249.542 330.391 -248.276 343.005" stroke="#00A3FF" stroke-width="0.376129" stroke-miterlimit="10"/>
<path d="M201.893 -431.61C170.194 -419.536 131.066 -399.347 118.999 -361.42C103.673 -313.842 149.935 -279.385 132.208 -235.425C117.464 -198.866 68.6567 -199.305 31.7129 -176.039C7.20379 -160.604 5.76182 -139.146 -20.0975 -119.727C-49.8996 -97.3487 -103.316 -95.28 -133.719 -61.9316C-178.658 -12.6415 -179.033 18.1871 -176.367 36.9201C-171.003 74.6021 -154.456 106.613 -149.085 128.297C-146.023 140.665 -146.353 149.216 -154.61 155.779C-177.69 174.131 -242.299 140.869 -268.111 167.188C-286.032 185.46 -269.232 229.513 -256.141 297.796C-253.171 313.281 -254.76 325.955 -252.338 339.431" stroke="#00A3FF" stroke-width="0.382614" stroke-miterlimit="10"/>
<path d="M194.472 -435.493C161.081 -423.691 119.971 -403.537 107.219 -364.883C91.0402 -316.335 139.044 -281.516 121.306 -236.378C107.248 -200.608 61.2511 -199.13 24.2402 -177.139C0.0469009 -162.765 -4.80146 -143.149 -30.7101 -124.721C-60.4239 -103.587 -110.525 -99.1178 -140.673 -66.4359C-186.824 -16.4034 -188.287 13.9393 -186.231 31.5283C-181.835 69.1378 -165.135 100.743 -158.944 122.593C-155.396 135.112 -155.194 144.029 -163.118 150.965C-185.401 170.468 -250.272 136.965 -276.111 163.312C-293.39 180.928 -279.446 223.008 -263.399 292.666C-259.84 308.114 -259.969 321.516 -256.389 335.857" stroke="#00A3FF" stroke-width="0.39126" stroke-miterlimit="10"/>
<path d="M187.051 -439.373C151.968 -427.845 108.878 -407.724 95.4403 -368.344C78.4057 -318.826 128.127 -283.654 110.402 -237.327C97.0202 -202.351 53.8469 -198.935 16.7631 -178.238C-7.10849 -164.916 -15.3662 -147.146 -41.3271 -129.713C-70.9497 -109.821 -117.744 -102.96 -147.631 -70.9416C-195.01 -20.1821 -197.569 9.68656 -196.099 26.1383C-192.746 63.6724 -175.819 94.8724 -168.806 116.891C-164.774 129.559 -164.232 138.646 -171.628 146.152C-192.539 167.379 -258.248 133.06 -284.117 159.436C-300.753 176.399 -289.726 216.571 -270.664 287.537C-266.52 302.962 -265.185 317.08 -260.447 332.281" stroke="#00A3FF" stroke-width="0.397745" stroke-miterlimit="10"/>
<path d="M179.63 -443.253C142.855 -431.998 97.7806 -411.913 83.6606 -371.804C65.7737 -321.318 117.174 -285.799 99.4988 -238.279C86.784 -204.093 46.4509 -198.722 9.28842 -179.337C-14.2601 -167.053 -25.9301 -151.14 -51.9417 -134.706C-81.4731 -116.049 -124.963 -106.808 -154.587 -75.4449C-203.206 -23.9726 -206.874 5.43119 -205.965 20.7476C-203.745 58.2031 -186.496 88.9962 -178.667 111.189C-174.147 124.003 -172.868 133.665 -180.138 141.339C-200.795 163.15 -266.222 129.155 -292.12 155.56C-308.114 171.868 -300.053 210.201 -277.925 282.409C-273.199 297.831 -270.394 312.644 -264.501 328.709" stroke="#00A3FF" stroke-width="0.40423" stroke-miterlimit="10"/>
<path d="M172.212 -447.133C133.745 -436.15 86.6898 -416.101 71.8855 -375.267C53.1433 -323.811 106.19 -287.955 88.6 -239.229C76.543 -205.831 39.0621 -198.487 1.8183 -180.437C-21.4059 -169.181 -36.4864 -155.129 -62.5517 -139.7C-91.989 -122.275 -132.18 -110.66 -161.538 -79.9525C-211.411 -27.7844 -216.199 1.16489 -215.828 15.3541C-214.851 52.7167 -197.171 83.1124 -188.524 105.484C-183.516 118.439 -181.697 128.478 -188.643 136.525C-208.473 159.49 -274.194 125.249 -300.119 151.685C-315.472 167.338 -310.415 203.898 -285.183 277.278C-279.876 292.714 -275.604 308.204 -268.554 325.133" stroke="#00A3FF" stroke-width="0.410715" stroke-miterlimit="10"/>
<path d="M164.791 -451.014C124.633 -440.304 75.5943 -420.288 60.1057 -378.728C40.5097 -326.302 95.1654 -290.119 77.6967 -240.18C66.2884 -207.57 31.6714 -198.228 -5.65636 -181.536C-28.5579 -171.296 -47.0474 -159.114 -73.1662 -144.694C-102.511 -128.493 -139.404 -114.517 -168.494 -84.4558C-219.636 -31.6074 -225.552 -3.11427 -225.696 9.96485C-226.1 47.2122 -207.847 77.2301 -198.386 99.7827C-192.89 112.88 -190.526 123.294 -197.152 131.712C-216.144 155.83 -282.169 121.345 -308.123 147.81C-322.832 162.81 -320.812 197.66 -292.445 272.151C-286.555 287.616 -280.817 303.771 -272.609 321.561" stroke="#00A3FF" stroke-width="0.419362" stroke-miterlimit="10"/>
<path d="M157.37 -454.895C115.518 -444.46 64.499 -424.479 48.3261 -382.19C27.8747 -328.795 84.0994 -292.297 66.7918 -241.132C56.0261 -209.306 24.2802 -197.943 -13.134 -182.636C-35.7132 -173.398 -57.5878 -163.05 -83.7854 -149.686C-113.01 -134.656 -146.635 -118.378 -175.453 -88.9604C-227.879 -35.4474 -234.933 -7.41512 -235.563 4.57435C-237.516 41.6637 -218.526 71.3434 -208.249 94.082C-202.267 107.319 -199.354 118.112 -205.665 126.901C-223.811 152.17 -290.148 117.443 -316.13 143.935C-330.197 158.28 -331.236 191.485 -299.711 267.024C-293.238 282.536 -286.034 299.334 -276.669 317.988" stroke="#00A3FF" stroke-width="0.425847" stroke-miterlimit="10"/>
<path d="M149.949 -458.777C106.406 -448.614 53.4041 -428.668 36.5469 -385.652C15.2433 -331.288 72.9896 -294.479 55.8906 -242.083C33.0585 -172.121 -84.9117 -191.742 -182.407 -93.4666C-236.132 -39.3105 -244.328 -11.75 -245.428 -0.817774C-251.304 57.5514 -197.893 97.2136 -214.174 122.084C-231.466 148.5 -298.123 113.534 -324.133 140.057C-340.289 156.533 -342.958 198.974 -280.723 314.412" stroke="#00A3FF" stroke-width="0.432332" stroke-miterlimit="10"/>
</g>
<path opacity="0.7" d="M99.7451 117.308C98.1924 117.308 96.8594 116.868 95.7461 115.989C94.6328 115.101 93.7734 113.846 93.168 112.225C92.5723 110.604 92.2744 108.68 92.2744 106.453L92.2744 106.409C92.2744 104.183 92.5723 102.259 93.168 100.638C93.7734 99.0068 94.6328 97.752 95.7461 96.873C96.8594 95.9941 98.1924 95.5547 99.7451 95.5547C101.298 95.5547 102.631 95.999 103.744 96.8877C104.857 97.7666 105.712 99.0166 106.308 100.638C106.913 102.259 107.216 104.183 107.216 106.409L107.216 106.453C107.216 108.689 106.913 110.618 106.308 112.239C105.712 113.86 104.857 115.11 103.744 115.989C102.631 116.868 101.298 117.308 99.7451 117.308ZM99.7451 116.268C101.063 116.268 102.191 115.867 103.129 115.066C104.076 114.266 104.804 113.133 105.312 111.668C105.819 110.193 106.073 108.455 106.073 106.453L106.073 106.409C106.073 104.388 105.819 102.645 105.312 101.18C104.804 99.7148 104.076 98.5869 103.129 97.7959C102.191 96.9951 101.063 96.5947 99.7451 96.5947C98.417 96.5947 97.2793 96.9951 96.332 97.7959C95.3945 98.5967 94.6719 99.7344 94.1641 101.209C93.666 102.674 93.417 104.407 93.417 106.409L93.417 106.453C93.417 108.465 93.666 110.203 94.1641 111.668C94.6719 113.133 95.3945 114.266 96.332 115.066C97.2793 115.867 98.417 116.268 99.7451 116.268ZM108.974 117L116.854 105.984L116.532 107.01L116.532 106.38L109.003 95.8623L110.38 95.8623L117.25 105.486L117.88 105.486L117.001 105.955L124.193 95.8623L125.541 95.8623L117.968 106.409L117.968 107.024L117.646 106.014L125.497 117L124.105 117L117.265 107.391L116.635 107.391L117.514 106.937L110.307 117L108.974 117ZM128.031 117L128.031 95.8623L140.277 95.8623L140.277 96.917L129.174 96.917L129.174 105.765L139.398 105.765L139.398 106.819L129.174 106.819L129.174 117L128.031 117ZM139.618 117L147.704 95.8623L148.583 95.8623L148.583 97.3418L148.261 97.3418L140.849 117L139.618 117ZM142.914 109.939L143.295 108.929L153.256 108.929L153.622 109.939L142.914 109.939ZM155.717 117L148.305 97.3418L148.305 95.8623L148.861 95.8623L156.933 117L155.717 117ZM159.145 117L159.145 95.8623L160.287 95.8623L160.287 117L159.145 117ZM164.037 117L164.037 95.8623L170.878 95.8623C172.284 95.8623 173.49 96.1064 174.496 96.5947C175.512 97.083 176.293 97.7813 176.84 98.6895C177.387 99.5879 177.66 100.657 177.66 101.897L177.66 101.927C177.66 103.44 177.226 104.715 176.356 105.75C175.497 106.775 174.301 107.444 172.768 107.757L178.202 117L176.869 117L171.581 107.933C171.474 107.942 171.342 107.952 171.186 107.962C171.029 107.962 170.893 107.962 170.775 107.962L165.18 107.962L165.18 117L164.037 117ZM165.18 106.922L170.819 106.922C172.587 106.922 173.974 106.482 174.979 105.604C175.985 104.715 176.488 103.494 176.488 101.941L176.488 101.912C176.488 100.34 175.98 99.1143 174.965 98.2354C173.959 97.3564 172.567 96.917 170.79 96.917L165.18 96.917L165.18 106.922ZM186.273 117L186.273 107.786L178.583 95.8623L179.931 95.8623L186.815 106.614L186.874 106.614L193.759 95.8623L195.106 95.8623L187.416 107.786L187.416 117L186.273 117ZM197.289 117L197.289 95.8623L204.13 95.8623C205.536 95.8623 206.742 96.1064 207.748 96.5947C208.764 97.083 209.545 97.7813 210.092 98.6895C210.639 99.5879 210.912 100.657 210.912 101.897L210.912 101.927C210.912 103.44 210.478 104.715 209.608 105.75C208.749 106.775 207.553 107.444 206.02 107.757L211.454 117L210.121 117L204.833 107.933C204.726 107.942 204.594 107.952 204.437 107.962C204.281 107.962 204.145 107.962 204.027 107.962L198.432 107.962L198.432 117L197.289 117ZM198.432 106.922L204.071 106.922C205.839 106.922 207.226 106.482 208.231 105.604C209.237 104.715 209.74 103.494 209.74 101.941L209.74 101.912C209.74 100.34 209.232 99.1143 208.217 98.2354C207.211 97.3564 205.819 96.917 204.042 96.917L198.432 96.917L198.432 106.922ZM218.471 117.308C217.553 117.308 216.752 117.176 216.068 116.912C215.385 116.639 214.813 116.263 214.354 115.784C213.905 115.306 213.554 114.754 213.3 114.129C213.056 113.504 212.904 112.845 212.846 112.151L212.831 111.946L213.988 111.946L214.003 112.122C214.062 112.845 214.252 113.519 214.574 114.144C214.896 114.769 215.375 115.276 216.01 115.667C216.645 116.048 217.465 116.238 218.471 116.238C219.936 116.238 221.078 115.799 221.898 114.92C222.729 114.041 223.144 112.825 223.144 111.272L223.144 95.8623L224.286 95.8623L224.286 111.316C224.286 112.547 224.052 113.611 223.583 114.51C223.114 115.408 222.445 116.102 221.576 116.59C220.707 117.068 219.672 117.308 218.471 117.308ZM232.68 117L226.776 95.8623L227.992 95.8623L233.207 115.066L233.236 115.066L238.817 95.8623L239.931 95.8623L245.512 115.066L245.541 115.066L250.771 95.8623L251.972 95.8623L246.068 117L245.028 117L239.389 97.957L239.359 97.957L233.72 117L232.68 117ZM254.447 117L254.447 95.8623L266.693 95.8623L266.693 96.917L255.59 96.917L255.59 105.765L265.814 105.765L265.814 106.819L255.59 106.819L255.59 117L254.447 117ZM277.475 117.308C275.854 117.308 274.452 116.99 273.271 116.355C272.089 115.721 271.181 114.832 270.546 113.689C269.911 112.547 269.594 111.204 269.594 109.661L269.594 95.8623L270.736 95.8623L270.736 109.617C270.736 110.965 271.01 112.137 271.557 113.133C272.104 114.119 272.88 114.886 273.886 115.433C274.892 115.97 276.088 116.238 277.475 116.238C278.871 116.238 280.072 115.97 281.078 115.433C282.094 114.886 282.87 114.119 283.407 113.133C283.954 112.137 284.228 110.965 284.228 109.617L284.228 95.8623L285.385 95.8623L285.385 109.661C285.385 111.204 285.062 112.552 284.418 113.704C283.773 114.847 282.86 115.735 281.679 116.37C280.507 116.995 279.105 117.308 277.475 117.308ZM294.979 117L294.979 96.917L287.567 96.917L287.567 95.8623L303.534 95.8623L303.534 96.917L296.122 96.917L296.122 117L294.979 117ZM313.598 117.308C311.977 117.308 310.575 116.99 309.394 116.355C308.212 115.721 307.304 114.832 306.669 113.689C306.034 112.547 305.717 111.204 305.717 109.661L305.717 95.8623L306.859 95.8623L306.859 109.617C306.859 110.965 307.133 112.137 307.68 113.133C308.227 114.119 309.003 114.886 310.009 115.433C311.015 115.97 312.211 116.238 313.598 116.238C314.994 116.238 316.195 115.97 317.201 115.433C318.217 114.886 318.993 114.119 319.53 113.133C320.077 112.137 320.351 110.965 320.351 109.617L320.351 95.8623L321.508 95.8623L321.508 109.661C321.508 111.204 321.186 112.552 320.541 113.704C319.896 114.847 318.983 115.735 317.802 116.37C316.63 116.995 315.229 117.308 313.598 117.308ZM325.258 117L325.258 95.8623L332.099 95.8623C333.505 95.8623 334.711 96.1064 335.717 96.5947C336.732 97.083 337.514 97.7813 338.061 98.6895C338.607 99.5879 338.881 100.657 338.881 101.897L338.881 101.927C338.881 103.44 338.446 104.715 337.577 105.75C336.718 106.775 335.521 107.444 333.988 107.757L339.423 117L338.09 117L332.802 107.933C332.694 107.942 332.562 107.952 332.406 107.962C332.25 107.962 332.113 107.962 331.996 107.962L326.4 107.962L326.4 117L325.258 117ZM326.4 106.922L332.04 106.922C333.808 106.922 335.194 106.482 336.2 105.604C337.206 104.715 337.709 103.494 337.709 101.941L337.709 101.912C337.709 100.34 337.201 99.1143 336.186 98.2354C335.18 97.3564 333.788 96.917 332.011 96.917L326.4 96.917L326.4 106.922ZM342.074 117L342.074 95.8623L354.394 95.8623L354.394 96.917L343.217 96.917L343.217 105.633L353.852 105.633L353.852 106.688L343.217 106.688L343.217 115.945L354.394 115.945L354.394 117L342.074 117ZM362.348 117L356.444 95.8623L357.66 95.8623L362.875 115.066L362.904 115.066L368.485 95.8623L369.599 95.8623L375.18 115.066L375.209 115.066L380.438 95.8623L381.64 95.8623L375.736 117L374.696 117L369.057 97.957L369.027 97.957L363.388 117L362.348 117ZM384.115 117L384.115 95.8623L390.648 95.8623C392.787 95.8623 394.604 96.2773 396.098 97.1074C397.592 97.9375 398.734 99.1387 399.525 100.711C400.326 102.273 400.727 104.173 400.727 106.409L400.727 106.438C400.727 108.685 400.331 110.594 399.54 112.166C398.749 113.738 397.602 114.939 396.098 115.77C394.594 116.59 392.777 117 390.648 117L384.115 117ZM385.258 115.945L390.59 115.945C392.514 115.945 394.14 115.579 395.468 114.847C396.806 114.104 397.821 113.025 398.515 111.609C399.208 110.193 399.555 108.475 399.555 106.453L399.555 106.424C399.555 104.393 399.208 102.669 398.515 101.253C397.821 99.8369 396.806 98.7627 395.468 98.0303C394.14 97.2881 392.514 96.917 390.59 96.917L385.258 96.917L385.258 115.945ZM403.598 117L403.598 95.8623L404.784 95.8623L419.345 116.561L417.733 115.066L418.349 115.066L418.349 95.8623L419.491 95.8623L419.491 117L418.305 117L403.744 96.3018L405.355 97.7959L404.74 97.7959L404.74 117L403.598 117ZM423.256 117L423.256 95.8623L424.398 95.8623L424.398 117L423.256 117ZM428.148 117L428.148 95.8623L429.335 95.8623L443.896 116.561L442.284 115.066L442.899 115.066L442.899 95.8623L444.042 95.8623L444.042 117L442.855 117L428.295 96.3018L429.906 97.7959L429.291 97.7959L429.291 117L428.148 117ZM456.332 117.308C454.437 117.308 452.782 116.858 451.366 115.96C449.95 115.052 448.852 113.782 448.07 112.151C447.299 110.521 446.913 108.611 446.913 106.424L446.913 106.395C446.913 104.188 447.299 102.273 448.07 100.652C448.842 99.0313 449.931 97.7764 451.337 96.8877C452.753 95.999 454.418 95.5547 456.332 95.5547C457.777 95.5547 459.066 95.8379 460.199 96.4043C461.332 96.9609 462.265 97.7373 462.997 98.7334C463.729 99.7295 464.223 100.877 464.477 102.176L464.506 102.322L463.363 102.322L463.319 102.132C463.056 101.058 462.611 100.11 461.986 99.29C461.361 98.46 460.57 97.8105 459.613 97.3418C458.666 96.8633 457.572 96.624 456.332 96.624C454.652 96.624 453.192 97.0244 451.952 97.8252C450.722 98.626 449.77 99.7588 449.096 101.224C448.422 102.688 448.085 104.412 448.085 106.395L448.085 106.424C448.085 108.396 448.427 110.12 449.11 111.595C449.794 113.06 450.751 114.202 451.981 115.022C453.222 115.833 454.672 116.238 456.332 116.238C457.572 116.238 458.666 116.004 459.613 115.535C460.561 115.057 461.352 114.402 461.986 113.572C462.621 112.732 463.07 111.766 463.334 110.672L463.363 110.54L464.506 110.54L464.477 110.687C464.223 111.985 463.729 113.133 462.997 114.129C462.265 115.125 461.332 115.906 460.199 116.473C459.066 117.029 457.777 117.308 456.332 117.308ZM467.23 117L467.23 95.8623L479.55 95.8623L479.55 96.917L468.373 96.917L468.373 105.633L479.008 105.633L479.008 106.688L468.373 106.688L468.373 115.945L479.55 115.945L479.55 117L467.23 117Z" fill="#58BDF6"/>
</g>
<defs>
<clipPath id="clip0_820_470">
<rect width="818" height="298" fill="white"/>
</clipPath>
<clipPath id="clip1_820_470">
<rect width="929.109" height="511.563" fill="white" transform="translate(54 310.127) rotate(-16.8377)"/>
</clipPath>
<clipPath id="clip2_820_470">
<rect width="929.109" height="511.563" fill="white" transform="translate(540.889 -171.779) rotate(136.038)"/>
</clipPath>
</defs>
</svg>
