<svg width="818" height="298" viewBox="0 0 818 298" fill="none" xmlns="http://www.w3.org/2000/svg">
<g clip-path="url(#clip0_820_391)">
<rect width="818" height="298" fill="white"/>
<path d="M821.93 129.402C780.391 101.118 718.419 69.2811 646.346 74.9708C529.633 84.1845 487.956 183.791 376.822 219.829C309.919 241.524 207.538 243.521 53.7461 153.106" stroke="#58BDF6" stroke-width="0.747862" stroke-miterlimit="10"/>
<path opacity="0.98" d="M822.925 126.496C778.101 103.8 712.769 76.2177 638.879 80.6794C525.017 87.5537 484.888 183.831 375.908 215.93C308.925 235.66 205.759 235.913 50.4268 152.299" stroke="#58BDF6" stroke-width="0.747862" stroke-miterlimit="10"/>
<path opacity="0.96" d="M823.916 123.597C775.806 106.487 707.154 83.19 631.409 86.3939C520.437 91.0874 481.742 183.8 374.991 212.039C307.878 229.792 203.978 228.314 47.1045 151.501" stroke="#58BDF6" stroke-width="0.747862" stroke-miterlimit="10"/>
<path opacity="0.93" d="M824.91 120.698C773.515 109.177 701.574 90.1945 623.941 92.109C515.892 94.7729 478.524 183.689 374.076 208.147C306.781 223.906 202.2 220.714 43.7861 150.701" stroke="#58BDF6" stroke-width="0.747862" stroke-miterlimit="10"/>
<path opacity="0.91" d="M825.9 117.797C771.22 111.862 696.018 97.2341 616.471 97.8219C511.372 98.5982 475.232 183.485 373.158 204.255C305.631 217.994 200.417 213.112 40.4629 149.9" stroke="#58BDF6" stroke-width="0.747862" stroke-miterlimit="10"/>
<path opacity="0.89" d="M826.895 114.895C768.929 114.548 690.491 104.311 609.004 103.534C506.877 102.558 471.876 183.179 372.244 200.359C304.435 212.051 198.638 205.509 37.1436 149.096" stroke="#58BDF6" stroke-width="0.747862" stroke-miterlimit="10"/>
<path opacity="0.87" d="M827.885 111.997C766.634 117.236 684.981 111.439 601.533 109.249C502.395 106.648 468.452 182.774 371.326 196.469C303.19 206.076 196.857 197.91 33.8203 148.298" stroke="#58BDF6" stroke-width="0.747862" stroke-miterlimit="10"/>
<path opacity="0.85" d="M828.88 109.09C764.344 119.918 679.491 118.606 594.066 114.957C497.93 110.848 464.976 182.248 370.412 192.57C301.904 200.048 195.079 190.302 30.5029 147.49" stroke="#58BDF6" stroke-width="0.747862" stroke-miterlimit="10"/>
<path opacity="0.83" d="M829.871 106.188C762.051 122.602 674.012 125.834 586.596 120.668C493.47 115.163 461.446 181.609 369.495 188.675C300.575 193.972 193.299 182.698 27.1807 146.687" stroke="#58BDF6" stroke-width="0.747862" stroke-miterlimit="10"/>
<path opacity="0.8" d="M830.864 103.292C759.757 125.295 668.542 133.128 579.129 126.386C489.016 119.591 457.877 180.858 368.581 184.787C299.217 187.84 191.52 175.102 23.8613 145.891" stroke="#58BDF6" stroke-width="0.747862" stroke-miterlimit="10"/>
<path opacity="0.78" d="M831.855 100.39C757.464 127.978 663.076 140.483 571.659 132.096C484.56 124.107 454.272 179.973 367.662 180.891C297.825 181.631 189.736 167.498 20.5371 145.086" stroke="#58BDF6" stroke-width="0.747862" stroke-miterlimit="10"/>
<path opacity="0.76" d="M832.849 97.4907C755.172 130.667 657.613 147.913 564.192 137.811C480.105 128.718 450.648 178.97 366.747 176.999C296.417 175.346 187.959 159.897 17.2188 144.286" stroke="#58BDF6" stroke-width="0.747862" stroke-miterlimit="10"/>
<path opacity="0.74" d="M833.84 94.5879C752.878 133.351 652.141 155.422 556.722 143.522C475.641 133.411 447.009 177.841 365.83 173.104C294.995 168.97 186.177 152.294 13.8965 143.485" stroke="#58BDF6" stroke-width="0.747862" stroke-miterlimit="10"/>
<path opacity="0.72" d="M834.834 91.6895C750.586 136.041 646.663 163.024 549.254 149.237C471.169 138.187 443.373 176.597 364.915 169.213C293.576 162.5 184.399 144.693 10.5762 142.685" stroke="#58BDF6" stroke-width="0.747862" stroke-miterlimit="10"/>
<path opacity="0.7" d="M835.827 88.7866C748.294 138.724 641.168 170.719 541.786 154.948C466.687 143.032 439.749 175.23 363.999 165.318C292.169 155.919 182.619 137.091 7.25586 141.882" stroke="#58BDF6" stroke-width="0.747862" stroke-miterlimit="10"/>
<path opacity="0.67" d="M836.818 85.8833C746 141.409 635.646 178.524 534.315 160.659C462.185 147.942 436.146 173.753 363.082 161.422C290.781 149.22 180.837 129.485 3.93457 141.077" stroke="#58BDF6" stroke-width="0.747862" stroke-miterlimit="10"/>
<path opacity="0.65" d="M837.811 82.9805C743.708 144.093 630.099 186.45 526.847 166.37C457.669 152.916 432.584 172.173 362.167 157.527C289.437 142.401 179.059 121.883 0.614258 140.274" stroke="#58BDF6" stroke-width="0.747862" stroke-miterlimit="10"/>
<path opacity="0.63" d="M838.804 80.0859C741.416 146.786 624.51 194.519 519.378 172.089C453.128 157.955 429.07 170.507 361.25 153.64C288.145 135.458 177.278 114.287 -2.70703 139.478" stroke="#58BDF6" stroke-width="0.747862" stroke-miterlimit="10"/>
<path opacity="0.61" d="M839.795 77.1792C739.121 149.466 618.871 202.724 511.908 177.797C448.563 163.034 425.617 168.746 360.333 149.741C286.923 128.372 175.496 106.679 -6.0293 138.671" stroke="#58BDF6" stroke-width="0.747862" stroke-miterlimit="10"/>
<path opacity="0.59" d="M840.788 74.2803C736.83 152.155 613.171 211.102 504.442 183.511C443.97 168.167 422.243 166.921 359.42 145.849C285.794 121.155 173.719 99.0794 -9.34668 137.871" stroke="#58BDF6" stroke-width="0.747862" stroke-miterlimit="10"/>
<path opacity="0.57" d="M841.78 71.3774C734.535 154.839 607.395 219.659 496.972 189.223C439.339 173.338 418.951 165.034 358.502 141.955C284.766 113.802 171.938 91.4755 -12.6689 137.068" stroke="#58BDF6" stroke-width="0.747862" stroke-miterlimit="10"/>
<path opacity="0.54" d="M842.772 68.4824C732.242 157.532 601.528 228.428 489.503 194.941C434.671 178.551 415.754 163.112 357.584 138.066C283.859 106.324 170.157 83.8794 -15.9922 136.273" stroke="#58BDF6" stroke-width="0.747862" stroke-miterlimit="10"/>
<path opacity="0.52" d="M843.764 65.5757C729.948 160.212 595.549 237.41 482.034 200.649C429.957 183.784 412.663 161.151 356.668 134.168C283.092 98.7134 168.376 76.2716 -19.3135 135.466" stroke="#58BDF6" stroke-width="0.747862" stroke-miterlimit="10"/>
<path opacity="0.5" d="M844.756 62.6812C727.656 162.905 589.434 246.654 474.564 206.368C425.193 189.053 409.683 159.188 355.751 130.28C282.474 91.0027 166.595 68.676 -22.6338 134.67" stroke="#58BDF6" stroke-width="0.747862" stroke-miterlimit="10"/>
<path opacity="0.48" d="M841.446 59.9697C721.898 159.054 584.124 238.516 470.035 200.285C417.596 182.713 399.76 152.767 344.403 126.208C269.605 90.3225 156.293 73.6272 -26.1445 140.547" stroke="#58BDF6" stroke-width="0.747862" stroke-miterlimit="10"/>
<path opacity="0.46" d="M838.136 57.2583C716.14 155.201 578.75 230.52 465.506 194.202C409.98 176.394 389.855 146.338 333.054 122.137C256.761 89.6303 145.991 78.5798 -29.6562 146.426" stroke="#58BDF6" stroke-width="0.747862" stroke-miterlimit="10"/>
<path opacity="0.43" d="M834.824 54.5474C710.381 151.351 573.322 222.649 460.977 188.118C402.347 170.098 379.968 139.898 321.705 118.063C243.943 88.9206 135.688 83.53 -33.167 152.302" stroke="#58BDF6" stroke-width="0.747862" stroke-miterlimit="10"/>
<path opacity="0.41" d="M831.513 51.8359C704.623 147.498 567.85 214.885 456.447 182.036C394.698 163.828 370.097 133.447 310.355 113.991C231.143 88.194 125.385 88.4797 -36.6797 158.179" stroke="#58BDF6" stroke-width="0.747862" stroke-miterlimit="10"/>
<path opacity="0.39" d="M828.203 49.1245C698.865 143.647 562.344 207.217 451.918 175.953C387.037 157.584 360.242 126.981 299.006 109.918C218.364 87.4464 115.081 93.4308 -40.1914 164.057" stroke="#58BDF6" stroke-width="0.747862" stroke-miterlimit="10"/>
<path opacity="0.37" d="M824.891 46.4175C693.105 139.798 556.806 199.633 447.388 169.874C379.361 151.372 350.396 120.505 287.657 105.85C205.6 86.6824 104.779 98.3864 -43.7031 169.939" stroke="#58BDF6" stroke-width="0.747862" stroke-miterlimit="10"/>
<path opacity="0.35" d="M821.582 43.7021C687.35 135.943 551.246 192.115 442.86 163.786C371.676 145.181 340.562 114.003 276.308 101.772C192.85 85.8846 94.4776 103.332 -47.2139 175.81" stroke="#58BDF6" stroke-width="0.747862" stroke-miterlimit="10"/>
<path opacity="0.33" d="M818.269 40.9951C681.589 132.095 545.665 184.671 438.329 157.708C363.976 139.031 330.731 107.494 264.958 97.704C180.107 85.0741 84.1728 108.288 -50.7266 181.692" stroke="#58BDF6" stroke-width="0.747862" stroke-miterlimit="10"/>
<path opacity="0.3" d="M814.959 38.2876C675.831 128.248 540.067 177.284 433.799 151.629C356.27 132.912 320.908 100.966 253.608 93.6354C167.369 84.2407 73.8695 113.243 -54.2393 187.573" stroke="#58BDF6" stroke-width="0.747862" stroke-miterlimit="10"/>
<path opacity="0.28" d="M811.648 35.5806C670.073 124.4 534.457 169.947 429.271 145.551C348.555 126.829 311.088 94.4223 242.26 89.5672C154.638 83.3854 63.5676 118.197 -57.749 193.456" stroke="#58BDF6" stroke-width="0.747862" stroke-miterlimit="10"/>
<path opacity="0.26" d="M808.337 32.8652C664.313 120.545 528.837 162.651 424.74 139.462C340.83 120.772 301.265 87.8525 230.909 85.4893C141.905 82.4993 53.2638 123.143 -61.2607 199.327" stroke="#58BDF6" stroke-width="0.747862" stroke-miterlimit="10"/>
<path opacity="0.24" d="M805.027 30.1582C658.557 116.696 523.209 155.403 420.212 133.384C333.1 114.762 291.444 81.2761 219.562 81.4212C129.173 81.6036 42.9635 128.098 -64.7705 205.209" stroke="#58BDF6" stroke-width="0.747862" stroke-miterlimit="10"/>
<path opacity="0.22" d="M801.716 27.4468C652.798 112.845 517.572 148.188 415.682 127.301C325.361 108.787 281.619 74.6802 208.212 77.3486C116.434 80.6856 32.6587 133.049 -68.2832 211.086" stroke="#58BDF6" stroke-width="0.747862" stroke-miterlimit="10"/>
<path opacity="0.2" d="M798.405 24.7358C647.039 108.993 511.932 141.007 411.153 121.219C317.616 102.853 271.79 68.07 196.863 73.2766C103.692 79.7501 22.3574 138.001 -71.7939 216.963" stroke="#58BDF6" stroke-width="0.747862" stroke-miterlimit="10"/>
<path opacity="0.17" d="M795.094 22.0244C641.281 105.142 506.289 133.858 406.623 115.135C309.865 96.9587 261.955 61.4457 185.513 69.2025C90.943 78.7991 12.0541 142.951 -75.3066 222.839" stroke="#58BDF6" stroke-width="0.747862" stroke-miterlimit="10"/>
<path opacity="0.15" d="M791.782 19.313C635.521 101.289 500.643 126.736 402.092 109.052C302.108 91.1107 252.115 54.8125 174.162 65.13C78.1843 77.8347 1.74835 147.902 -78.8203 228.717" stroke="#58BDF6" stroke-width="0.747862" stroke-miterlimit="10"/>
<path opacity="0.13" d="M788.471 16.6021C629.763 97.4384 494.998 119.641 397.562 102.97C294.345 85.3081 242.267 48.1678 162.813 61.058C65.4201 76.8588 -8.55396 152.852 -82.332 234.595" stroke="#58BDF6" stroke-width="0.747862" stroke-miterlimit="10"/>
<path opacity="0.11" d="M785.16 13.8906C624.005 93.5858 489.353 112.57 393.034 96.8868C286.582 79.5529 232.416 41.5136 151.464 56.9854C52.6478 75.8734 -18.8568 157.805 -85.8428 240.472" stroke="#58BDF6" stroke-width="0.747862" stroke-miterlimit="10"/>
<path opacity="0.09" d="M781.849 11.1836C618.245 89.739 483.71 105.525 388.504 90.8069C278.81 73.8514 222.555 34.8534 140.115 52.9158C39.8656 74.8805 -29.1591 162.757 -89.3545 246.352" stroke="#58BDF6" stroke-width="0.747862" stroke-miterlimit="10"/>
<path opacity="0.07" d="M778.54 8.47217C612.489 85.8863 478.071 98.4953 383.975 84.7242C271.039 68.1964 212.688 28.1843 128.766 48.8432C27.0759 73.8772 -39.4614 167.708 -92.8662 252.229" stroke="#58BDF6" stroke-width="0.747862" stroke-miterlimit="10"/>
<path opacity="0.04" d="M775.228 5.76074C606.73 82.0352 472.434 91.4837 379.445 78.6414C263.261 62.5952 202.812 21.5077 117.416 44.7707C14.2757 72.8679 -49.7652 172.66 -96.3779 258.106" stroke="#58BDF6" stroke-width="0.747862" stroke-miterlimit="10"/>
<path opacity="0.02" d="M771.916 3.05371C600.969 78.1869 466.801 84.4944 374.914 72.563C255.482 57.0538 192.894 14.7144 106.066 40.7026C1.42472 71.7149 -60.069 177.615 -99.8896 263.989" stroke="#58BDF6" stroke-width="0.747862" stroke-miterlimit="10"/>
<rect x="299.5" y="39.5" width="221" height="221" rx="11.5" fill="white" stroke="#58BDF6"/>
<g clip-path="url(#clip1_820_391)">
<path d="M463.077 92.5278C464.44 91.1652 466.652 91.1652 468.015 92.5278L485.729 110.242C486.384 110.898 486.752 111.786 486.752 112.711C486.752 113.637 486.384 114.525 485.729 115.181L397.426 203.481C396.77 204.137 395.885 204.503 394.957 204.503C394.032 204.503 393.145 204.136 392.489 203.481L336.523 147.515C335.868 146.859 335.5 145.971 335.5 145.045C335.5 144.12 335.868 143.231 336.523 142.575L354.237 124.861C355.6 123.498 357.812 123.498 359.175 124.861L394.605 160.292L394.959 160.646L395.312 160.292L463.077 92.5278ZM397.426 168.055C396.77 168.711 395.884 169.079 394.956 169.079C394.028 169.079 393.142 168.711 392.486 168.055L357.059 132.625L356.705 132.271L343.931 145.045L394.959 196.074L395.312 195.72L477.968 113.062L478.321 112.708L465.547 99.9341L397.426 168.055Z" stroke="#58BDF6"/>
</g>
</g>
<defs>
<clipPath id="clip0_820_391">
<rect width="818" height="298" fill="white"/>
</clipPath>
<clipPath id="clip1_820_391">
<rect width="152.252" height="114" fill="white" transform="translate(335 91)"/>
</clipPath>
</defs>
</svg>
